<?xml version="1.0" encoding="UTF-8" standalone="no"?>
<!-- Created with Inkscape (http://www.inkscape.org/) -->

<svg
   xmlns:dc="http://purl.org/dc/elements/1.1/"
   xmlns:cc="http://creativecommons.org/ns#"
   xmlns:rdf="http://www.w3.org/1999/02/22-rdf-syntax-ns#"
   xmlns:svg="http://www.w3.org/2000/svg"
   xmlns="http://www.w3.org/2000/svg"
   xmlns:sodipodi="http://sodipodi.sourceforge.net/DTD/sodipodi-0.dtd"
   xmlns:inkscape="http://www.inkscape.org/namespaces/inkscape"
   width="297mm"
   height="210mm"
   viewBox="0 0 297 210"
   version="1.1"
   id="svg8"
   sodipodi:docname="MindDesign-v0.svg"
   inkscape:version="0.92.3 (2405546, 2018-03-11)">
  <defs
     id="defs2" />
  <sodipodi:namedview
     id="base"
     pagecolor="#ffffff"
     bordercolor="#666666"
     borderopacity="1.0"
     inkscape:pageopacity="0.0"
     inkscape:pageshadow="2"
     inkscape:zoom="0.98994949"
     inkscape:cx="488.9631"
     inkscape:cy="515.43558"
     inkscape:document-units="px"
     inkscape:current-layer="layer1"
     showgrid="false"
     inkscape:object-nodes="false"
     units="px" />
  <metadata
     id="metadata5">
    <rdf:RDF>
      <cc:Work
         rdf:about="">
        <dc:format>image/svg+xml</dc:format>
        <dc:type
           rdf:resource="http://purl.org/dc/dcmitype/StillImage" />
        <dc:title></dc:title>
      </cc:Work>
    </rdf:RDF>
  </metadata>
  <g
     inkscape:label="Layer 1"
     inkscape:groupmode="layer"
     id="layer1"
     transform="translate(0,-87)">
    <path
       inkscape:connector-curvature="0"
       id="path18"
       style="font-style:normal;font-variant:normal;font-weight:normal;font-stretch:normal;font-size:medium;line-height:125%;font-family:'Blackberry Jam Personal Use';-inkscape-font-specification:'Blackberry Jam Personal Use, Normal';font-variant-ligatures:normal;font-variant-caps:normal;font-variant-numeric:normal;font-feature-settings:normal;text-align:start;letter-spacing:5px;word-spacing:0px;writing-mode:lr-tb;text-anchor:start;fill:#000000;fill-opacity:1;stroke:none;stroke-width:0.26458332px;stroke-linecap:butt;stroke-linejoin:miter;stroke-opacity:1"
       d="m 71.559359,155.25568 q 0.109523,-0.25556 0.730151,0.0365 0.620628,0.25556 1.314271,0.73015 0.730151,0.4746 1.277764,1.05872 0.58412,0.54762 0.620628,0.87618 -0.620628,3.79679 -1.350779,6.7904 -0.693643,2.95711 -1.350779,5.51264 -0.73015,2.84759 -1.350778,5.84121 -0.584121,2.95711 -0.949196,5.98723 -0.03651,0.25555 -0.07301,0.51111 0,0.21904 0.03651,0.32857 0,-0.10953 0.109523,-0.36508 0.109523,-0.29206 0.219045,-0.62063 0.109523,-0.32857 0.219045,-0.62063 0.146031,-0.32856 0.219046,-0.47459 0.474598,-1.16825 0.985703,-2.33649 0.511105,-1.16824 1.022211,-2.29997 l 0.912688,-2.04442 q 2.190452,-4.89201 4.636457,-9.52847 2.482512,-4.67296 5.841205,-8.94434 0.255553,-0.21905 0.949196,0.073 0.73015,0.25555 1.277763,0.69364 0.438091,0.29206 0.876181,0.62063 0.474598,0.29206 0.803166,0.58412 0.365075,0.25556 0.547613,0.51111 0.219045,0.21904 0.219045,0.32857 -0.511106,0.54761 -1.241256,2.08093 -0.730151,1.53331 -1.496809,3.68726 -0.766658,2.11743 -1.460301,4.63645 -0.693643,2.48252 -1.131734,5.00153 -0.401583,2.48252 -0.474598,4.74598 -0.03651,2.26347 0.511106,3.8698 0.29206,0.98571 0.839673,1.64284 0.584121,0.65714 1.423794,0.83967 0.474598,0.14603 0.985703,0.18254 0.547613,0.073 1.058719,0.073 0.693643,0 1.350778,-0.10953 0.657136,-0.073 1.277764,-0.25555 0.43809,0 0.511105,0.29206 0.109523,0.29206 -0.03651,0.65714 -0.14603,0.36507 -0.511106,0.69364 -0.328567,0.32857 -0.693643,0.40158 -1.058718,0.10953 -2.299974,0.10953 -0.693643,0 -1.387286,-0.073 -0.693644,-0.0365 -1.314272,-0.18254 -2.080929,-0.40158 -3.358693,-1.64284 -1.241256,-1.24125 -1.861884,-3.10314 -0.474598,-1.4603 -0.58412,-3.17615 -0.109523,-1.75236 0.03651,-3.65075 0.14603,-1.8984 0.511106,-3.8698 0.365075,-1.97141 0.839673,-3.90631 -2.299975,3.8698 -4.271381,7.77611 -1.934899,3.9063 -3.614246,7.73959 -0.219045,0.4746 -0.657135,0.9492 -0.401583,0.4746 -0.985704,0.76666 -0.547613,0.32856 -1.277763,0.40158 -0.693644,0.10952 -1.460302,-0.18254 v 0.0365 q -1.241256,-0.4746 -1.752361,-2.00791 -0.438091,-1.31428 -0.328568,-3.32219 0.109523,-2.04442 0.547613,-4.45392 0.43809,-2.446 1.058718,-5.07455 0.657136,-2.66505 1.314271,-5.25708 0,-0.073 0.07302,-0.21905 -1.168241,2.11744 -2.37299,4.19837 -1.204749,2.04442 -2.555527,4.08884 h 0.03651 q -0.693643,1.09523 -1.423793,2.22696 -0.730151,1.09523 -1.715855,2.26347 -0.14603,0.10952 -0.474597,0.54761 -0.292061,0.43809 -0.693644,0.9492 -0.766658,0.9857 -1.679346,2.11744 -0.912688,1.13173 -2.007914,2.04442 -1.058719,0.94919 -2.336482,1.53331 -1.277764,0.62063 -2.738065,0.58412 -1.496809,0 -2.66505,-0.65713 -1.168241,-0.62063 -2.044422,-1.60633 -0.876181,-0.98571 -1.460301,-2.15395 -0.620628,-1.16824 -0.949196,-2.22696 -0.14603,-0.43809 -0.255553,-0.87618 -0.109522,-0.43809 -0.182537,-0.76666 -0.292061,-1.67934 -0.03651,-3.9063 0.219045,-2.26347 0.949196,-4.59995 0.730151,-2.37299 1.898392,-4.63646 1.204748,-2.29997 2.847587,-4.08884 1.642839,-1.78887 3.723768,-2.84759 2.08093,-1.09522 4.599949,-1.05872 1.058719,0.0365 2.007915,0.4746 0.949196,0.43809 1.715854,1.09523 0.766658,0.65713 1.314271,1.4603 0.547613,0.76666 0.766658,1.4603 0.255553,0.73015 0.14603,1.20475 v 0.0365 q -0.14603,0.69364 -0.73015,1.31427 -0.547613,0.58412 -1.204749,0.91269 -0.657136,0.29206 -1.204749,0.21904 -0.547613,-0.10952 -0.620628,-0.83967 0.03651,-0.40158 0,-1.24126 0,-0.87618 -0.29206,-1.67934 -0.182538,-0.65714 -0.620628,-1.13174 -0.401583,-0.5111 -1.095226,-0.58412 -1.898392,-0.073 -3.614246,0.87618 -1.679346,0.9492 -3.10314,2.55553 -1.423794,1.60633 -2.555527,3.65075 -1.095226,2.04442 -1.825377,4.16186 -0.693643,2.08093 -0.985703,4.05234 -0.328568,1.9349 -0.109523,3.32218 0,0.18254 0.03651,0.25556 0.07302,0.36507 0.182538,0.73015 0.07301,0.32856 0.14603,0.65713 0.109522,0.29206 0.219045,0.62063 0.14603,0.29206 0.29206,0.58412 0.547613,1.02221 1.460301,1.78887 0.912689,0.76666 2.628543,0.9857 1.606331,0 3.3952,-1.49681 1.825377,-1.53331 3.723768,-3.97932 1.898392,-2.446 3.833291,-5.51263 1.9349,-3.10314 3.833291,-6.2793 1.496809,-2.51902 2.95711,-4.92852 1.460302,-2.40949 2.847588,-4.45392 l 0.109522,-0.69364 z" />
    <path
       inkscape:connector-curvature="0"
       id="path20"
       style="font-style:normal;font-variant:normal;font-weight:normal;font-stretch:normal;font-size:medium;line-height:125%;font-family:'Blackberry Jam Personal Use';-inkscape-font-specification:'Blackberry Jam Personal Use, Normal';font-variant-ligatures:normal;font-variant-caps:normal;font-variant-numeric:normal;font-feature-settings:normal;text-align:start;letter-spacing:5px;word-spacing:0px;writing-mode:lr-tb;text-anchor:start;fill:#000000;fill-opacity:1;stroke:none;stroke-width:0.26458332px;stroke-linecap:butt;stroke-linejoin:miter;stroke-opacity:1"
       d="m 92.770805,167.88728 q 0.365075,-0.14603 1.058718,0.0365 0.730151,0.18254 1.423794,0.58412 0.730151,0.36508 1.277764,0.91269 0.547613,0.5111 0.620628,1.05872 l -0.657136,2.08093 q -0.43809,1.05871 -0.949196,2.48251 -0.511105,1.38728 -0.87618,2.62854 -0.328568,1.24126 -0.401583,2.11744 -0.07301,0.87618 0.43809,0.87618 h 0.401583 q 1.022211,-0.29206 1.788869,-0.87618 0.803166,-0.62063 1.460301,-1.38729 0.657136,-0.80316 1.168241,-1.64284 0.511102,-0.87618 0.985702,-1.71585 l 0.32857,-0.62063 q 0.10952,-0.14603 0.43809,-0.10952 0.36507,0.0365 0.69364,0.21904 0.36508,0.14603 0.58412,0.36508 0.21905,0.21904 0.073,0.43809 -0.94919,1.86188 -2.04442,3.54123 -1.095224,1.67935 -2.920601,3.03012 -0.219045,0.18254 -0.58412,0.43809 -0.365076,0.21905 -0.876181,0.4381 -0.474598,0.21904 -1.058718,0.32856 -0.584121,0.14603 -1.241257,0.14603 -1.277763,-0.0365 -2.117436,-0.73015 -0.876181,-0.73015 -1.204749,-1.78887 -0.29206,-0.76665 -0.219045,-1.75236 h -0.03651 q 0.03651,-1.20475 0.438091,-2.95711 0.365075,-1.75236 0.876181,-3.54123 0.365075,-1.27776 0.657135,-2.4095 0.255553,-1.16824 0.328568,-2.00791 z m 0.985703,-8.10467 q 0.365076,-0.0365 1.131734,0.36508 0.766658,0.36507 1.533316,0.87618 0.803166,0.5111 1.387286,1.05871 0.584121,0.51111 0.657136,0.73016 0.03651,0.58412 -0.182538,1.16824 -0.182537,0.58412 -0.365075,1.20474 -0.182538,0.62063 -0.365075,1.20475 -0.14603,0.58412 -0.14603,1.35078 -0.401583,-0.0365 -0.985704,-0.32857 -0.547613,-0.29206 -1.095226,-0.62062 -0.547613,-0.36508 -0.949196,-0.73015 -0.401582,-0.40159 -0.474598,-0.65714 -0.182537,-0.58412 -0.219045,-1.20475 0,-0.62063 0,-1.27776 0.03651,-0.73015 0,-1.4603 -0.03651,-0.76666 -0.182537,-1.35078 z m 3.395201,11.02527 q 0,-0.073 0,-0.14603 0.03651,-0.10952 0,-0.18253 0.109522,-0.10953 0,0.32856 z" />
    <path
       inkscape:connector-curvature="0"
       id="path22"
       style="font-style:normal;font-variant:normal;font-weight:normal;font-stretch:normal;font-size:medium;line-height:125%;font-family:'Blackberry Jam Personal Use';-inkscape-font-specification:'Blackberry Jam Personal Use, Normal';font-variant-ligatures:normal;font-variant-caps:normal;font-variant-numeric:normal;font-feature-settings:normal;text-align:start;letter-spacing:5px;word-spacing:0px;writing-mode:lr-tb;text-anchor:start;fill:#000000;fill-opacity:1;stroke:none;stroke-width:0.26458332px;stroke-linecap:butt;stroke-linejoin:miter;stroke-opacity:1"
       d="m 124.00927,177.52527 q -0.32857,0.65714 -0.91269,1.64284 -0.54762,0.9492 -1.35078,1.86188 -0.80317,0.91269 -1.82538,1.56983 -1.02221,0.62063 -2.19045,0.62063 -0.73015,0 -1.4603,-0.18254 -0.73015,-0.18254 -1.38729,-0.58412 -0.62062,-0.40159 -1.13173,-1.02221 -0.47459,-0.62063 -0.69364,-1.49681 -0.21904,-0.76666 -0.25555,-1.53332 -0.0365,-0.76666 0.0365,-1.60633 0.073,-0.87618 0.25555,-1.86188 0.18254,-0.98571 0.43809,-2.19046 0.14603,-0.58412 0.18254,-1.05871 0.0365,-0.4746 -0.073,-0.80317 -0.073,-0.18254 -0.4746,0 -0.36508,0.18254 -1.20475,0.9492 -1.05872,0.94919 -1.86188,1.86188 -0.76666,0.91269 -1.49681,1.97141 -0.36508,1.71585 -0.43809,3.46821 -0.0365,1.75236 0.36507,3.57774 0.0365,0.25555 -0.5111,0.18254 -0.54761,-0.0365 -1.24126,-0.25555 -0.69364,-0.25556 -1.31427,-0.54762 -0.65713,-0.32857 -0.80316,-0.62063 -0.29207,-1.13173 -0.36508,-2.22696 -0.073,-1.13173 0,-2.22695 0.0365,-1.09523 0.18254,-2.15395 0.14603,-1.09523 0.29206,-2.19045 0.18254,-1.13173 0.32857,-2.26347 0.10952,-1.16824 0.18253,-2.446 0.36508,-0.14603 1.05872,0.0365 0.73015,0.14603 1.49681,0.54762 0.76666,0.36507 1.38729,0.87618 0.62062,0.5111 0.80316,1.02221 1.02221,-1.05872 2.29998,-1.78887 1.27776,-0.73015 2.88409,-0.80317 0.4746,0 1.09523,0.29206 0.62062,0.29207 1.16824,0.73016 0.58412,0.43809 0.94919,0.94919 0.40159,0.4746 0.36508,0.83967 -0.18254,1.35078 -0.43809,2.55553 -0.25555,1.20475 -0.43809,2.04442 -0.32857,1.49681 -0.51111,2.66505 -0.18254,1.16824 0.18254,2.66505 0.0365,0.073 0.14603,0.10953 0.14603,0.0365 0.4746,-0.10953 0.91269,-0.40158 2.00791,-1.38728 1.09523,-0.98571 1.97141,-2.62855 0.43809,-0.80316 0.76666,-1.64283 l 0.40158,-0.9492 q 0.073,-0.14603 0.36508,-0.073 0.32856,0.0365 0.65713,0.21905 0.36508,0.18254 0.58412,0.43809 0.25555,0.21905 0.14603,0.43809 l -0.0365,-0.0365 z" />
    <path
       inkscape:connector-curvature="0"
       id="path24"
       style="font-style:normal;font-variant:normal;font-weight:normal;font-stretch:normal;font-size:medium;line-height:125%;font-family:'Blackberry Jam Personal Use';-inkscape-font-specification:'Blackberry Jam Personal Use, Normal';font-variant-ligatures:normal;font-variant-caps:normal;font-variant-numeric:normal;font-feature-settings:normal;text-align:start;letter-spacing:5px;word-spacing:0px;writing-mode:lr-tb;text-anchor:start;fill:#000000;fill-opacity:1;stroke:none;stroke-width:0.26458332px;stroke-linecap:butt;stroke-linejoin:miter;stroke-opacity:1"
       d="m 142.10674,177.12369 q -0.10953,0.83967 -0.18254,1.64284 -0.0365,0.80316 0.14603,1.38728 0.18254,0.43809 0.40158,0.51111 h 0.43809 q 0.9492,-0.25555 1.64284,-0.87618 0.73015,-0.62063 1.27776,-1.4238 0.54762,-0.80316 0.9492,-1.71585 0.43809,-0.91269 0.80317,-1.75236 l 0.40158,-0.91269 q 0.073,-0.14603 0.40158,-0.073 0.32857,0.0365 0.65714,0.21905 0.36507,0.18254 0.58412,0.43809 0.25555,0.21905 0.18253,0.43809 l -0.5111,1.05872 q -0.65714,1.53332 -1.56982,3.13965 -0.87619,1.60633 -2.15395,2.70155 -0.21904,0.18254 -0.58412,0.43809 -0.32857,0.21905 -0.80317,0.4381 -0.43809,0.21904 -1.02221,0.36507 -0.58412,0.14603 -1.27776,0.10952 -1.82538,-0.10952 -2.9206,-0.94919 -1.05872,-0.87618 -1.4603,-2.08093 l -0.073,-0.21905 q -0.9857,1.24126 -2.29997,2.15395 -1.31427,0.91269 -2.84759,0.94919 -1.35078,-0.10952 -2.37299,-0.5111 -1.02221,-0.43809 -1.75236,-1.02221 -0.69364,-0.62063 -1.13174,-1.31427 -0.43809,-0.69365 -0.62062,-1.31428 -0.10953,-0.29206 -0.14603,-0.5111 -0.0365,-0.21905 -0.073,-0.40158 -0.21904,-1.46031 0.29206,-3.24917 0.51111,-1.78887 1.67935,-3.3587 1.20475,-1.56982 2.99362,-2.62854 1.82537,-1.09523 4.16185,-1.09523 0.51111,0 0.9492,0.0365 0.4746,0.0365 0.9492,0.14603 1.27776,0.25555 2.15394,1.09523 l 0.25555,-0.69365 0.51111,-1.56982 q 0.73015,-1.97141 1.09522,-4.05233 0.36508,-2.11744 0.36508,-3.68727 0.36508,-0.18253 1.16824,0.0365 0.83967,0.21905 1.64284,0.65714 0.83967,0.43809 1.42379,1.02221 0.62063,0.54761 0.58412,1.09522 -0.073,0.40159 -0.25555,1.13174 -0.18254,0.73015 -0.43809,1.64284 -0.25555,0.91268 -0.58412,1.9349 -0.29206,0.9857 -0.58412,1.89839 v -0.0365 l -0.4746,1.4603 h 0.0365 q -0.62063,1.75236 -1.16824,3.57774 -0.51111,1.82538 -0.80317,3.72377 z m -8.46975,3.13965 q 0.5111,-0.14603 1.09522,-0.69365 0.62063,-0.54761 1.16825,-1.20475 0.58412,-0.69364 1.05871,-1.42379 0.51111,-0.76666 0.80317,-1.38729 l 0.10952,-0.91268 q 0.18254,-0.9492 0.40158,-1.82538 0.21905,-0.87618 0.4746,-1.75236 -0.29206,-0.4746 -0.80316,-0.83968 -0.4746,-0.40158 -1.35078,-0.43809 -1.4238,-0.0365 -2.48251,0.73015 -1.05872,0.76666 -1.78887,1.8984 -0.69365,1.13173 -1.09523,2.446 -0.36507,1.31427 -0.40158,2.33648 0,0.36508 0.0365,0.83968 0.073,0.43809 0.18253,0.80316 0.21905,0.69364 0.80317,1.16824 0.62063,0.4746 1.78887,0.25556 z" />
    <path
       inkscape:connector-curvature="0"
       id="path26"
       style="font-style:normal;font-variant:normal;font-weight:normal;font-stretch:normal;font-size:medium;line-height:125%;font-family:'Blackberry Jam Personal Use';-inkscape-font-specification:'Blackberry Jam Personal Use, Normal';font-variant-ligatures:normal;font-variant-caps:normal;font-variant-numeric:normal;font-feature-settings:normal;text-align:start;letter-spacing:5px;word-spacing:0px;writing-mode:lr-tb;text-anchor:start;fill:#000000;fill-opacity:1;stroke:none;stroke-width:0.26458332px;stroke-linecap:butt;stroke-linejoin:miter;stroke-opacity:1"
       d="m 105.19631,185.29939 q 2.29998,-0.14603 4.49044,0.40158 2.22695,0.51111 4.12534,1.60633 1.9349,1.05872 3.3952,2.59204 1.4603,1.53331 2.29997,3.3952 0.80317,2.33648 0.62063,4.96502 -0.18254,2.59204 -1.24125,5.14756 -1.02221,2.55553 -2.81108,4.89201 -1.75236,2.33649 -4.08885,4.16186 -2.33648,1.82538 -5.18407,2.95711 -2.84758,1.13174 -5.98723,1.24126 -1.314266,0.0365 -2.920596,-0.21905 -1.56983,-0.25555 -3.17615,-0.87618 -1.56983,-0.62063 -3.03013,-1.64284 -1.46031,-0.9857 -2.55553,-2.446 -0.40158,-0.65714 -0.073,-1.13173 0.32856,-0.51111 0.9857,-0.76666 0.65714,-0.29206 1.42379,-0.32857 0.80317,-0.0365 1.31427,0.25555 0.58412,1.24126 1.49681,2.19045 0.91269,0.9492 1.97141,1.53332 1.09523,0.62063 2.26347,0.87618 1.16824,0.29206 2.226956,0.21905 1.9349,-0.29206 3.94281,-1.38729 2.00791,-1.05872 3.79678,-2.66505 1.82538,-1.60633 3.28568,-3.61425 1.49681,-2.04442 2.4095,-4.23487 0.94919,-2.22696 1.20475,-4.49043 0.25555,-2.26346 -0.43809,-4.3809 -0.43809,-1.35078 -1.35078,-2.51902 -0.91269,-1.16824 -2.11744,-2.00791 -1.20475,-0.87618 -2.62854,-1.35078 -1.4238,-0.51111 -2.9206,-0.54761 -2.33649,0.10952 -4.49043,1.20474 -2.117436,1.05872 -3.906306,2.66505 -1.78887,1.60634 -3.17614,3.57774 -1.3873,1.97141 -2.26348,3.94282 -0.87618,1.9714 -1.16824,3.76027 -0.25555,1.75236 0.14604,2.95711 -0.32858,0.4746 -1.05873,0.29206 -0.69364,-0.21904 -1.4603,-0.76666 -0.76665,-0.54761 -1.42379,-1.24125 -0.65714,-0.73015 -0.80316,-1.24126 -0.40159,-1.20475 0.10951,-2.88409 0.4746,-1.67935 1.64284,-3.50473 1.16825,-1.86188 2.95711,-3.68726 1.82538,-1.82537 4.05235,-3.28568 2.22695,-1.4968 4.78248,-2.48251 2.592026,-0.9857 5.330086,-1.13173 z m -4.89201,3.76027 q 0.073,-0.25555 0.83968,0 0.80316,0.25556 1.71585,0.76666 0.91269,0.4746 1.60633,1.13174 0.69364,0.65713 0.62063,1.24125 -2.11744,5.11106 -3.50472,10.47766 -1.35078,5.3301 -1.934896,10.1491 -0.073,0.25555 -0.65714,0 -0.54761,-0.25555 -1.20475,-0.69365 -0.65713,-0.47459 -1.20475,-0.9857 -0.54761,-0.5111 -0.54761,-0.80316 -0.073,-2.29998 0.29206,-5.07455 0.36508,-2.77457 0.9492,-5.65867 0.62063,-2.88409 1.38728,-5.62216 0.80318,-2.73806 1.642836,-4.92852 z" />
    <path
       inkscape:connector-curvature="0"
       id="path28"
       style="font-style:normal;font-variant:normal;font-weight:normal;font-stretch:normal;font-size:medium;line-height:125%;font-family:'Blackberry Jam Personal Use';-inkscape-font-specification:'Blackberry Jam Personal Use, Normal';font-variant-ligatures:normal;font-variant-caps:normal;font-variant-numeric:normal;font-feature-settings:normal;text-align:start;letter-spacing:5px;word-spacing:0px;writing-mode:lr-tb;text-anchor:start;fill:#000000;fill-opacity:1;stroke:none;stroke-width:0.26458332px;stroke-linecap:butt;stroke-linejoin:miter;stroke-opacity:1"
       d="m 133.27823,202.20238 q -0.83968,2.40949 -2.99362,3.97932 -2.11744,1.56982 -5.07455,2.29997 0.29206,0.80317 0.98571,1.56983 0.69364,0.73015 1.75236,0.94919 0.76666,0.10952 1.67934,-0.073 0.91269,-0.21905 1.82538,-0.76666 0.91269,-0.54762 1.78887,-1.4238 0.87618,-0.87618 1.53332,-2.15394 0.40158,-0.80317 0.69364,-1.4603 0.29206,-0.65714 0.4746,-1.16824 0.14603,-0.25556 0.47459,-0.25556 0.36508,-0.0365 0.69365,0.14603 0.32857,0.14604 0.54761,0.4381 0.21905,0.25555 0.10952,0.62062 l -0.40158,0.91269 q -0.54761,1.20475 -1.35078,2.66505 -0.80316,1.4603 -2.11744,2.77457 -0.83967,0.69365 -1.75236,1.09523 -0.91269,0.40158 -1.78887,0.58412 -0.83967,0.18254 -1.56982,0.21905 -0.73015,0.073 -1.16824,0.073 -2.70156,0 -4.56344,-1.13173 -1.82538,-1.13174 -2.55553,-3.10314 -0.65714,-1.75236 -0.32857,-3.43171 0.29206,-1.71586 1.4603,-3.68726 0.40159,-0.65714 1.16824,-1.38729 0.76666,-0.73015 1.82538,-1.35078 1.05872,-0.65713 2.33648,-1.05872 1.27777,-0.40158 2.66505,-0.36507 1.38729,0.0365 2.44601,0.69364 1.05872,0.65714 1.42379,1.71586 0.14603,0.47459 0.10952,1.02221 0,0.5111 -0.29206,1.09522 z m -2.92061,-2.29998 q -1.31427,0.21905 -2.29997,0.9857 -0.9492,0.76666 -1.60633,1.78887 -0.65714,0.98571 -1.02221,2.11744 -0.36508,1.09523 -0.43809,2.00791 2.37299,-0.73015 4.01583,-2.08092 1.64283,-1.38729 2.33648,-3.43171 v 0.0365 q 0.18254,-0.51111 0,-0.91269 -0.18254,-0.62063 -0.98571,-0.51111 z" />
    <path
       inkscape:connector-curvature="0"
       id="path30"
       style="font-style:normal;font-variant:normal;font-weight:normal;font-stretch:normal;font-size:medium;line-height:125%;font-family:'Blackberry Jam Personal Use';-inkscape-font-specification:'Blackberry Jam Personal Use, Normal';font-variant-ligatures:normal;font-variant-caps:normal;font-variant-numeric:normal;font-feature-settings:normal;text-align:start;letter-spacing:5px;word-spacing:0px;writing-mode:lr-tb;text-anchor:start;fill:#000000;fill-opacity:1;stroke:none;stroke-width:0.26458332px;stroke-linecap:butt;stroke-linejoin:miter;stroke-opacity:1"
       d="m 137.62662,209.43087 q -0.36508,-1.05872 -0.0365,-2.11744 0.32857,-1.05872 1.16824,-1.64284 l 0.43809,-0.9857 q 0.62063,-1.27777 1.20475,-2.51902 0.58412,-1.27777 1.31427,-2.37299 0.14603,-0.21905 0.25555,-0.43809 0.10953,-0.21905 0.21905,-0.43809 0.40158,-0.73015 0.91269,-1.49681 0.5111,-0.80317 1.67934,-1.78887 0.54762,0.18254 1.35078,0.51111 0.83968,0.32856 1.53332,0.76665 0.69364,0.40159 1.02221,0.83968 0.32857,0.40158 -0.10952,0.73015 l 0.0365,-0.0365 q -0.47459,0.43809 -0.65713,0.73015 -0.14603,0.25555 -0.36508,0.65714 l -0.25555,0.5111 q -0.4746,0.9492 -0.40158,2.00792 0.073,1.05871 0.40158,2.11743 0.18254,0.58412 0.40158,1.16824 0.25556,0.54762 0.51111,1.13174 l 0.62063,1.60633 q 0.43809,1.13173 0.29206,2.08093 -0.14603,0.94919 -0.80317,1.60633 -0.62063,0.65714 -1.67935,0.9857 -1.02221,0.36508 -2.40949,0.29206 -2.84759,-0.18253 -4.49043,-1.27776 -1.67935,-1.13173 -2.15394,-2.62854 z m 5.43962,-4.92852 q -0.18254,-0.4746 -0.29206,-0.9492 -0.10952,-0.47459 -0.14603,-0.91268 -0.29206,0.54761 -0.58412,1.16824 -0.25555,0.58412 -0.51111,1.16824 l -0.14603,0.25555 0.73015,0.18254 q 0.14603,0.14603 0.51111,0.58412 0.40158,0.43809 0.76666,0.9492 0.36507,0.5111 0.58412,0.9857 0.21904,0.43809 0.0365,0.62063 -0.4746,-0.29206 -0.91269,-0.40159 -0.43809,-0.10952 -0.80317,-0.10952 -0.94919,0 -1.64284,0.43809 -0.73015,0.43809 -0.4746,1.16824 0.073,0.18254 0.21905,0.40159 0.14603,0.21904 0.32857,0.40158 0.5111,0.4746 1.20475,0.73015 0.69364,0.21904 1.27776,0.25555 1.35078,0.073 1.67935,-0.69364 0.32856,-0.76666 0,-1.82538 -0.14603,-0.4746 -0.40159,-0.9857 -0.21904,-0.51111 -0.43809,-1.05872 -0.29206,-0.54761 -0.54761,-1.13173 -0.25555,-0.62063 -0.43809,-1.24126 z" />
    <path
       inkscape:connector-curvature="0"
       id="path32"
       style="font-style:normal;font-variant:normal;font-weight:normal;font-stretch:normal;font-size:medium;line-height:125%;font-family:'Blackberry Jam Personal Use';-inkscape-font-specification:'Blackberry Jam Personal Use, Normal';font-variant-ligatures:normal;font-variant-caps:normal;font-variant-numeric:normal;font-feature-settings:normal;text-align:start;letter-spacing:5px;word-spacing:0px;writing-mode:lr-tb;text-anchor:start;fill:#000000;fill-opacity:1;stroke:none;stroke-width:0.26458332px;stroke-linecap:butt;stroke-linejoin:miter;stroke-opacity:1"
       d="m 155.93857,197.82147 q 0.36507,-0.14603 1.05872,0.0365 0.73015,0.18254 1.42379,0.58412 0.73015,0.36508 1.27776,0.91269 0.54762,0.5111 0.62063,1.05872 l -0.65713,2.08093 q -0.43809,1.05871 -0.9492,2.48251 -0.5111,1.38728 -0.87618,2.62854 -0.32857,1.24126 -0.40158,2.11744 -0.073,0.87618 0.43809,0.87618 h 0.40158 q 1.02221,-0.29206 1.78887,-0.87618 0.80317,-0.62063 1.4603,-1.38729 0.65714,-0.80316 1.16824,-1.64284 0.51111,-0.87618 0.98571,-1.71585 l 0.32856,-0.62063 q 0.10953,-0.14603 0.43809,-0.10952 0.36508,0.0365 0.69365,0.21904 0.36507,0.14603 0.58412,0.36508 0.21904,0.21904 0.073,0.43809 -0.94919,1.86188 -2.04442,3.54123 -1.09523,1.67935 -2.9206,3.03012 -0.21905,0.18254 -0.58412,0.43809 -0.36508,0.21905 -0.87618,0.4381 -0.4746,0.21904 -1.05872,0.32856 -0.58412,0.14603 -1.24126,0.14603 -1.27776,-0.0365 -2.11743,-0.73015 -0.87619,-0.73015 -1.20475,-1.78887 -0.29206,-0.76665 -0.21905,-1.75236 h -0.0365 q 0.0365,-1.20475 0.43809,-2.95711 0.36508,-1.75236 0.87619,-3.54123 0.36507,-1.27776 0.65713,-2.4095 0.25555,-1.16824 0.32857,-2.00791 z m 0.9857,-8.10467 q 0.36508,-0.0365 1.13174,0.36508 0.76665,0.36507 1.53331,0.87618 0.80317,0.5111 1.38729,1.05871 0.58412,0.51111 0.65713,0.73016 0.0365,0.58412 -0.18253,1.16824 -0.18254,0.58412 -0.36508,1.20474 -0.18254,0.62063 -0.36507,1.20475 -0.14603,0.58412 -0.14603,1.35078 -0.40159,-0.0365 -0.98571,-0.32857 -0.54761,-0.29206 -1.09522,-0.62062 -0.54762,-0.36508 -0.9492,-0.73015 -0.40158,-0.40159 -0.4746,-0.65714 -0.18254,-0.58412 -0.21904,-1.20475 0,-0.62063 0,-1.27776 0.0365,-0.73015 0,-1.4603 -0.0365,-0.76666 -0.18254,-1.35078 z m 3.3952,11.02527 q 0,-0.073 0,-0.14603 0.0365,-0.10952 0,-0.18253 0.10953,-0.10953 0,0.32856 z" />
    <path
       inkscape:connector-curvature="0"
       id="path34"
       style="font-style:normal;font-variant:normal;font-weight:normal;font-stretch:normal;font-size:medium;line-height:125%;font-family:'Blackberry Jam Personal Use';-inkscape-font-specification:'Blackberry Jam Personal Use, Normal';font-variant-ligatures:normal;font-variant-caps:normal;font-variant-numeric:normal;font-feature-settings:normal;text-align:start;letter-spacing:5px;word-spacing:0px;writing-mode:lr-tb;text-anchor:start;fill:#000000;fill-opacity:1;stroke:none;stroke-width:0.26458332px;stroke-linecap:butt;stroke-linejoin:miter;stroke-opacity:1"
       d="m 179.61998,216.3673 q 0.43809,0.14603 0.83967,0.29206 0.40158,0.14603 0.83967,0.32857 1.38729,0.54761 2.8841,1.09522 1.53331,0.54762 3.13964,0.9492 0.25556,0.10952 0.25556,0.5111 0,0.40159 -0.29206,0.83968 -0.29206,0.43809 -0.87618,0.76666 -0.58412,0.36507 -1.4238,0.36507 -0.76666,0 -1.53331,-0.32857 l -2.62855,-1.13173 h 0.0365 q -0.69364,-0.29206 -1.31427,-0.58412 -0.62063,-0.25555 -1.20475,-0.4746 -0.65713,1.16824 -1.49681,2.15395 -0.80316,0.9857 -1.9349,1.71585 -1.09522,0.73015 -2.55552,1.13173 -1.46031,0.43809 -3.43171,0.43809 -1.09523,0 -2.26347,-0.18253 -1.16824,-0.14603 -2.22696,-0.58413 -1.05872,-0.40158 -1.89839,-1.13173 -0.83967,-0.73015 -1.27776,-1.86188 -0.51111,-1.35078 -0.073,-2.51902 0.40158,-1.16824 1.53332,-2.04442 1.09522,-0.83968 2.77457,-1.31428 1.64284,-0.47459 3.57774,-0.47459 1.09522,0 1.97141,0.0365 0.87618,0.073 1.67934,0.18254 0.80317,0.10952 1.53332,0.25555 0.73015,0.14603 1.53331,0.36508 l 0.62063,-2.55553 0.21905,-0.9857 q -0.76666,0.62063 -1.67935,1.02221 -0.87618,0.36508 -1.82538,0.40158 -1.35077,-0.10952 -2.37299,-0.5111 -1.02221,-0.43809 -1.75236,-1.02221 -0.69364,-0.62063 -1.13173,-1.31427 -0.43809,-0.69365 -0.62063,-1.31428 -0.10952,-0.29206 -0.14603,-0.5111 -0.0365,-0.21905 -0.073,-0.40158 -0.21905,-1.46031 0.29206,-3.24917 0.5111,-1.78887 1.67934,-3.3587 1.20475,-1.56982 2.99362,-2.62854 1.82538,-1.09523 4.16186,-1.09523 0.51111,0 0.9492,0.0365 0.47459,0.0365 0.94919,0.14603 0.91269,0.18254 1.56983,0.62063 0.65713,0.43809 1.13173,1.02221 0.4746,0.58412 0.76666,1.27776 0.32856,0.69365 0.5111,1.35078 0.0365,0.21905 -0.21904,0.32857 -0.25556,0.10952 -0.62063,0.10952 -0.36508,0 -0.69364,-0.10952 -0.32857,-0.14603 -0.40159,-0.36507 -0.0365,-0.073 -0.10952,-0.18254 -0.0365,-0.10952 -0.10952,-0.21905 -0.21905,-0.58412 -0.73015,-1.24125 -0.51111,-0.65714 -1.71586,-0.69365 -1.42379,-0.0365 -2.48251,0.73015 -1.05872,0.76666 -1.78887,1.8984 -0.69364,1.13173 -1.09522,2.446 -0.36508,1.31427 -0.40159,2.33648 0,0.36508 0.0365,0.83968 0.073,0.43809 0.18254,0.80316 0.21904,0.69364 0.80316,1.16824 0.62063,0.4746 1.78887,0.25556 0.43809,-0.14603 0.9492,-0.58413 0.54761,-0.43809 1.05872,-1.02221 0.54761,-0.58412 0.9857,-1.24125 0.4746,-0.65714 0.80317,-1.27777 0.25555,-0.94919 0.40158,-1.93489 0.18254,-0.98571 0,-1.78887 0.40158,-0.18254 1.27776,0.073 0.91269,0.21905 1.78887,0.69364 0.91269,0.43809 1.56983,1.02222 0.69364,0.58412 0.62062,1.13173 z m -9.41895,6.20628 q 1.75236,-0.62063 2.8841,-1.9349 1.13173,-1.27776 1.82537,-2.9206 -1.20475,-0.36508 -2.40949,-0.58412 -1.16824,-0.18254 -2.51902,-0.18254 -1.24126,-0.0365 -2.55553,0.14603 -1.35078,0.21904 -2.37299,0.65713 -1.05872,0.43809 -1.60633,1.13174 -0.54761,0.69364 -0.21905,1.64284 0.25556,0.65713 0.76666,1.09522 0.51111,0.43809 1.16824,0.73015 0.62063,0.29206 1.35078,0.40159 0.73015,0.14603 1.4603,0.14603 0.62063,0 1.16824,-0.10953 0.58412,-0.073 1.05872,-0.21904 z" />
    <path
       inkscape:connector-curvature="0"
       id="path36"
       style="font-style:normal;font-variant:normal;font-weight:normal;font-stretch:normal;font-size:medium;line-height:125%;font-family:'Blackberry Jam Personal Use';-inkscape-font-specification:'Blackberry Jam Personal Use, Normal';font-variant-ligatures:normal;font-variant-caps:normal;font-variant-numeric:normal;font-feature-settings:normal;text-align:start;letter-spacing:5px;word-spacing:0px;writing-mode:lr-tb;text-anchor:start;fill:#000000;fill-opacity:1;stroke:none;stroke-width:0.26458332px;stroke-linecap:butt;stroke-linejoin:miter;stroke-opacity:1"
       d="m 206.80079,207.45946 q -0.32857,0.65714 -0.91269,1.64284 -0.54761,0.9492 -1.35078,1.86188 -0.80316,0.91269 -1.82538,1.56983 -1.02221,0.62063 -2.19045,0.62063 -0.73015,0 -1.4603,-0.18254 -0.73015,-0.18254 -1.38729,-0.58412 -0.62062,-0.40159 -1.13173,-1.02221 -0.4746,-0.62063 -0.69364,-1.49681 -0.21905,-0.76666 -0.25555,-1.53332 -0.0365,-0.76666 0.0365,-1.60633 0.073,-0.87618 0.25556,-1.86188 0.18253,-0.98571 0.43809,-2.19046 0.14603,-0.58412 0.18253,-1.05871 0.0365,-0.4746 -0.073,-0.80317 -0.073,-0.18254 -0.4746,0 -0.36507,0.18254 -1.20475,0.9492 -1.05872,0.94919 -1.86188,1.86188 -0.76666,0.91269 -1.49681,1.97141 -0.36508,1.71585 -0.43809,3.46821 -0.0365,1.75236 0.36507,3.57774 0.0365,0.25555 -0.5111,0.18254 -0.54761,-0.0365 -1.24126,-0.25555 -0.69364,-0.25556 -1.31427,-0.54762 -0.65713,-0.32857 -0.80316,-0.62063 -0.29206,-1.13173 -0.36508,-2.22696 -0.073,-1.13173 0,-2.22695 0.0365,-1.09523 0.18254,-2.15395 0.14603,-1.09523 0.29206,-2.19045 0.18254,-1.13173 0.32857,-2.26347 0.10952,-1.16824 0.18253,-2.446 0.36508,-0.14603 1.05872,0.0365 0.73015,0.14603 1.49681,0.54762 0.76666,0.36507 1.38729,0.87618 0.62063,0.5111 0.80316,1.02221 1.02221,-1.05872 2.29998,-1.78887 1.27776,-0.73015 2.88409,-0.80317 0.4746,0 1.09523,0.29206 0.62063,0.29207 1.16824,0.73016 0.58412,0.43809 0.9492,0.94919 0.40158,0.4746 0.36507,0.83967 -0.18254,1.35078 -0.43809,2.55553 -0.25555,1.20475 -0.43809,2.04442 -0.32857,1.49681 -0.51111,2.66505 -0.18253,1.16824 0.18254,2.66505 0.0365,0.073 0.14603,0.10953 0.14603,0.0365 0.4746,-0.10953 0.91269,-0.40158 2.00791,-1.38728 1.09523,-0.98571 1.97141,-2.62855 0.43809,-0.80316 0.76666,-1.64283 l 0.40158,-0.9492 q 0.073,-0.14603 0.36508,-0.073 0.32857,0.0365 0.65713,0.21905 0.36508,0.18254 0.58412,0.43809 0.25556,0.21905 0.14603,0.43809 l -0.0365,-0.0365 z" />
  </g>
</svg>
