<svg xmlns="http://www.w3.org/2000/svg" xmlns:xlink="http://www.w3.org/1999/xlink" viewBox="0 0 200 200" width="200" height="200"><path d="M 123.667,74.000 C 122.667,85.000 122.472,84.991 121.667,96.000" stroke-width="5.237" stroke="black" fill="none" stroke-linecap="round" style="stroke-width:10;"></path ><path d="M 121.667,96.000 C 121.472,98.658 121.667,98.667 121.667,101.333" stroke-width="4.776" stroke="black" fill="none" stroke-linecap="round" style="stroke-width:10;"></path ><path d="M 121.667,101.333 C 121.667,106.667 121.505,106.671 121.667,112.000" stroke-width="3.769" stroke="black" fill="none" stroke-linecap="round" style="stroke-width:10;"></path ><path d="M 121.667,112.000 C 121.838,117.671 122.204,117.661 122.333,123.333" stroke-width="3.421" stroke="black" fill="none" stroke-linecap="round" style="stroke-width:10;"></path ><path d="M 122.333,123.333 C 122.538,132.327 122.333,132.333 122.333,141.333" stroke-width="3.423" stroke="black" fill="none" stroke-linecap="round" style="stroke-width:10;"></path ><path d="M 122.333,141.333 C 122.333,144.000 122.333,144.000 122.333,146.667" stroke-width="4.048" stroke="black" fill="none" stroke-linecap="round" style="stroke-width:10;"></path ><path d="M 122.333,146.667 C 122.333,150.000 122.333,150.000 122.333,153.333" stroke-width="4.339" stroke="black" fill="none" stroke-linecap="round" style="stroke-width:10;"></path ><path d="M 122.333,153.333 C 122.333,156.667 122.492,156.674 122.333,160.000" stroke-width="4.074" stroke="black" fill="none" stroke-linecap="round" style="stroke-width:10;"></path ><path d="M 122.333,160.000 C 122.158,163.674 121.850,163.660 121.667,167.333" stroke-width="4.060" stroke="black" fill="none" stroke-linecap="round" style="stroke-width:10;"></path ><path d="M 121.667,167.333 C 121.517,170.327 121.833,170.343 121.667,173.333" stroke-width="4.627" stroke="black" fill="none" stroke-linecap="round" style="stroke-width:10;"></path ><path d="M 121.667,173.333 C 121.499,176.343 121.158,176.324 121.000,179.333" stroke-width="4.731" stroke="black" fill="none" stroke-linecap="round" style="stroke-width:10;"></path ><path d="M 121.000,179.333 C 120.825,182.657 121.000,182.667 121.000,186.000" stroke-width="4.742" stroke="black" fill="none" stroke-linecap="round" style="stroke-width:10;"></path ><path d="M 121.000,186.000 C 121.000,189.333 120.834,192.667 121.000,192.667" stroke-width="4.886" stroke="black" fill="none" stroke-linecap="round" style="stroke-width:10;"></path ><path d="M 121.000,192.667 C 121.167,192.667 121.145,189.303 121.667,186.000" stroke-width="5.274" stroke="black" fill="none" stroke-linecap="round" style="stroke-width:10;"></path ><path d="M 121.667,186.000 C 122.145,182.970 122.522,183.030 123.000,180.000" stroke-width="4.364" stroke="black" fill="none" stroke-linecap="round" style="stroke-width:10;"></path ><path d="M 123.000,180.000 C 123.522,176.697 123.145,176.636 123.667,173.333" stroke-width="4.327" stroke="black" fill="none" stroke-linecap="round" style="stroke-width:10;"></path ><path d="M 123.667,173.333 C 124.145,170.303 124.288,170.323 125.000,167.333" stroke-width="4.344" stroke="black" fill="none" stroke-linecap="round" style="stroke-width:10;"></path ><path d="M 125.000,167.333 C 125.955,163.323 125.846,163.289 127.000,159.333" stroke-width="3.939" stroke="black" fill="none" stroke-linecap="round" style="stroke-width:10;"></path ><path d="M 127.000,159.333 C 128.180,155.289 128.074,155.226 129.667,151.333" stroke-width="3.757" stroke="black" fill="none" stroke-linecap="round" style="stroke-width:10;"></path ><path d="M 129.667,151.333 C 131.074,147.893 131.383,148.024 133.000,144.667" stroke-width="4.025" stroke="black" fill="none" stroke-linecap="round" style="stroke-width:10;"></path ><path d="M 133.000,144.667 C 135.717,139.024 135.534,138.931 138.333,133.333" stroke-width="4.280" stroke="black" fill="none" stroke-linecap="round" style="stroke-width:10;"></path ><path d="M 138.333,133.333 C 139.534,130.931 139.481,130.876 141.000,128.667" stroke-width="4.182" stroke="black" fill="none" stroke-linecap="round" style="stroke-width:10;"></path ><path d="M 141.000,128.667 C 143.148,125.542 142.864,125.119 145.667,122.667" stroke-width="4.495" stroke="black" fill="none" stroke-linecap="round" style="stroke-width:10;"></path ><path d="M 145.667,122.667 C 148.197,120.452 148.462,120.345 151.667,119.333" stroke-width="4.824" stroke="black" fill="none" stroke-linecap="round" style="stroke-width:10;"></path ><path d="M 151.667,119.333 C 154.795,118.345 155.966,117.247 158.333,118.667" stroke-width="5.061" stroke="black" fill="none" stroke-linecap="round" style="stroke-width:10;"></path ><path d="M 158.333,118.667 C 160.966,120.247 160.288,121.886 161.667,125.333" stroke-width="5.000" stroke="black" fill="none" stroke-linecap="round" style="stroke-width:10;"></path ><path d="M 161.667,125.333 C 162.954,128.553 162.914,128.614 163.667,132.000" stroke-width="4.431" stroke="black" fill="none" stroke-linecap="round" style="stroke-width:10;"></path ><path d="M 163.667,132.000 C 164.248,134.614 163.935,134.676 164.333,137.333" stroke-width="4.797" stroke="black" fill="none" stroke-linecap="round" style="stroke-width:10;"></path ><path d="M 164.333,137.333 C 164.935,141.343 165.301,141.308 165.667,145.333" stroke-width="4.165" stroke="black" fill="none" stroke-linecap="round" style="stroke-width:10;"></path ><path d="M 165.667,145.333 C 165.967,148.642 165.667,148.667 165.667,152.000" stroke-width="4.077" stroke="black" fill="none" stroke-linecap="round" style="stroke-width:10;"></path ><path d="M 165.667,152.000 C 165.667,155.667 165.514,155.673 165.667,159.333" stroke-width="4.431" stroke="black" fill="none" stroke-linecap="round" style="stroke-width:10;"></path ><path d="M 165.667,159.333 C 165.847,163.673 165.972,163.669 166.333,168.000" stroke-width="3.964" stroke="black" fill="none" stroke-linecap="round" style="stroke-width:10;"></path ><path d="M 166.333,168.000 C 166.639,171.669 166.578,171.677 167.000,175.333" stroke-width="4.404" stroke="black" fill="none" stroke-linecap="round" style="stroke-width:10;"></path ><path d="M 167.000,175.333 C 167.578,180.343 167.309,180.416 168.333,185.333" stroke-width="4.415" stroke="black" fill="none" stroke-linecap="round" style="stroke-width:10;"></path ><path d="M 168.333,185.333 C 168.976,188.416 169.132,188.417 170.333,191.333" stroke-width="4.624" stroke="black" fill="none" stroke-linecap="round" style="stroke-width:10;"></path ><path d="M 170.333,191.333 C 171.466,194.083 171.449,194.129 173.000,196.667" stroke-width="4.706" stroke="black" fill="none" stroke-linecap="round" style="stroke-width:10;"></path ><path d="M 173.000,196.667 C 175.116,200.129 175.110,200.187 177.667,203.333" stroke-width="4.187" stroke="black" fill="none" stroke-linecap="round" style="stroke-width:10;"></path ><path d="M 177.667,203.333 C 179.444,205.520 179.395,205.711 181.667,207.333" stroke-width="4.751" stroke="black" fill="none" stroke-linecap="round" style="stroke-width:10;"></path ></svg>