<svg xmlns="http://www.w3.org/2000/svg" xmlns:xlink="http://www.w3.org/1999/xlink" viewBox="0 0 200 200" width="200" height="200"><path d="M 201.500,140.667 C 196.833,134.333 196.287,134.638 192.167,128.000" stroke-width="5.465" stroke="black" fill="none" stroke-linecap="round"></path><path d="M 192.167,128.000 C 190.287,124.971 190.400,124.785 189.500,121.333" stroke-width="5.195" stroke="black" fill="none" stroke-linecap="round"></path><path d="M 189.500,121.333 C 188.400,117.118 188.918,116.985 188.167,112.667" stroke-width="5.005" stroke="black" fill="none" stroke-linecap="round"></path><path d="M 188.167,112.667 C 187.584,109.318 187.001,109.358 186.833,106.000" stroke-width="5.044" stroke="black" fill="none" stroke-linecap="round"></path><path d="M 186.833,106.000 C 186.668,102.691 187.048,102.651 187.500,99.333" stroke-width="5.127" stroke="black" fill="none" stroke-linecap="round"></path><path d="M 187.500,99.333 C 188.048,95.318 187.897,95.266 188.833,91.333" stroke-width="4.831" stroke="black" fill="none" stroke-linecap="round"></path><path d="M 188.833,91.333 C 189.564,88.266 189.741,88.299 190.833,85.333" stroke-width="5.060" stroke="black" fill="none" stroke-linecap="round"></path><path d="M 190.833,85.333 C 192.074,81.966 191.845,81.838 193.500,78.667" stroke-width="5.053" stroke="black" fill="none" stroke-linecap="round"></path><path d="M 193.500,78.667 C 195.845,74.172 195.834,74.071 198.833,70.000" stroke-width="5.083" stroke="black" fill="none" stroke-linecap="round"></path><path d="M 198.833,70.000 C 200.501,67.737 200.924,68.083 202.833,66.000" stroke-width="5.210" stroke="black" fill="none" stroke-linecap="round"></path><path d="M 202.833,66.000 C 204.591,64.083 204.500,64.000 206.167,62.000" stroke-width="5.245" stroke="black" fill="none" stroke-linecap="round"></path><path d="M 206.167,62.000 C 207.833,60.000 209.953,59.661 209.500,58.000" stroke-width="5.415" stroke="black" fill="none" stroke-linecap="round"></path><path d="M 209.500,58.000 C 208.953,55.994 207.033,55.847 204.167,54.667" stroke-width="5.440" stroke="black" fill="none" stroke-linecap="round"></path><path d="M 204.167,54.667 C 201.366,53.513 201.200,53.788 198.167,53.333" stroke-width="5.273" stroke="black" fill="none" stroke-linecap="round"></path><path d="M 198.167,53.333 C 194.533,52.788 194.500,52.667 190.833,52.667" stroke-width="5.138" stroke="black" fill="none" stroke-linecap="round"></path><path d="M 190.833,52.667 C 187.167,52.667 187.134,52.788 183.500,53.333" stroke-width="5.211" stroke="black" fill="none" stroke-linecap="round"></path><path d="M 183.500,53.333 C 180.467,53.788 180.296,53.489 177.500,54.667" stroke-width="5.145" stroke="black" fill="none" stroke-linecap="round"></path><path d="M 177.500,54.667 C 173.963,56.156 173.972,56.400 170.833,58.667" stroke-width="5.151" stroke="black" fill="none" stroke-linecap="round"></path><path d="M 170.833,58.667 C 167.972,60.733 168.167,61.000 165.500,63.333" stroke-width="5.155" stroke="black" fill="none" stroke-linecap="round"></path><path d="M 165.500,63.333 C 162.833,65.667 162.392,65.298 160.167,68.000" stroke-width="5.196" stroke="black" fill="none" stroke-linecap="round"></path><path d="M 160.167,68.000 C 157.725,70.964 157.982,71.239 156.167,74.667" stroke-width="5.135" stroke="black" fill="none" stroke-linecap="round"></path><path d="M 156.167,74.667 C 154.982,76.905 155.167,77.000 154.167,79.333" stroke-width="4.804" stroke="black" fill="none" stroke-linecap="round"></path><path d="M 154.167,79.333 C 153.167,81.667 153.167,81.667 152.167,84.000" stroke-width="5.024" stroke="black" fill="none" stroke-linecap="round"></path><path d="M 152.167,84.000 C 151.167,86.333 150.654,86.228 150.167,88.667" stroke-width="5.150" stroke="black" fill="none" stroke-linecap="round"></path><path d="M 150.167,88.667 C 149.654,91.228 150.167,91.333 150.167,94.000" stroke-width="5.244" stroke="black" fill="none" stroke-linecap="round"></path><path d="M 150.167,94.000 C 150.167,96.667 150.019,96.674 150.167,99.333" stroke-width="5.108" stroke="black" fill="none" stroke-linecap="round"></path><path d="M 150.167,99.333 C 150.352,102.674 150.312,102.697 150.833,106.000" stroke-width="5.004" stroke="black" fill="none" stroke-linecap="round"></path><path d="M 150.833,106.000 C 151.312,109.030 151.152,109.124 152.167,112.000" stroke-width="5.250" stroke="black" fill="none" stroke-linecap="round"></path><path d="M 152.167,112.000 C 153.152,114.790 153.439,114.699 154.833,117.333" stroke-width="5.365" stroke="black" fill="none" stroke-linecap="round"></path><path d="M 154.833,117.333 C 156.439,120.366 156.561,120.301 158.167,123.333" stroke-width="5.343" stroke="black" fill="none" stroke-linecap="round"></path><path d="M 158.167,123.333 C 159.561,125.968 159.260,126.149 160.833,128.667" stroke-width="5.276" stroke="black" fill="none" stroke-linecap="round"></path><path d="M 160.833,128.667 C 162.593,131.482 162.775,131.380 164.833,134.000" stroke-width="5.277" stroke="black" fill="none" stroke-linecap="round"></path><path d="M 164.833,134.000 C 166.441,136.046 168.495,137.672 168.167,138.000" stroke-width="5.354" stroke="black" fill="none" stroke-linecap="round"></path><path d="M 168.167,138.000 C 167.828,138.339 165.595,136.979 163.500,135.333" stroke-width="5.496" stroke="black" fill="none" stroke-linecap="round"></path><path d="M 163.500,135.333 C 160.928,133.313 161.471,132.551 158.833,130.667" stroke-width="5.148" stroke="black" fill="none" stroke-linecap="round"></path><path d="M 158.833,130.667 C 156.804,129.217 156.597,129.361 154.167,128.667" stroke-width="5.125" stroke="black" fill="none" stroke-linecap="round"></path><path d="M 154.167,128.667 C 149.597,127.361 149.487,127.724 144.833,126.667" stroke-width="4.837" stroke="black" fill="none" stroke-linecap="round"></path><path d="M 144.833,126.667 C 142.153,126.058 142.201,125.810 139.500,125.333" stroke-width="4.989" stroke="black" fill="none" stroke-linecap="round"></path><path d="M 139.500,125.333 C 136.534,124.810 136.397,124.305 133.500,124.667" stroke-width="5.025" stroke="black" fill="none" stroke-linecap="round"></path><path d="M 133.500,124.667 C 131.064,124.971 131.255,125.930 128.833,126.667" stroke-width="4.775" stroke="black" fill="none" stroke-linecap="round"></path><path d="M 128.833,126.667 C 123.589,128.263 123.297,127.486 118.167,129.333" stroke-width="4.822" stroke="black" fill="none" stroke-linecap="round"></path><path d="M 118.167,129.333 C 114.964,130.486 115.010,130.771 112.167,132.667" stroke-width="4.863" stroke="black" fill="none" stroke-linecap="round"></path><path d="M 112.167,132.667 C 110.010,134.105 110.263,134.463 108.167,136.000" stroke-width="5.121" stroke="black" fill="none" stroke-linecap="round"></path><path d="M 108.167,136.000 C 105.263,138.129 104.765,137.575 102.167,140.000" stroke-width="4.624" stroke="black" fill="none" stroke-linecap="round"></path><path d="M 102.167,140.000 C 99.765,142.242 98.959,142.324 98.167,145.333" stroke-width="5.026" stroke="black" fill="none" stroke-linecap="round"></path><path d="M 98.167,145.333 C 97.292,148.657 97.870,149.198 98.833,152.667" stroke-width="5.215" stroke="black" fill="none" stroke-linecap="round"></path><path d="M 98.833,152.667 C 99.537,155.198 99.715,155.399 101.500,157.333" stroke-width="5.178" stroke="black" fill="none" stroke-linecap="round"></path><path d="M 101.500,157.333 C 103.715,159.732 103.827,160.011 106.833,161.333" stroke-width="5.240" stroke="black" fill="none" stroke-linecap="round"></path><path d="M 106.833,161.333 C 112.160,163.677 112.408,163.638 118.167,164.667" stroke-width="4.992" stroke="black" fill="none" stroke-linecap="round"></path><path d="M 118.167,164.667 C 121.741,165.305 121.833,164.667 125.500,164.667" stroke-width="5.103" stroke="black" fill="none" stroke-linecap="round"></path><path d="M 125.500,164.667 C 129.167,164.667 129.167,164.667 132.833,164.667" stroke-width="5.026" stroke="black" fill="none" stroke-linecap="round"></path><path d="M 132.833,164.667 C 135.500,164.667 135.506,164.800 138.167,164.667" stroke-width="5.066" stroke="black" fill="none" stroke-linecap="round"></path><path d="M 138.167,164.667 C 142.172,164.466 142.169,164.363 146.167,164.000" stroke-width="5.062" stroke="black" fill="none" stroke-linecap="round"></path><path d="M 146.167,164.000 C 149.503,163.697 149.530,163.855 152.833,163.333" stroke-width="5.200" stroke="black" fill="none" stroke-linecap="round"></path><path d="M 152.833,163.333 C 155.864,162.855 159.383,162.000 158.833,162.000" stroke-width="5.294" stroke="black" fill="none" stroke-linecap="round"></path><path d="M 158.833,162.000 C 158.049,162.000 154.496,162.641 150.167,163.333" stroke-width="5.418" stroke="black" fill="none" stroke-linecap="round"></path><path d="M 150.167,163.333 C 146.163,163.974 146.176,164.065 142.167,164.667" stroke-width="5.019" stroke="black" fill="none" stroke-linecap="round"></path><path d="M 142.167,164.667 C 139.510,165.065 139.512,165.185 136.833,165.333" stroke-width="5.054" stroke="black" fill="none" stroke-linecap="round"></path><path d="M 136.833,165.333 C 133.512,165.518 133.492,165.167 130.167,165.333" stroke-width="4.685" stroke="black" fill="none" stroke-linecap="round"></path><path d="M 130.167,165.333 C 126.825,165.500 126.829,165.630 123.500,166.000" stroke-width="4.849" stroke="black" fill="none" stroke-linecap="round"></path><path d="M 123.500,166.000 C 120.829,166.297 120.822,166.258 118.167,166.667" stroke-width="4.669" stroke="black" fill="none" stroke-linecap="round"></path><path d="M 118.167,166.667 C 112.156,167.591 112.196,167.913 106.167,168.667" stroke-width="4.781" stroke="black" fill="none" stroke-linecap="round"></path><path d="M 106.167,168.667 C 101.529,169.246 101.203,168.059 96.833,169.333" stroke-width="4.781" stroke="black" fill="none" stroke-linecap="round"></path><path d="M 96.833,169.333 C 93.203,170.392 93.161,170.938 90.167,173.333" stroke-width="4.859" stroke="black" fill="none" stroke-linecap="round"></path><path d="M 90.167,173.333 C 88.161,174.938 88.271,175.177 86.833,177.333" stroke-width="4.993" stroke="black" fill="none" stroke-linecap="round"></path><path d="M 86.833,177.333 C 84.938,180.177 84.957,180.237 83.500,183.333" stroke-width="5.096" stroke="black" fill="none" stroke-linecap="round"></path><path d="M 83.500,183.333 C 82.291,185.903 82.584,186.034 81.500,188.667" stroke-width="5.056" stroke="black" fill="none" stroke-linecap="round"></path><path d="M 81.500,188.667 C 80.251,191.701 79.178,191.568 78.833,194.667" stroke-width="5.112" stroke="black" fill="none" stroke-linecap="round"></path><path d="M 78.833,194.667 C 78.511,197.568 79.254,197.746 80.167,200.667" stroke-width="5.183" stroke="black" fill="none" stroke-linecap="round"></path><path d="M 80.167,200.667 C 80.921,203.079 80.166,204.175 82.167,205.333" stroke-width="5.281" stroke="black" fill="none" stroke-linecap="round"></path><path d="M 82.167,205.333 C 86.499,207.842 87.500,206.667 92.833,208.000" stroke-width="4.910" stroke="black" fill="none" stroke-linecap="round"></path><path d="M 92.833,208.000 C 95.500,208.667 95.470,209.165 98.167,209.333" stroke-width="5.005" stroke="black" fill="none" stroke-linecap="round"></path><path d="M 98.167,209.333 C 100.803,209.498 100.822,208.824 103.500,208.667" stroke-width="4.736" stroke="black" fill="none" stroke-linecap="round"></path><path d="M 103.500,208.667 C 106.489,208.491 106.508,208.824 109.500,208.667" stroke-width="4.702" stroke="black" fill="none" stroke-linecap="round"></path><path d="M 109.500,208.667 C 112.841,208.491 112.853,208.473 116.167,208.000" stroke-width="4.666" stroke="black" fill="none" stroke-linecap="round"></path><path d="M 116.167,208.000 C 119.853,207.473 119.889,207.569 123.500,206.667" stroke-width="4.719" stroke="black" fill="none" stroke-linecap="round"></path><path d="M 123.500,206.667 C 129.223,205.236 129.211,205.133 134.833,203.333" stroke-width="4.740" stroke="black" fill="none" stroke-linecap="round"></path><path d="M 134.833,203.333 C 137.544,202.466 137.466,202.233 140.167,201.333" stroke-width="4.780" stroke="black" fill="none" stroke-linecap="round"></path><path d="M 140.167,201.333 C 143.466,200.233 143.442,200.047 146.833,199.333" stroke-width="4.981" stroke="black" fill="none" stroke-linecap="round"></path><path d="M 146.833,199.333 C 149.775,198.714 149.836,199.019 152.833,198.667" stroke-width="4.787" stroke="black" fill="none" stroke-linecap="round"></path><path d="M 152.833,198.667 C 155.502,198.353 155.552,198.581 158.167,198.000" stroke-width="5.012" stroke="black" fill="none" stroke-linecap="round"></path><path d="M 158.167,198.000 C 161.552,197.248 164.098,195.448 164.833,196.000" stroke-width="5.151" stroke="black" fill="none" stroke-linecap="round"></path><path d="M 164.833,196.000 C 165.431,196.448 163.200,198.648 160.833,200.000" stroke-width="5.420" stroke="black" fill="none" stroke-linecap="round"></path><path d="M 160.833,200.000 C 158.533,201.314 158.088,200.428 155.500,201.333" stroke-width="5.220" stroke="black" fill="none" stroke-linecap="round"></path><path d="M 155.500,201.333 C 151.421,202.761 151.473,202.939 147.500,204.667" stroke-width="5.031" stroke="black" fill="none" stroke-linecap="round"></path><path d="M 147.500,204.667 C 143.807,206.272 143.901,206.506 140.167,208.000" stroke-width="4.943" stroke="black" fill="none" stroke-linecap="round"></path><path d="M 140.167,208.000 C 137.235,209.173 137.148,208.948 134.167,210.000" stroke-width="5.065" stroke="black" fill="none" stroke-linecap="round"></path><path d="M 134.167,210.000 C 131.482,210.948 131.547,211.152 128.833,212.000" stroke-width="4.764" stroke="black" fill="none" stroke-linecap="round"></path><path d="M 128.833,212.000 C 126.214,212.819 126.167,212.667 123.500,213.333" stroke-width="4.773" stroke="black" fill="none" stroke-linecap="round"></path><path d="M 123.500,213.333 C 120.833,214.000 120.695,213.655 118.167,214.667" stroke-width="5.042" stroke="black" fill="none" stroke-linecap="round"></path><path d="M 118.167,214.667 C 115.695,215.655 115.271,215.426 113.500,217.333" stroke-width="5.121" stroke="black" fill="none" stroke-linecap="round"></path><path d="M 113.500,217.333 C 110.938,220.093 111.062,220.485 109.500,224.000" stroke-width="5.133" stroke="black" fill="none" stroke-linecap="round"></path><path d="M 109.500,224.000 C 108.395,226.485 108.335,226.637 108.167,229.333" stroke-width="5.190" stroke="black" fill="none" stroke-linecap="round"></path><path d="M 108.167,229.333 C 108.002,231.970 107.697,232.393 108.833,234.667" stroke-width="5.322" stroke="black" fill="none" stroke-linecap="round"></path><path d="M 108.833,234.667 C 110.030,237.060 110.442,237.322 112.833,238.667" stroke-width="5.306" stroke="black" fill="none" stroke-linecap="round"></path><path d="M 112.833,238.667 C 115.775,240.322 116.184,239.612 119.500,240.667" stroke-width="5.190" stroke="black" fill="none" stroke-linecap="round"></path><path d="M 119.500,240.667 C 123.517,241.945 123.407,242.444 127.500,243.333" stroke-width="5.053" stroke="black" fill="none" stroke-linecap="round"></path><path d="M 127.500,243.333 C 131.074,244.110 131.235,243.315 134.833,244.000" stroke-width="4.618" stroke="black" fill="none" stroke-linecap="round"></path><path d="M 134.833,244.000 C 138.235,244.648 138.137,245.115 141.500,246.000" stroke-width="4.874" stroke="black" fill="none" stroke-linecap="round"></path><path d="M 141.500,246.000 C 144.470,246.782 144.464,246.996 147.500,247.333" stroke-width="4.839" stroke="black" fill="none" stroke-linecap="round"></path><path d="M 147.500,247.333 C 150.464,247.663 150.503,247.218 153.500,247.333" stroke-width="4.798" stroke="black" fill="none" stroke-linecap="round"></path><path d="M 153.500,247.333 C 159.170,247.551 159.163,247.790 164.833,248.000" stroke-width="4.741" stroke="black" fill="none" stroke-linecap="round"></path><path d="M 164.833,248.000 C 168.163,248.123 168.176,248.175 171.500,248.000" stroke-width="4.745" stroke="black" fill="none" stroke-linecap="round"></path><path d="M 171.500,248.000 C 174.510,247.842 174.497,247.634 177.500,247.333" stroke-width="4.719" stroke="black" fill="none" stroke-linecap="round"></path><path d="M 177.500,247.333 C 181.163,246.967 181.172,247.052 184.833,246.667" stroke-width="4.714" stroke="black" fill="none" stroke-linecap="round"></path><path d="M 184.833,246.667 C 187.506,246.385 187.513,246.419 190.167,246.000" stroke-width="4.718" stroke="black" fill="none" stroke-linecap="round"></path><path d="M 190.167,246.000 C 193.846,245.419 193.833,245.333 197.500,244.667" stroke-width="4.823" stroke="black" fill="none" stroke-linecap="round"></path><path d="M 197.500,244.667 C 201.167,244.000 201.264,244.325 204.833,243.333" stroke-width="4.914" stroke="black" fill="none" stroke-linecap="round"></path><path d="M 204.833,243.333 C 207.264,242.658 207.110,242.177 209.500,241.333" stroke-width="4.766" stroke="black" fill="none" stroke-linecap="round"></path><path d="M 209.500,241.333 C 212.777,240.177 213.306,241.050 216.167,239.333" stroke-width="5.049" stroke="black" fill="none" stroke-linecap="round"></path><path d="M 216.167,239.333 C 218.306,238.050 218.150,237.527 219.500,235.333" stroke-width="5.232" stroke="black" fill="none" stroke-linecap="round"></path><path d="M 219.500,235.333 C 220.817,233.194 220.609,233.042 221.500,230.667" stroke-width="5.237" stroke="black" fill="none" stroke-linecap="round"></path><path d="M 221.500,230.667 C 222.609,227.708 222.548,227.682 223.500,224.667" stroke-width="5.217" stroke="black" fill="none" stroke-linecap="round"></path><path d="M 223.500,224.667 C 224.548,221.348 224.931,221.412 225.500,218.000" stroke-width="5.220" stroke="black" fill="none" stroke-linecap="round"></path><path d="M 225.500,218.000 C 226.265,213.412 225.954,213.338 226.167,208.667" stroke-width="5.030" stroke="black" fill="none" stroke-linecap="round"></path><path d="M 226.167,208.667 C 226.288,206.004 226.323,205.991 226.167,203.333" stroke-width="5.053" stroke="black" fill="none" stroke-linecap="round"></path><path d="M 226.167,203.333 C 225.990,200.325 225.677,200.342 225.500,197.333" stroke-width="5.013" stroke="black" fill="none" stroke-linecap="round"></path><path d="M 225.500,197.333 C 225.344,194.675 225.656,194.658 225.500,192.000" stroke-width="4.845" stroke="black" fill="none" stroke-linecap="round"></path><path d="M 225.500,192.000 C 225.323,188.991 225.167,189.000 224.833,186.000" stroke-width="4.748" stroke="black" fill="none" stroke-linecap="round"></path><path d="M 224.833,186.000 C 224.500,183.000 224.833,182.931 224.167,180.000" stroke-width="4.942" stroke="black" fill="none" stroke-linecap="round"></path><path d="M 224.167,180.000 C 223.166,175.598 223.208,175.507 221.500,171.333" stroke-width="4.824" stroke="black" fill="none" stroke-linecap="round"></path><path d="M 221.500,171.333 C 220.208,168.174 219.849,168.324 218.167,165.333" stroke-width="4.901" stroke="black" fill="none" stroke-linecap="round"></path><path d="M 218.167,165.333 C 216.849,162.991 217.104,162.806 215.500,160.667" stroke-width="5.037" stroke="black" fill="none" stroke-linecap="round"></path><path d="M 215.500,160.667 C 213.104,157.472 212.795,157.700 210.167,154.667" stroke-width="4.962" stroke="black" fill="none" stroke-linecap="round"></path><path d="M 210.167,154.667 C 208.462,152.700 208.332,152.790 206.833,150.667" stroke-width="5.176" stroke="black" fill="none" stroke-linecap="round"></path><path d="M 206.833,150.667 C 204.332,147.123 204.432,147.041 202.167,143.333" stroke-width="5.070" stroke="black" fill="none" stroke-linecap="round"></path></svg>