<svg xmlns="http://www.w3.org/2000/svg" xmlns:xlink="http://www.w3.org/1999/xlink" viewBox="0 0 200 200" width="200" height="200"><path d="M 99.500,61.333 C 97.833,70.667 97.940,70.688 96.167,80.000" stroke-width="5.052" stroke="black" fill="none" stroke-linecap="round"></path><path d="M 96.167,80.000 C 95.274,84.688 95.103,84.654 94.167,89.333" stroke-width="3.875" stroke="black" fill="none" stroke-linecap="round"></path><path d="M 94.167,89.333 C 91.769,101.320 91.509,101.282 89.500,113.333" stroke-width="2.940" stroke="black" fill="none" stroke-linecap="round"></path><path d="M 89.500,113.333 C 88.175,121.282 88.594,121.346 87.500,129.333" stroke-width="3.225" stroke="black" fill="none" stroke-linecap="round"></path><path d="M 87.500,129.333 C 85.261,145.679 85.781,145.787 82.833,162.000" stroke-width="3.260" stroke="black" fill="none" stroke-linecap="round"></path><path d="M 82.833,162.000 C 81.115,171.454 80.451,171.321 78.167,180.667" stroke-width="3.026" stroke="black" fill="none" stroke-linecap="round"></path><path d="M 78.167,180.667 C 76.784,186.321 77.075,186.402 75.500,192.000" stroke-width="3.378" stroke="black" fill="none" stroke-linecap="round"></path><path d="M 75.500,192.000 C 74.075,197.068 73.898,197.023 72.167,202.000" stroke-width="3.542" stroke="black" fill="none" stroke-linecap="round"></path><path d="M 72.167,202.000 C 71.231,204.690 71.167,204.667 70.167,207.333" stroke-width="4.089" stroke="black" fill="none" stroke-linecap="round"></path><path d="M 70.167,207.333 C 69.167,210.000 68.829,209.908 68.167,212.667" stroke-width="4.175" stroke="black" fill="none" stroke-linecap="round"></path><path d="M 68.167,212.667 C 66.829,218.241 67.735,218.510 66.167,224.000" stroke-width="3.499" stroke="black" fill="none" stroke-linecap="round"></path><path d="M 66.167,224.000 C 65.069,227.843 64.420,227.632 62.833,231.333" stroke-width="4.187" stroke="black" fill="none" stroke-linecap="round"></path><path d="M 62.833,231.333 C 61.420,234.632 61.581,234.701 60.167,238.000" stroke-width="3.969" stroke="black" fill="none" stroke-linecap="round"></path><path d="M 60.167,238.000 C 58.581,241.701 58.858,241.891 56.833,245.333" stroke-width="4.388" stroke="black" fill="none" stroke-linecap="round"></path><path d="M 56.833,245.333 C 55.525,247.558 54.024,250.730 53.500,249.333" stroke-width="4.785" stroke="black" fill="none" stroke-linecap="round"></path><path d="M 53.500,249.333 C 52.024,245.396 52.037,241.831 52.833,234.667" stroke-width="4.889" stroke="black" fill="none" stroke-linecap="round"></path><path d="M 52.833,234.667 C 53.371,229.831 54.642,230.047 56.167,225.333" stroke-width="3.871" stroke="black" fill="none" stroke-linecap="round"></path><path d="M 56.167,225.333 C 58.308,218.713 58.203,218.677 60.167,212.000" stroke-width="3.563" stroke="black" fill="none" stroke-linecap="round"></path><path d="M 60.167,212.000 C 61.536,207.344 61.147,207.208 62.833,202.667" stroke-width="3.575" stroke="black" fill="none" stroke-linecap="round"></path><path d="M 62.833,202.667 C 65.480,195.541 65.594,195.551 68.833,188.667" stroke-width="3.480" stroke="black" fill="none" stroke-linecap="round"></path><path d="M 68.833,188.667 C 70.927,184.218 70.897,184.164 73.500,180.000" stroke-width="3.421" stroke="black" fill="none" stroke-linecap="round"></path><path d="M 73.500,180.000 C 75.897,176.164 76.245,176.388 78.833,172.667" stroke-width="3.913" stroke="black" fill="none" stroke-linecap="round"></path><path d="M 78.833,172.667 C 81.578,168.721 81.156,168.395 84.167,164.667" stroke-width="3.560" stroke="black" fill="none" stroke-linecap="round"></path><path d="M 84.167,164.667 C 88.156,159.728 88.238,159.709 92.833,155.333" stroke-width="3.740" stroke="black" fill="none" stroke-linecap="round"></path><path d="M 92.833,155.333 C 95.238,153.043 95.308,153.023 98.167,151.333" stroke-width="4.204" stroke="black" fill="none" stroke-linecap="round"></path><path d="M 98.167,151.333 C 102.641,148.689 102.660,148.573 107.500,146.667" stroke-width="4.294" stroke="black" fill="none" stroke-linecap="round"></path><path d="M 107.500,146.667 C 113.660,144.240 113.713,143.645 120.167,142.667" stroke-width="4.358" stroke="black" fill="none" stroke-linecap="round"></path><path d="M 120.167,142.667 C 124.713,141.978 125.270,141.862 129.500,143.333" stroke-width="4.646" stroke="black" fill="none" stroke-linecap="round"></path><path d="M 129.500,143.333 C 132.936,144.529 133.072,145.198 135.500,148.000" stroke-width="4.512" stroke="black" fill="none" stroke-linecap="round"></path><path d="M 135.500,148.000 C 137.405,150.198 137.123,150.550 138.167,153.333" stroke-width="4.507" stroke="black" fill="none" stroke-linecap="round"></path><path d="M 138.167,153.333 C 140.123,158.550 140.561,158.556 141.500,164.000" stroke-width="4.334" stroke="black" fill="none" stroke-linecap="round"></path><path d="M 141.500,164.000 C 142.228,168.222 141.673,168.341 141.500,172.667" stroke-width="3.993" stroke="black" fill="none" stroke-linecap="round"></path><path d="M 141.500,172.667 C 141.340,176.674 141.008,176.660 140.833,180.667" stroke-width="4.046" stroke="black" fill="none" stroke-linecap="round"></path><path d="M 140.833,180.667 C 140.674,184.327 140.833,184.333 140.833,188.000" stroke-width="4.279" stroke="black" fill="none" stroke-linecap="round"></path><path d="M 140.833,188.000 C 140.833,191.667 140.674,191.673 140.833,195.333" stroke-width="4.077" stroke="black" fill="none" stroke-linecap="round"></path><path d="M 140.833,195.333 C 141.008,199.340 140.934,199.369 141.500,203.333" stroke-width="4.323" stroke="black" fill="none" stroke-linecap="round"></path><path d="M 141.500,203.333 C 141.934,206.369 142.122,206.344 142.833,209.333" stroke-width="4.272" stroke="black" fill="none" stroke-linecap="round"></path><path d="M 142.833,209.333 C 143.788,213.344 143.233,213.599 144.833,217.333" stroke-width="4.242" stroke="black" fill="none" stroke-linecap="round"></path><path d="M 144.833,217.333 C 146.233,220.599 146.438,220.672 148.833,223.333" stroke-width="4.238" stroke="black" fill="none" stroke-linecap="round"></path><path d="M 148.833,223.333 C 152.438,227.339 152.365,227.823 156.833,230.667" stroke-width="4.531" stroke="black" fill="none" stroke-linecap="round"></path><path d="M 156.833,230.667 C 159.699,232.490 160.128,231.824 163.500,232.667" stroke-width="4.188" stroke="black" fill="none" stroke-linecap="round"></path><path d="M 163.500,232.667 C 166.794,233.490 167.000,234.576 170.167,234.000" stroke-width="4.567" stroke="black" fill="none" stroke-linecap="round"></path><path d="M 170.167,234.000 C 174.333,233.242 174.308,232.234 178.167,230.000" stroke-width="4.376" stroke="black" fill="none" stroke-linecap="round"></path><path d="M 178.167,230.000 C 180.641,228.568 180.581,228.437 182.833,226.667" stroke-width="4.464" stroke="black" fill="none" stroke-linecap="round"></path><path d="M 182.833,226.667 C 185.248,224.770 185.817,225.192 187.500,222.667" stroke-width="4.226" stroke="black" fill="none" stroke-linecap="round"></path><path d="M 187.500,222.667 C 192.483,215.192 191.997,214.746 196.167,206.667" stroke-width="4.069" stroke="black" fill="none" stroke-linecap="round"></path><path d="M 196.167,206.667 C 197.330,204.412 197.494,204.440 198.167,202.000" stroke-width="4.287" stroke="black" fill="none" stroke-linecap="round"></path><path d="M 198.167,202.000 C 200.160,194.773 199.911,194.683 201.500,187.333" stroke-width="3.211" stroke="black" fill="none" stroke-linecap="round"></path><path d="M 201.500,187.333 C 202.577,182.350 202.472,182.328 203.500,177.333" stroke-width="3.935" stroke="black" fill="none" stroke-linecap="round"></path><path d="M 203.500,177.333 C 204.805,170.994 205.138,171.045 206.167,164.667" stroke-width="3.503" stroke="black" fill="none" stroke-linecap="round"></path><path d="M 206.167,164.667 C 206.805,160.711 206.296,160.642 206.833,156.667" stroke-width="3.765" stroke="black" fill="none" stroke-linecap="round"></path><path d="M 206.833,156.667 C 207.963,148.309 208.272,148.348 209.500,140.000" stroke-width="3.935" stroke="black" fill="none" stroke-linecap="round"></path><path d="M 209.500,140.000 C 209.939,137.014 210.000,137.009 210.167,134.000" stroke-width="4.125" stroke="black" fill="none" stroke-linecap="round"></path><path d="M 210.167,134.000 C 210.333,131.009 209.991,130.989 210.167,128.000" stroke-width="4.297" stroke="black" fill="none" stroke-linecap="round"></path><path d="M 210.167,128.000 C 210.324,125.322 210.699,125.346 210.833,122.667" stroke-width="4.281" stroke="black" fill="none" stroke-linecap="round"></path><path d="M 210.833,122.667 C 211.033,118.679 211.023,118.656 210.833,114.667" stroke-width="4.626" stroke="black" fill="none" stroke-linecap="round"></path><path d="M 210.833,114.667 C 210.690,111.656 210.325,108.508 210.167,108.667" stroke-width="4.987" stroke="black" fill="none" stroke-linecap="round"></path><path d="M 210.167,108.667 C 209.992,108.842 210.048,112.003 210.167,115.333" stroke-width="5.208" stroke="black" fill="none" stroke-linecap="round"></path><path d="M 210.167,115.333 C 210.381,121.337 210.640,121.329 210.833,127.333" stroke-width="3.894" stroke="black" fill="none" stroke-linecap="round"></path><path d="M 210.833,127.333 C 210.973,131.663 210.689,131.671 210.833,136.000" stroke-width="3.915" stroke="black" fill="none" stroke-linecap="round"></path><path d="M 210.833,136.000 C 211.022,141.671 211.146,141.668 211.500,147.333" stroke-width="3.519" stroke="black" fill="none" stroke-linecap="round"></path><path d="M 211.500,147.333 C 211.813,152.335 211.692,152.346 212.167,157.333" stroke-width="3.881" stroke="black" fill="none" stroke-linecap="round"></path><path d="M 212.167,157.333 C 213.025,166.346 213.328,166.319 214.167,175.333" stroke-width="3.236" stroke="black" fill="none" stroke-linecap="round"></path><path d="M 214.167,175.333 C 214.662,180.653 214.106,180.724 214.833,186.000" stroke-width="3.436" stroke="black" fill="none" stroke-linecap="round"></path><path d="M 214.833,186.000 C 215.439,190.391 215.833,190.333 216.833,194.667" stroke-width="3.781" stroke="black" fill="none" stroke-linecap="round"></path><path d="M 216.833,194.667 C 217.833,199.000 217.590,199.072 218.833,203.333" stroke-width="3.970" stroke="black" fill="none" stroke-linecap="round"></path><path d="M 218.833,203.333 C 219.924,207.072 220.528,206.899 221.500,210.667" stroke-width="4.023" stroke="black" fill="none" stroke-linecap="round"></path><path d="M 221.500,210.667 C 223.194,217.232 222.143,217.560 224.167,224.000" stroke-width="3.786" stroke="black" fill="none" stroke-linecap="round"></path><path d="M 224.167,224.000 C 225.809,229.227 226.446,229.026 228.833,234.000" stroke-width="4.135" stroke="black" fill="none" stroke-linecap="round"></path><path d="M 228.833,234.000 C 230.446,237.359 230.254,237.480 232.167,240.667" stroke-width="3.975" stroke="black" fill="none" stroke-linecap="round"></path><path d="M 232.167,240.667 C 234.254,244.146 234.277,244.187 236.833,247.333" stroke-width="3.904" stroke="black" fill="none" stroke-linecap="round"></path><path d="M 236.833,247.333 C 238.610,249.520 238.656,249.541 240.833,251.333" stroke-width="4.312" stroke="black" fill="none" stroke-linecap="round"></path><path d="M 240.833,251.333 C 244.323,254.207 244.142,254.735 248.167,256.667" stroke-width="4.653" stroke="black" fill="none" stroke-linecap="round"></path><path d="M 248.167,256.667 C 252.475,258.735 252.773,258.717 257.500,259.333" stroke-width="4.659" stroke="black" fill="none" stroke-linecap="round"></path></svg>