<svg xmlns="http://www.w3.org/2000/svg" xmlns:xlink="http://www.w3.org/1999/xlink" viewBox="0 0 200 200" width="200" height="200"><path d="M 46.333,118.667 C 48.000,110.667 47.297,110.422 49.667,102.667" stroke-width="5.189" stroke="black" fill="none" stroke-linecap="round" style="stroke-width:10;"></path ><path d="M 49.667,102.667 C 50.964,98.422 51.391,98.507 53.667,94.667" stroke-width="4.995" stroke="black" fill="none" stroke-linecap="round" style="stroke-width:10;"></path ><path d="M 53.667,94.667 C 56.724,89.507 56.959,89.639 60.333,84.667" stroke-width="4.712" stroke="black" fill="none" stroke-linecap="round" style="stroke-width:10;"></path ><path d="M 60.333,84.667 C 63.293,80.306 62.406,79.397 66.333,76.000" stroke-width="4.708" stroke="black" fill="none" stroke-linecap="round" style="stroke-width:10;"></path ><path d="M 66.333,76.000 C 74.739,68.730 75.032,68.318 85.000,63.333" stroke-width="4.793" stroke="black" fill="none" stroke-linecap="round" style="stroke-width:10;"></path ><path d="M 85.000,63.333 C 92.365,59.651 92.964,60.858 101.000,58.667" stroke-width="4.139" stroke="black" fill="none" stroke-linecap="round" style="stroke-width:10;"></path ><path d="M 101.000,58.667 C 103.964,57.858 103.970,57.493 107.000,57.333" stroke-width="4.543" stroke="black" fill="none" stroke-linecap="round" style="stroke-width:10;"></path ><path d="M 107.000,57.333 C 110.303,57.159 110.433,57.230 113.667,58.000" stroke-width="4.744" stroke="black" fill="none" stroke-linecap="round" style="stroke-width:10;"></path ><path d="M 113.667,58.000 C 117.433,58.897 117.644,58.802 121.000,60.667" stroke-width="4.924" stroke="black" fill="none" stroke-linecap="round" style="stroke-width:10;"></path ><path d="M 121.000,60.667 C 123.644,62.135 123.673,62.366 125.667,64.667" stroke-width="4.998" stroke="black" fill="none" stroke-linecap="round" style="stroke-width:10;"></path ><path d="M 125.667,64.667 C 128.006,67.366 129.382,67.399 129.667,70.667" stroke-width="5.114" stroke="black" fill="none" stroke-linecap="round" style="stroke-width:10;"></path ><path d="M 129.667,70.667 C 130.049,75.065 128.953,75.606 127.000,80.000" stroke-width="5.150" stroke="black" fill="none" stroke-linecap="round" style="stroke-width:10;"></path ><path d="M 127.000,80.000 C 124.953,84.606 124.239,84.278 121.667,88.667" stroke-width="4.974" stroke="black" fill="none" stroke-linecap="round" style="stroke-width:10;"></path ><path d="M 121.667,88.667 C 118.573,93.945 118.125,93.760 115.667,99.333" stroke-width="4.795" stroke="black" fill="none" stroke-linecap="round" style="stroke-width:10;"></path ><path d="M 115.667,99.333 C 113.125,105.094 113.031,105.194 111.667,111.333" stroke-width="4.563" stroke="black" fill="none" stroke-linecap="round" style="stroke-width:10;"></path ><path d="M 111.667,111.333 C 110.364,117.194 110.333,117.362 110.333,123.333" stroke-width="4.628" stroke="black" fill="none" stroke-linecap="round" style="stroke-width:10;"></path ><path d="M 110.333,123.333 C 110.333,126.696 110.286,126.962 111.667,130.000" stroke-width="4.669" stroke="black" fill="none" stroke-linecap="round" style="stroke-width:10;"></path ><path d="M 111.667,130.000 C 113.619,134.296 113.554,134.917 117.000,138.000" stroke-width="4.658" stroke="black" fill="none" stroke-linecap="round" style="stroke-width:10;"></path ><path d="M 117.000,138.000 C 119.887,140.583 120.523,140.190 124.333,141.333" stroke-width="4.499" stroke="black" fill="none" stroke-linecap="round" style="stroke-width:10;"></path ><path d="M 124.333,141.333 C 127.189,142.190 127.344,142.206 130.333,142.000" stroke-width="4.545" stroke="black" fill="none" stroke-linecap="round" style="stroke-width:10;"></path ><path d="M 130.333,142.000 C 137.010,141.539 137.235,141.876 143.667,140.000" stroke-width="4.263" stroke="black" fill="none" stroke-linecap="round" style="stroke-width:10;"></path ><path d="M 143.667,140.000 C 153.235,137.209 153.217,136.811 162.333,132.667" stroke-width="4.149" stroke="black" fill="none" stroke-linecap="round" style="stroke-width:10;"></path ><path d="M 162.333,132.667 C 171.550,128.477 171.096,127.439 180.333,123.333" stroke-width="3.849" stroke="black" fill="none" stroke-linecap="round" style="stroke-width:10;"></path ><path d="M 180.333,123.333 C 186.096,120.772 186.231,120.908 192.333,119.333" stroke-width="4.199" stroke="black" fill="none" stroke-linecap="round" style="stroke-width:10;"></path ><path d="M 192.333,119.333 C 196.564,118.242 196.887,117.439 201.000,118.000" stroke-width="4.611" stroke="black" fill="none" stroke-linecap="round" style="stroke-width:10;"></path ><path d="M 201.000,118.000 C 204.220,118.439 204.125,119.473 207.000,121.333" stroke-width="4.659" stroke="black" fill="none" stroke-linecap="round" style="stroke-width:10;"></path ><path d="M 207.000,121.333 C 209.792,123.140 211.211,122.367 212.333,125.333" stroke-width="4.904" stroke="black" fill="none" stroke-linecap="round" style="stroke-width:10;"></path ><path d="M 212.333,125.333 C 215.878,134.700 216.806,135.750 216.333,146.000" stroke-width="4.303" stroke="black" fill="none" stroke-linecap="round" style="stroke-width:10;"></path ><path d="M 216.333,146.000 C 215.806,157.417 214.850,158.206 210.333,168.667" stroke-width="4.207" stroke="black" fill="none" stroke-linecap="round" style="stroke-width:10;"></path ><path d="M 210.333,168.667 C 208.517,172.873 207.255,172.311 203.667,175.333" stroke-width="4.428" stroke="black" fill="none" stroke-linecap="round" style="stroke-width:10;"></path ><path d="M 203.667,175.333 C 200.922,177.645 200.807,177.589 197.667,179.333" stroke-width="4.522" stroke="black" fill="none" stroke-linecap="round" style="stroke-width:10;"></path ><path d="M 197.667,179.333 C 194.807,180.922 194.563,180.461 191.667,182.000" stroke-width="4.475" stroke="black" fill="none" stroke-linecap="round" style="stroke-width:10;"></path ><path d="M 191.667,182.000 C 183.897,186.128 183.660,185.858 176.333,190.667" stroke-width="4.217" stroke="black" fill="none" stroke-linecap="round" style="stroke-width:10;"></path ><path d="M 176.333,190.667 C 172.994,192.858 173.166,193.167 170.333,196.000" stroke-width="4.445" stroke="black" fill="none" stroke-linecap="round" style="stroke-width:10;"></path ><path d="M 170.333,196.000 C 167.833,198.501 167.620,198.403 165.667,201.333" stroke-width="4.476" stroke="black" fill="none" stroke-linecap="round" style="stroke-width:10;"></path ><path d="M 165.667,201.333 C 162.953,205.403 162.049,205.278 161.000,210.000" stroke-width="4.279" stroke="black" fill="none" stroke-linecap="round" style="stroke-width:10;"></path ><path d="M 161.000,210.000 C 158.716,220.278 158.761,220.809 159.000,231.333" stroke-width="4.245" stroke="black" fill="none" stroke-linecap="round" style="stroke-width:10;"></path ><path d="M 159.000,231.333 C 159.094,235.475 159.304,235.998 161.667,239.333" stroke-width="4.555" stroke="black" fill="none" stroke-linecap="round" style="stroke-width:10;"></path ><path d="M 161.667,239.333 C 164.971,243.998 165.713,243.717 170.333,247.333" stroke-width="4.259" stroke="black" fill="none" stroke-linecap="round" style="stroke-width:10;"></path ><path d="M 170.333,247.333 C 173.379,249.717 173.482,249.750 177.000,251.333" stroke-width="4.478" stroke="black" fill="none" stroke-linecap="round" style="stroke-width:10;"></path ><path d="M 177.000,251.333 C 180.149,252.750 180.274,252.596 183.667,253.333" stroke-width="4.539" stroke="black" fill="none" stroke-linecap="round" style="stroke-width:10;"></path ><path d="M 183.667,253.333 C 187.941,254.263 187.978,254.288 192.333,254.667" stroke-width="4.492" stroke="black" fill="none" stroke-linecap="round" style="stroke-width:10;"></path ><path d="M 192.333,254.667 C 195.645,254.955 195.676,254.874 199.000,254.667" stroke-width="4.549" stroke="black" fill="none" stroke-linecap="round" style="stroke-width:10;"></path ><path d="M 199.000,254.667 C 206.343,254.208 206.423,254.465 213.667,253.333" stroke-width="4.359" stroke="black" fill="none" stroke-linecap="round" style="stroke-width:10;"></path ><path d="M 213.667,253.333 C 217.090,252.798 217.017,252.388 220.333,251.333" stroke-width="4.482" stroke="black" fill="none" stroke-linecap="round" style="stroke-width:10;"></path ><path d="M 220.333,251.333 C 224.351,250.055 224.515,250.385 228.333,248.667" stroke-width="4.801" stroke="black" fill="none" stroke-linecap="round" style="stroke-width:10;"></path ><path d="M 228.333,248.667 C 231.181,247.385 230.971,246.951 233.667,245.333" stroke-width="4.778" stroke="black" fill="none" stroke-linecap="round" style="stroke-width:10;"></path ></svg>