<svg xmlns="http://www.w3.org/2000/svg" xmlns:xlink="http://www.w3.org/1999/xlink" viewBox="0 0 200 200" width="200" height="200"><path d="M 45.667,63.000 C 47.333,82.667 47.084,82.694 49.000,102.333" stroke-width="1.125" stroke="black" fill="none" stroke-linecap="round" style="stroke-width:10;"></path ><path d="M 49.000,102.333 C 49.751,110.027 49.794,110.031 51.000,117.667" stroke-width="1.921" stroke="black" fill="none" stroke-linecap="round" style="stroke-width:10;"></path ><path d="M 51.000,117.667 C 54.794,141.697 55.000,141.667 59.000,165.667" stroke-width="3.039" stroke="black" fill="none" stroke-linecap="round" style="stroke-width:10;"></path ><path d="M 59.000,165.667 C 60.667,175.667 60.741,175.655 62.333,185.667" stroke-width="3.850" stroke="black" fill="none" stroke-linecap="round" style="stroke-width:10;"></path ><path d="M 62.333,185.667 C 63.074,190.322 64.241,196.377 63.667,195.000" stroke-width="4.646" stroke="black" fill="none" stroke-linecap="round" style="stroke-width:10;"></path ><path d="M 63.667,195.000 C 62.574,192.377 60.359,186.500 59.000,177.667" stroke-width="4.843" stroke="black" fill="none" stroke-linecap="round" style="stroke-width:10;"></path ><path d="M 59.000,177.667 C 57.026,164.834 56.315,164.444 57.000,151.667" stroke-width="3.979" stroke="black" fill="none" stroke-linecap="round" style="stroke-width:10;"></path ><path d="M 57.000,151.667 C 57.315,145.778 58.500,145.750 61.000,140.333" stroke-width="4.432" stroke="black" fill="none" stroke-linecap="round" style="stroke-width:10;"></path ><path d="M 61.000,140.333 C 62.500,137.083 62.373,134.625 65.000,134.333" stroke-width="4.823" stroke="black" fill="none" stroke-linecap="round" style="stroke-width:10;"></path ><path d="M 65.000,134.333 C 68.373,133.959 70.099,135.595 73.000,139.000" stroke-width="5.123" stroke="black" fill="none" stroke-linecap="round" style="stroke-width:10;"></path ><path d="M 73.000,139.000 C 77.766,144.595 76.342,145.871 80.333,152.333" stroke-width="4.625" stroke="black" fill="none" stroke-linecap="round" style="stroke-width:10;"></path ><path d="M 80.333,152.333 C 83.342,157.204 82.928,157.752 87.000,161.667" stroke-width="4.800" stroke="black" fill="none" stroke-linecap="round" style="stroke-width:10;"></path ><path d="M 87.000,161.667 C 91.595,166.085 91.559,168.052 97.667,169.000" stroke-width="4.817" stroke="black" fill="none" stroke-linecap="round" style="stroke-width:10;"></path ><path d="M 97.667,169.000 C 110.893,171.052 114.746,173.930 125.667,167.667" stroke-width="4.783" stroke="black" fill="none" stroke-linecap="round" style="stroke-width:10;"></path ><path d="M 125.667,167.667 C 137.412,160.930 137.704,156.240 143.000,143.000" stroke-width="4.694" stroke="black" fill="none" stroke-linecap="round" style="stroke-width:10;"></path ><path d="M 143.000,143.000 C 145.704,136.240 145.065,134.020 141.667,127.667" stroke-width="4.704" stroke="black" fill="none" stroke-linecap="round" style="stroke-width:10;"></path ><path d="M 141.667,127.667 C 137.398,119.686 135.525,117.154 127.667,114.333" stroke-width="4.865" stroke="black" fill="none" stroke-linecap="round" style="stroke-width:10;"></path ><path d="M 127.667,114.333 C 122.525,112.488 120.353,114.772 115.667,118.333" stroke-width="4.865" stroke="black" fill="none" stroke-linecap="round" style="stroke-width:10;"></path ><path d="M 115.667,118.333 C 112.020,121.105 112.232,122.318 111.000,127.000" stroke-width="4.688" stroke="black" fill="none" stroke-linecap="round" style="stroke-width:10;"></path ><path d="M 111.000,127.000 C 108.899,134.985 109.000,135.361 109.000,143.667" stroke-width="4.544" stroke="black" fill="none" stroke-linecap="round" style="stroke-width:10;"></path ><path d="M 109.000,143.667 C 109.000,149.361 109.514,149.482 111.000,155.000" stroke-width="4.619" stroke="black" fill="none" stroke-linecap="round" style="stroke-width:10;"></path ><path d="M 111.000,155.000 C 111.848,158.148 111.987,158.200 113.667,161.000" stroke-width="4.882" stroke="black" fill="none" stroke-linecap="round" style="stroke-width:10;"></path ><path d="M 113.667,161.000 C 115.987,164.867 115.645,165.435 119.000,168.333" stroke-width="4.752" stroke="black" fill="none" stroke-linecap="round" style="stroke-width:10;"></path ><path d="M 119.000,168.333 C 122.978,171.769 123.373,171.785 128.333,173.667" stroke-width="4.719" stroke="black" fill="none" stroke-linecap="round" style="stroke-width:10;"></path ><path d="M 128.333,173.667 C 133.039,175.452 133.292,175.319 138.333,175.667" stroke-width="4.756" stroke="black" fill="none" stroke-linecap="round" style="stroke-width:10;"></path ><path d="M 138.333,175.667 C 142.959,175.986 143.041,175.638 147.667,175.000" stroke-width="4.792" stroke="black" fill="none" stroke-linecap="round" style="stroke-width:10;"></path ><path d="M 147.667,175.000 C 152.708,174.305 152.839,174.562 157.667,173.000" stroke-width="4.841" stroke="black" fill="none" stroke-linecap="round" style="stroke-width:10;"></path ><path d="M 157.667,173.000 C 164.173,170.895 164.794,171.514 170.333,167.667" stroke-width="4.682" stroke="black" fill="none" stroke-linecap="round" style="stroke-width:10;"></path ><path d="M 170.333,167.667 C 176.794,163.180 177.625,163.017 181.667,156.333" stroke-width="4.531" stroke="black" fill="none" stroke-linecap="round" style="stroke-width:10;"></path ><path d="M 181.667,156.333 C 186.292,148.684 186.802,147.935 187.667,139.000" stroke-width="4.429" stroke="black" fill="none" stroke-linecap="round" style="stroke-width:10;"></path ><path d="M 187.667,139.000 C 188.802,127.268 187.522,126.825 185.667,115.000" stroke-width="4.456" stroke="black" fill="none" stroke-linecap="round" style="stroke-width:10;"></path ><path d="M 185.667,115.000 C 184.855,109.825 184.511,106.188 182.333,105.000" stroke-width="4.762" stroke="black" fill="none" stroke-linecap="round" style="stroke-width:10;"></path ><path d="M 182.333,105.000 C 180.844,104.188 178.452,107.686 178.333,111.000" stroke-width="5.209" stroke="black" fill="none" stroke-linecap="round" style="stroke-width:10;"></path ><path d="M 178.333,111.000 C 178.118,117.019 179.345,117.574 181.667,123.667" stroke-width="4.790" stroke="black" fill="none" stroke-linecap="round" style="stroke-width:10;"></path ><path d="M 181.667,123.667 C 184.679,131.574 183.661,132.800 189.000,139.000" stroke-width="4.749" stroke="black" fill="none" stroke-linecap="round" style="stroke-width:10;"></path ><path d="M 189.000,139.000 C 193.995,144.800 195.321,146.999 202.333,147.667" stroke-width="4.879" stroke="black" fill="none" stroke-linecap="round" style="stroke-width:10;"></path ><path d="M 202.333,147.667 C 209.321,148.332 211.280,146.546 217.000,141.667" stroke-width="4.838" stroke="black" fill="none" stroke-linecap="round" style="stroke-width:10;"></path ><path d="M 217.000,141.667 C 222.613,136.879 222.897,135.622 225.000,128.333" stroke-width="4.747" stroke="black" fill="none" stroke-linecap="round" style="stroke-width:10;"></path ><path d="M 225.000,128.333 C 227.897,118.289 227.190,117.624 227.000,107.000" stroke-width="4.441" stroke="black" fill="none" stroke-linecap="round" style="stroke-width:10;"></path ><path d="M 227.000,107.000 C 226.856,98.957 226.206,98.866 224.333,91.000" stroke-width="4.511" stroke="black" fill="none" stroke-linecap="round" style="stroke-width:10;"></path ><path d="M 224.333,91.000 C 222.873,84.866 222.673,84.848 220.333,79.000" stroke-width="4.764" stroke="black" fill="none" stroke-linecap="round" style="stroke-width:10;"></path ><path d="M 220.333,79.000 C 219.339,76.515 217.165,72.606 217.667,74.333" stroke-width="5.171" stroke="black" fill="none" stroke-linecap="round" style="stroke-width:10;"></path ><path d="M 217.667,74.333 C 220.165,82.939 222.100,86.967 226.333,99.667" stroke-width="5.087" stroke="black" fill="none" stroke-linecap="round" style="stroke-width:10;"></path ><path d="M 226.333,99.667 C 229.433,108.967 230.028,108.825 232.333,118.333" stroke-width="4.560" stroke="black" fill="none" stroke-linecap="round" style="stroke-width:10;"></path ><path d="M 232.333,118.333 C 235.362,130.825 234.973,130.952 237.000,143.667" stroke-width="4.147" stroke="black" fill="none" stroke-linecap="round" style="stroke-width:10;"></path ><path d="M 237.000,143.667 C 238.640,153.952 239.165,153.960 239.667,164.333" stroke-width="4.128" stroke="black" fill="none" stroke-linecap="round" style="stroke-width:10;"></path ><path d="M 239.667,164.333 C 240.165,174.627 241.561,175.161 239.000,185.000" stroke-width="4.179" stroke="black" fill="none" stroke-linecap="round" style="stroke-width:10;"></path ><path d="M 239.000,185.000 C 235.227,199.495 235.496,200.787 227.000,213.000" stroke-width="4.074" stroke="black" fill="none" stroke-linecap="round" style="stroke-width:10;"></path ><path d="M 227.000,213.000 C 219.496,223.787 218.623,224.962 207.000,231.000" stroke-width="4.099" stroke="black" fill="none" stroke-linecap="round" style="stroke-width:10;"></path ><path d="M 207.000,231.000 C 192.957,238.295 191.555,237.729 175.667,239.667" stroke-width="4.068" stroke="black" fill="none" stroke-linecap="round" style="stroke-width:10;"></path ><path d="M 175.667,239.667 C 164.221,241.062 163.776,239.812 152.333,237.667" stroke-width="3.966" stroke="black" fill="none" stroke-linecap="round" style="stroke-width:10;"></path ><path d="M 152.333,237.667 C 142.443,235.812 142.098,235.820 133.000,231.667" stroke-width="4.197" stroke="black" fill="none" stroke-linecap="round" style="stroke-width:10;"></path ><path d="M 133.000,231.667 C 126.765,228.820 127.289,227.728 121.667,223.667" stroke-width="4.441" stroke="black" fill="none" stroke-linecap="round" style="stroke-width:10;"></path ><path d="M 121.667,223.667 C 115.289,219.061 115.011,219.342 109.000,214.333" stroke-width="4.570" stroke="black" fill="none" stroke-linecap="round" style="stroke-width:10;"></path ><path d="M 109.000,214.333 C 107.011,212.676 106.994,212.545 105.667,210.333" stroke-width="4.918" stroke="black" fill="none" stroke-linecap="round" style="stroke-width:10;"></path ></svg>