<svg xmlns="http://www.w3.org/2000/svg" xmlns:xlink="http://www.w3.org/1999/xlink" viewBox="0 0 200 200" width="200" height="200"><path d="M 109.500,99.333 C 122.167,98.000 122.163,97.442 134.833,96.667" stroke-width="4.600" stroke="black" fill="none" stroke-linecap="round"></path><path d="M 134.833,96.667 C 138.496,96.442 138.606,96.443 142.167,97.333" stroke-width="4.106" stroke="black" fill="none" stroke-linecap="round"></path><path d="M 142.167,97.333 C 155.939,100.776 156.429,100.328 169.500,105.333" stroke-width="4.053" stroke="black" fill="none" stroke-linecap="round"></path><path d="M 169.500,105.333 C 172.096,106.328 171.543,107.291 173.500,109.333" stroke-width="4.124" stroke="black" fill="none" stroke-linecap="round"></path><path d="M 173.500,109.333 C 179.210,115.291 179.694,114.909 184.833,121.333" stroke-width="4.197" stroke="black" fill="none" stroke-linecap="round"></path><path d="M 184.833,121.333 C 190.361,128.242 192.596,127.611 194.833,136.000" stroke-width="3.774" stroke="black" fill="none" stroke-linecap="round"></path><path d="M 194.833,136.000 C 200.596,157.611 202.165,159.364 200.833,181.333" stroke-width="3.825" stroke="black" fill="none" stroke-linecap="round"></path><path d="M 200.833,181.333 C 200.165,192.364 196.168,191.865 190.833,202.000" stroke-width="3.910" stroke="black" fill="none" stroke-linecap="round"></path><path d="M 190.833,202.000 C 189.501,204.532 189.715,204.895 187.500,206.667" stroke-width="4.152" stroke="black" fill="none" stroke-linecap="round"></path><path d="M 187.500,206.667 C 179.715,212.895 179.218,212.411 170.833,218.000" stroke-width="4.017" stroke="black" fill="none" stroke-linecap="round"></path><path d="M 170.833,218.000 C 167.218,220.411 167.364,220.735 163.500,222.667" stroke-width="4.154" stroke="black" fill="none" stroke-linecap="round"></path><path d="M 163.500,222.667 C 160.031,224.401 159.996,225.632 156.167,225.333" stroke-width="3.990" stroke="black" fill="none" stroke-linecap="round"></path><path d="M 156.167,225.333 C 134.329,223.632 132.177,225.070 112.167,218.667" stroke-width="4.227" stroke="black" fill="none" stroke-linecap="round"></path><path d="M 112.167,218.667 C 107.177,217.070 108.461,214.305 106.167,209.333" stroke-width="3.915" stroke="black" fill="none" stroke-linecap="round"></path><path d="M 106.167,209.333 C 104.461,205.638 104.317,205.381 104.167,201.333" stroke-width="4.370" stroke="black" fill="none" stroke-linecap="round"></path><path d="M 104.167,201.333 C 103.983,196.381 104.671,196.305 105.500,191.333" stroke-width="4.538" stroke="black" fill="none" stroke-linecap="round"></path><path d="M 105.500,191.333 C 106.005,188.305 105.337,187.878 106.833,185.333" stroke-width="4.195" stroke="black" fill="none" stroke-linecap="round"></path><path d="M 106.833,185.333 C 108.670,182.211 109.344,182.490 112.167,180.000" stroke-width="4.489" stroke="black" fill="none" stroke-linecap="round"></path><path d="M 112.167,180.000 C 115.011,177.490 114.991,177.398 118.167,175.333" stroke-width="3.932" stroke="black" fill="none" stroke-linecap="round"></path><path d="M 118.167,175.333 C 121.657,173.065 121.531,172.482 125.500,171.333" stroke-width="4.339" stroke="black" fill="none" stroke-linecap="round"></path><path d="M 125.500,171.333 C 134.198,168.816 134.441,169.029 143.500,168.000" stroke-width="4.131" stroke="black" fill="none" stroke-linecap="round"></path><path d="M 143.500,168.000 C 149.108,167.363 149.195,167.624 154.833,168.000" stroke-width="4.320" stroke="black" fill="none" stroke-linecap="round"></path><path d="M 154.833,168.000 C 159.195,168.291 159.163,168.691 163.500,169.333" stroke-width="3.816" stroke="black" fill="none" stroke-linecap="round"></path><path d="M 163.500,169.333 C 168.163,170.024 168.195,169.839 172.833,170.667" stroke-width="4.243" stroke="black" fill="none" stroke-linecap="round"></path><path d="M 172.833,170.667 C 177.529,171.505 177.449,172.038 182.167,172.667" stroke-width="3.712" stroke="black" fill="none" stroke-linecap="round"></path><path d="M 182.167,172.667 C 187.449,173.371 187.527,172.765 192.833,173.333" stroke-width="4.111" stroke="black" fill="none" stroke-linecap="round"></path><path d="M 192.833,173.333 C 196.860,173.765 196.809,174.512 200.833,174.667" stroke-width="3.894" stroke="black" fill="none" stroke-linecap="round"></path><path d="M 200.833,174.667 C 205.476,174.845 205.515,174.481 210.167,174.000" stroke-width="4.000" stroke="black" fill="none" stroke-linecap="round"></path><path d="M 210.167,174.000 C 215.182,173.481 215.235,173.653 220.167,172.667" stroke-width="4.211" stroke="black" fill="none" stroke-linecap="round"></path><path d="M 220.167,172.667 C 223.569,171.986 223.574,171.867 226.833,170.667" stroke-width="4.367" stroke="black" fill="none" stroke-linecap="round"></path><path d="M 226.833,170.667 C 229.908,169.534 230.045,169.673 232.833,168.000" stroke-width="4.273" stroke="black" fill="none" stroke-linecap="round"></path><path d="M 232.833,168.000 C 235.045,166.673 235.872,167.003 236.833,164.667" stroke-width="4.253" stroke="black" fill="none" stroke-linecap="round"></path><path d="M 236.833,164.667 C 240.538,155.669 240.418,155.078 242.167,145.333" stroke-width="4.336" stroke="black" fill="none" stroke-linecap="round"></path><path d="M 242.167,145.333 C 242.751,142.078 241.899,141.992 241.500,138.667" stroke-width="4.167" stroke="black" fill="none" stroke-linecap="round"></path><path d="M 241.500,138.667 C 240.899,133.659 240.819,133.669 240.167,128.667" stroke-width="3.638" stroke="black" fill="none" stroke-linecap="round"></path><path d="M 240.167,128.667 C 239.819,126.002 240.323,125.877 239.500,123.333" stroke-width="4.097" stroke="black" fill="none" stroke-linecap="round"></path><path d="M 239.500,123.333 C 236.656,114.544 235.932,114.749 232.833,106.000" stroke-width="3.765" stroke="black" fill="none" stroke-linecap="round"></path><path d="M 232.833,106.000 C 230.265,98.749 231.046,98.420 228.167,91.333" stroke-width="3.929" stroke="black" fill="none" stroke-linecap="round"></path><path d="M 228.167,91.333 C 226.712,87.754 226.532,87.727 224.167,84.667" stroke-width="4.013" stroke="black" fill="none" stroke-linecap="round"></path><path d="M 224.167,84.667 C 220.865,80.394 220.960,80.166 216.833,76.667" stroke-width="4.165" stroke="black" fill="none" stroke-linecap="round"></path><path d="M 216.833,76.667 C 205.627,67.166 205.512,67.047 193.500,58.667" stroke-width="4.097" stroke="black" fill="none" stroke-linecap="round"></path><path d="M 193.500,58.667 C 191.178,57.047 190.888,57.495 188.167,56.667" stroke-width="4.376" stroke="black" fill="none" stroke-linecap="round"></path><path d="M 188.167,56.667 C 183.222,55.162 183.135,55.442 178.167,54.000" stroke-width="3.656" stroke="black" fill="none" stroke-linecap="round"></path><path d="M 178.167,54.000 C 172.802,52.442 172.974,51.531 167.500,50.667" stroke-width="4.022" stroke="black" fill="none" stroke-linecap="round"></path><path d="M 167.500,50.667 C 160.308,49.531 160.159,50.444 152.833,50.000" stroke-width="3.545" stroke="black" fill="none" stroke-linecap="round"></path><path d="M 152.833,50.000 C 149.159,49.777 149.161,49.203 145.500,49.333" stroke-width="3.803" stroke="black" fill="none" stroke-linecap="round"></path><path d="M 145.500,49.333 C 139.827,49.536 139.772,49.637 134.167,50.667" stroke-width="3.486" stroke="black" fill="none" stroke-linecap="round"></path><path d="M 134.167,50.667 C 123.439,52.637 123.433,52.738 112.833,55.333" stroke-width="3.673" stroke="black" fill="none" stroke-linecap="round"></path><path d="M 112.833,55.333 C 107.099,56.738 106.974,56.510 101.500,58.667" stroke-width="3.576" stroke="black" fill="none" stroke-linecap="round"></path><path d="M 101.500,58.667 C 95.974,60.844 96.239,61.490 90.833,64.000" stroke-width="3.321" stroke="black" fill="none" stroke-linecap="round"></path><path d="M 90.833,64.000 C 86.905,65.824 86.770,65.529 82.833,67.333" stroke-width="3.594" stroke="black" fill="none" stroke-linecap="round"></path><path d="M 82.833,67.333 C 78.770,69.196 78.296,68.587 74.833,71.333" stroke-width="3.604" stroke="black" fill="none" stroke-linecap="round"></path><path d="M 74.833,71.333 C 68.629,76.254 69.167,77.000 63.500,82.667" stroke-width="3.864" stroke="black" fill="none" stroke-linecap="round"></path><path d="M 63.500,82.667 C 60.500,85.667 59.892,85.228 57.500,88.667" stroke-width="4.214" stroke="black" fill="none" stroke-linecap="round"></path><path d="M 57.500,88.667 C 54.559,92.895 54.633,93.141 52.833,98.000" stroke-width="4.384" stroke="black" fill="none" stroke-linecap="round"></path><path d="M 52.833,98.000 C 51.300,102.141 51.459,102.291 50.833,106.667" stroke-width="4.375" stroke="black" fill="none" stroke-linecap="round"></path><path d="M 50.833,106.667 C 50.459,109.291 50.398,109.387 50.833,112.000" stroke-width="4.532" stroke="black" fill="none" stroke-linecap="round"></path><path d="M 50.833,112.000 C 51.731,117.387 51.709,117.517 53.500,122.667" stroke-width="4.075" stroke="black" fill="none" stroke-linecap="round"></path><path d="M 53.500,122.667 C 54.376,125.184 54.813,125.012 56.167,127.333" stroke-width="4.169" stroke="black" fill="none" stroke-linecap="round"></path><path d="M 56.167,127.333 C 59.479,133.012 59.199,133.215 62.833,138.667" stroke-width="4.400" stroke="black" fill="none" stroke-linecap="round"></path><path d="M 62.833,138.667 C 64.532,141.215 64.592,141.264 66.833,143.333" stroke-width="4.208" stroke="black" fill="none" stroke-linecap="round"></path><path d="M 66.833,143.333 C 68.925,145.264 69.229,144.920 71.500,146.667" stroke-width="4.435" stroke="black" fill="none" stroke-linecap="round"></path><path d="M 71.500,146.667 C 73.562,148.253 73.196,148.848 75.500,150.000" stroke-width="4.300" stroke="black" fill="none" stroke-linecap="round"></path><path d="M 75.500,150.000 C 81.196,152.848 81.242,153.493 87.500,154.667" stroke-width="4.420" stroke="black" fill="none" stroke-linecap="round"></path><path d="M 87.500,154.667 C 97.242,156.493 97.603,156.247 107.500,156.000" stroke-width="4.396" stroke="black" fill="none" stroke-linecap="round"></path><path d="M 107.500,156.000 C 110.937,155.914 110.867,155.100 114.167,154.000" stroke-width="4.599" stroke="black" fill="none" stroke-linecap="round"></path><path d="M 114.167,154.000 C 117.867,152.767 117.865,152.747 121.500,151.333" stroke-width="4.674" stroke="black" fill="none" stroke-linecap="round"></path><path d="M 121.500,151.333 C 123.865,150.414 123.810,150.276 126.167,149.333" stroke-width="4.975" stroke="black" fill="none" stroke-linecap="round"></path><path d="M 126.167,149.333 C 128.810,148.276 128.914,148.519 131.500,147.333" stroke-width="4.462" stroke="black" fill="none" stroke-linecap="round"></path><path d="M 131.500,147.333 C 136.914,144.852 137.035,144.993 142.167,142.000" stroke-width="4.294" stroke="black" fill="none" stroke-linecap="round"></path></svg>