<svg xmlns="http://www.w3.org/2000/svg" xmlns:xlink="http://www.w3.org/1999/xlink" viewBox="0 0 200 200" width="200" height="200"><path d="M 97.667,156.667 C 103.667,150.000 103.516,149.857 109.667,143.333" stroke-width="5.053" stroke="black" fill="none" stroke-linecap="round"></path><path d="M 109.667,143.333 C 114.516,138.190 114.555,138.213 119.667,133.333" stroke-width="3.791" stroke="black" fill="none" stroke-linecap="round"></path><path d="M 119.667,133.333 C 121.888,131.213 122.000,131.333 124.333,129.333" stroke-width="4.167" stroke="black" fill="none" stroke-linecap="round"></path><path d="M 124.333,129.333 C 126.667,127.333 126.649,127.313 129.000,125.333" stroke-width="4.261" stroke="black" fill="none" stroke-linecap="round"></path><path d="M 129.000,125.333 C 132.983,121.980 132.935,121.918 137.000,118.667" stroke-width="4.249" stroke="black" fill="none" stroke-linecap="round"></path><path d="M 137.000,118.667 C 139.602,116.585 139.786,116.812 142.333,114.667" stroke-width="4.263" stroke="black" fill="none" stroke-linecap="round"></path><path d="M 142.333,114.667 C 146.120,111.478 145.875,111.185 149.667,108.000" stroke-width="4.383" stroke="black" fill="none" stroke-linecap="round"></path><path d="M 149.667,108.000 C 154.208,104.185 154.231,104.192 159.000,100.667" stroke-width="4.496" stroke="black" fill="none" stroke-linecap="round"></path><path d="M 159.000,100.667 C 161.897,98.525 162.029,98.709 165.000,96.667" stroke-width="4.746" stroke="black" fill="none" stroke-linecap="round"></path><path d="M 165.000,96.667 C 167.363,95.042 167.865,92.372 169.667,93.333" stroke-width="5.054" stroke="black" fill="none" stroke-linecap="round"></path><path d="M 169.667,93.333 C 172.865,95.039 173.389,97.368 175.000,102.000" stroke-width="5.255" stroke="black" fill="none" stroke-linecap="round"></path><path d="M 175.000,102.000 C 176.056,105.035 175.000,105.333 175.000,108.667" stroke-width="4.596" stroke="black" fill="none" stroke-linecap="round"></path><path d="M 175.000,108.667 C 175.000,112.667 174.862,112.671 175.000,116.667" stroke-width="4.463" stroke="black" fill="none" stroke-linecap="round"></path><path d="M 175.000,116.667 C 175.196,122.337 175.289,122.336 175.667,128.000" stroke-width="4.130" stroke="black" fill="none" stroke-linecap="round"></path><path d="M 175.667,128.000 C 175.956,132.336 175.987,132.334 176.333,136.667" stroke-width="4.217" stroke="black" fill="none" stroke-linecap="round"></path><path d="M 176.333,136.667 C 176.653,140.668 176.724,140.663 177.000,144.667" stroke-width="4.245" stroke="black" fill="none" stroke-linecap="round"></path><path d="M 177.000,144.667 C 177.391,150.329 177.449,150.330 177.667,156.000" stroke-width="4.323" stroke="black" fill="none" stroke-linecap="round"></path><path d="M 177.667,156.000 C 177.782,158.997 177.667,159.000 177.667,162.000" stroke-width="4.390" stroke="black" fill="none" stroke-linecap="round"></path><path d="M 177.667,162.000 C 177.667,166.667 177.667,166.667 177.667,171.333" stroke-width="4.269" stroke="black" fill="none" stroke-linecap="round"></path><path d="M 177.667,171.333 C 177.667,174.667 179.738,177.540 177.667,178.000" stroke-width="4.760" stroke="black" fill="none" stroke-linecap="round"></path><path d="M 177.667,178.000 C 173.738,178.873 171.133,176.981 165.667,174.000" stroke-width="5.106" stroke="black" fill="none" stroke-linecap="round"></path><path d="M 165.667,174.000 C 160.133,170.981 160.622,170.054 155.667,166.000" stroke-width="4.484" stroke="black" fill="none" stroke-linecap="round"></path><path d="M 155.667,166.000 C 153.288,164.054 153.304,164.033 151.000,162.000" stroke-width="4.422" stroke="black" fill="none" stroke-linecap="round"></path><path d="M 151.000,162.000 C 147.638,159.033 147.593,159.078 144.333,156.000" stroke-width="3.877" stroke="black" fill="none" stroke-linecap="round"></path><path d="M 144.333,156.000 C 141.593,153.411 141.512,153.474 139.000,150.667" stroke-width="4.388" stroke="black" fill="none" stroke-linecap="round"></path><path d="M 139.000,150.667 C 135.845,147.140 135.896,147.081 133.000,143.333" stroke-width="4.167" stroke="black" fill="none" stroke-linecap="round"></path><path d="M 133.000,143.333 C 130.229,139.747 130.302,139.689 127.667,136.000" stroke-width="4.249" stroke="black" fill="none" stroke-linecap="round"></path><path d="M 127.667,136.000 C 125.302,132.689 125.494,132.540 123.000,129.333" stroke-width="4.448" stroke="black" fill="none" stroke-linecap="round"></path><path d="M 123.000,129.333 C 120.828,126.540 120.349,126.898 118.333,124.000" stroke-width="4.574" stroke="black" fill="none" stroke-linecap="round"></path><path d="M 118.333,124.000 C 115.016,119.231 115.300,119.020 112.333,114.000" stroke-width="4.401" stroke="black" fill="none" stroke-linecap="round"></path><path d="M 112.333,114.000 C 110.966,111.686 111.109,111.599 109.667,109.333" stroke-width="4.683" stroke="black" fill="none" stroke-linecap="round"></path><path d="M 109.667,109.333 C 106.442,104.266 106.457,104.246 103.000,99.333" stroke-width="4.736" stroke="black" fill="none" stroke-linecap="round"></path><path d="M 103.000,99.333 C 100.124,95.246 100.069,95.279 97.000,91.333" stroke-width="4.818" stroke="black" fill="none" stroke-linecap="round"></path><path d="M 97.000,91.333 C 95.402,89.279 92.944,87.912 93.667,87.333" stroke-width="5.216" stroke="black" fill="none" stroke-linecap="round"></path><path d="M 93.667,87.333 C 94.611,86.578 97.137,87.601 100.333,88.667" stroke-width="5.302" stroke="black" fill="none" stroke-linecap="round"></path><path d="M 100.333,88.667 C 103.137,89.601 102.939,90.133 105.667,91.333" stroke-width="4.840" stroke="black" fill="none" stroke-linecap="round"></path><path d="M 105.667,91.333 C 111.273,93.800 111.383,93.552 117.000,96.000" stroke-width="3.860" stroke="black" fill="none" stroke-linecap="round"></path><path d="M 117.000,96.000 C 124.383,99.218 124.147,99.826 131.667,102.667" stroke-width="3.964" stroke="black" fill="none" stroke-linecap="round"></path><path d="M 131.667,102.667 C 139.147,105.493 139.401,104.800 147.000,107.333" stroke-width="4.138" stroke="black" fill="none" stroke-linecap="round"></path><path d="M 147.000,107.333 C 153.401,109.467 153.181,110.216 159.667,112.000" stroke-width="3.746" stroke="black" fill="none" stroke-linecap="round"></path><path d="M 159.667,112.000 C 166.514,113.883 166.648,113.438 173.667,114.667" stroke-width="4.084" stroke="black" fill="none" stroke-linecap="round"></path><path d="M 173.667,114.667 C 179.982,115.772 180.016,115.577 186.333,116.667" stroke-width="4.036" stroke="black" fill="none" stroke-linecap="round"></path><path d="M 186.333,116.667 C 189.683,117.244 189.674,117.300 193.000,118.000" stroke-width="4.657" stroke="black" fill="none" stroke-linecap="round"></path><path d="M 193.000,118.000 C 196.007,118.633 196.009,118.630 199.000,119.333" stroke-width="4.997" stroke="black" fill="none" stroke-linecap="round"></path><path d="M 199.000,119.333 C 201.675,119.963 201.637,120.161 204.333,120.667" stroke-width="5.247" stroke="black" fill="none" stroke-linecap="round"></path><path d="M 204.333,120.667 C 206.970,121.161 207.030,120.839 209.667,121.333" stroke-width="5.307" stroke="black" fill="none" stroke-linecap="round"></path><path d="M 209.667,121.333 C 212.363,121.839 215.000,121.261 215.000,122.667" stroke-width="5.312" stroke="black" fill="none" stroke-linecap="round"></path><path d="M 215.000,122.667 C 215.000,124.595 212.678,125.774 209.667,128.000" stroke-width="5.347" stroke="black" fill="none" stroke-linecap="round"></path><path d="M 209.667,128.000 C 205.011,131.441 204.841,131.335 199.667,134.000" stroke-width="4.191" stroke="black" fill="none" stroke-linecap="round"></path><path d="M 199.667,134.000 C 193.841,137.001 193.784,136.961 187.667,139.333" stroke-width="4.203" stroke="black" fill="none" stroke-linecap="round"></path><path d="M 187.667,139.333 C 177.451,143.295 177.273,142.840 167.000,146.667" stroke-width="3.939" stroke="black" fill="none" stroke-linecap="round"></path><path d="M 167.000,146.667 C 160.273,149.173 160.455,149.686 153.667,152.000" stroke-width="3.748" stroke="black" fill="none" stroke-linecap="round"></path><path d="M 153.667,152.000 C 145.788,154.686 145.753,154.686 137.667,156.667" stroke-width="4.162" stroke="black" fill="none" stroke-linecap="round"></path><path d="M 137.667,156.667 C 129.420,158.686 129.357,158.481 121.000,160.000" stroke-width="4.157" stroke="black" fill="none" stroke-linecap="round"></path><path d="M 121.000,160.000 C 118.357,160.481 118.343,160.434 115.667,160.667" stroke-width="4.455" stroke="black" fill="none" stroke-linecap="round"></path><path d="M 115.667,160.667 C 110.676,161.101 110.671,161.116 105.667,161.333" stroke-width="4.310" stroke="black" fill="none" stroke-linecap="round"></path><path d="M 105.667,161.333 C 103.004,161.449 102.991,161.490 100.333,161.333" stroke-width="4.574" stroke="black" fill="none" stroke-linecap="round"></path></svg>