<svg xmlns="http://www.w3.org/2000/svg" xmlns:xlink="http://www.w3.org/1999/xlink" viewBox="0 0 200 200" width="200" height="200"><path d="M 107.000,91.333 C 108.667,101.333 108.347,101.400 110.333,111.333" stroke-width="4.604" stroke="black" fill="none" stroke-linecap="round" style="stroke-width:10;"></path ><path d="M 110.333,111.333 C 111.680,118.067 111.807,118.056 113.667,124.667" stroke-width="4.454" stroke="black" fill="none" stroke-linecap="round" style="stroke-width:10;"></path ><path d="M 113.667,124.667 C 114.807,128.723 114.659,128.815 116.333,132.667" stroke-width="4.717" stroke="black" fill="none" stroke-linecap="round" style="stroke-width:10;"></path ><path d="M 116.333,132.667 C 117.992,136.482 117.825,136.699 120.333,140.000" stroke-width="4.627" stroke="black" fill="none" stroke-linecap="round" style="stroke-width:10;"></path ><path d="M 120.333,140.000 C 124.158,145.033 124.110,145.608 129.000,149.333" stroke-width="4.809" stroke="black" fill="none" stroke-linecap="round" style="stroke-width:10;"></path ><path d="M 129.000,149.333 C 131.110,150.941 131.716,150.942 134.333,150.667" stroke-width="5.103" stroke="black" fill="none" stroke-linecap="round" style="stroke-width:10;"></path ><path d="M 134.333,150.667 C 138.049,150.276 138.522,150.096 141.667,148.000" stroke-width="5.148" stroke="black" fill="none" stroke-linecap="round" style="stroke-width:10;"></path ><path d="M 141.667,148.000 C 144.522,146.096 144.281,145.540 146.333,142.667" stroke-width="4.932" stroke="black" fill="none" stroke-linecap="round" style="stroke-width:10;"></path ><path d="M 146.333,142.667 C 149.281,138.540 149.346,138.518 151.667,134.000" stroke-width="4.536" stroke="black" fill="none" stroke-linecap="round" style="stroke-width:10;"></path ><path d="M 151.667,134.000 C 155.680,126.185 155.851,126.186 159.000,118.000" stroke-width="4.415" stroke="black" fill="none" stroke-linecap="round" style="stroke-width:10;"></path ><path d="M 159.000,118.000 C 160.851,113.186 160.460,113.029 161.667,108.000" stroke-width="4.660" stroke="black" fill="none" stroke-linecap="round" style="stroke-width:10;"></path ><path d="M 161.667,108.000 C 162.460,104.696 162.333,104.667 163.000,101.333" stroke-width="4.868" stroke="black" fill="none" stroke-linecap="round" style="stroke-width:10;"></path ><path d="M 163.000,101.333 C 163.667,98.000 163.775,98.018 164.333,94.667" stroke-width="5.007" stroke="black" fill="none" stroke-linecap="round" style="stroke-width:10;"></path ><path d="M 164.333,94.667 C 164.775,92.018 164.387,89.180 165.000,89.333" stroke-width="5.274" stroke="black" fill="none" stroke-linecap="round" style="stroke-width:10;"></path ><path d="M 165.000,89.333 C 165.721,89.514 166.331,92.255 167.000,95.333" stroke-width="5.074" stroke="black" fill="none" stroke-linecap="round" style="stroke-width:10;"></path ><path d="M 167.000,95.333 C 167.998,99.922 167.893,99.975 168.333,104.667" stroke-width="4.491" stroke="black" fill="none" stroke-linecap="round" style="stroke-width:10;"></path ><path d="M 168.333,104.667 C 169.893,121.308 169.038,121.461 171.000,138.000" stroke-width="4.294" stroke="black" fill="none" stroke-linecap="round" style="stroke-width:10;"></path ><path d="M 171.000,138.000 C 171.371,141.128 172.353,140.925 173.000,144.000" stroke-width="4.280" stroke="black" fill="none" stroke-linecap="round" style="stroke-width:10;"></path ><path d="M 173.000,144.000 C 173.686,147.258 173.268,147.341 173.667,150.667" stroke-width="4.269" stroke="black" fill="none" stroke-linecap="round" style="stroke-width:10;"></path ><path d="M 173.667,150.667 C 174.268,155.674 174.374,155.662 175.000,160.667" stroke-width="4.391" stroke="black" fill="none" stroke-linecap="round" style="stroke-width:10;"></path ><path d="M 175.000,160.667 C 175.374,163.662 175.667,163.657 175.667,166.667" stroke-width="4.533" stroke="black" fill="none" stroke-linecap="round" style="stroke-width:10;"></path ><path d="M 175.667,166.667 C 175.667,173.323 175.586,173.358 175.000,180.000" stroke-width="4.267" stroke="black" fill="none" stroke-linecap="round" style="stroke-width:10;"></path ><path d="M 175.000,180.000 C 174.586,184.691 174.734,184.757 173.667,189.333" stroke-width="4.491" stroke="black" fill="none" stroke-linecap="round" style="stroke-width:10;"></path ><path d="M 173.667,189.333 C 172.401,194.757 172.583,194.938 170.333,200.000" stroke-width="4.457" stroke="black" fill="none" stroke-linecap="round" style="stroke-width:10;"></path ><path d="M 170.333,200.000 C 168.583,203.938 168.667,204.333 165.667,207.333" stroke-width="4.836" stroke="black" fill="none" stroke-linecap="round" style="stroke-width:10;"></path ><path d="M 165.667,207.333 C 162.667,210.333 162.359,210.761 158.333,212.000" stroke-width="4.875" stroke="black" fill="none" stroke-linecap="round" style="stroke-width:10;"></path ><path d="M 158.333,212.000 C 153.692,213.428 153.317,212.833 148.333,212.667" stroke-width="4.881" stroke="black" fill="none" stroke-linecap="round" style="stroke-width:10;"></path ><path d="M 148.333,212.667 C 143.317,212.499 143.013,212.947 138.333,211.333" stroke-width="4.509" stroke="black" fill="none" stroke-linecap="round" style="stroke-width:10;"></path ><path d="M 138.333,211.333 C 133.347,209.614 133.489,208.941 129.000,206.000" stroke-width="4.383" stroke="black" fill="none" stroke-linecap="round" style="stroke-width:10;"></path ><path d="M 129.000,206.000 C 123.822,202.607 123.672,202.716 119.000,198.667" stroke-width="4.457" stroke="black" fill="none" stroke-linecap="round" style="stroke-width:10;"></path ><path d="M 119.000,198.667 C 113.672,194.049 113.196,194.261 109.000,188.667" stroke-width="4.492" stroke="black" fill="none" stroke-linecap="round" style="stroke-width:10;"></path ><path d="M 109.000,188.667 C 105.196,183.594 105.632,183.162 103.000,177.333" stroke-width="4.591" stroke="black" fill="none" stroke-linecap="round" style="stroke-width:10;"></path ><path d="M 103.000,177.333 C 100.966,172.829 101.167,172.717 99.667,168.000" stroke-width="4.776" stroke="black" fill="none" stroke-linecap="round" style="stroke-width:10;"></path ></svg>