<svg xmlns="http://www.w3.org/2000/svg" xmlns:xlink="http://www.w3.org/1999/xlink" viewBox="0 0 200 200" width="200" height="200"><path d="M 66.000,94.000 C 59.000,98.000 59.000,98.000 52.000,102.000" stroke-width="5.279" stroke="black" fill="none" stroke-linecap="round" style="stroke-width:10;"></path ><path d="M 52.000,102.000 C 49.667,103.333 49.534,103.143 47.333,104.667" stroke-width="4.692" stroke="black" fill="none" stroke-linecap="round" style="stroke-width:10;"></path ><path d="M 47.333,104.667 C 45.201,106.143 44.761,105.858 43.333,108.000" stroke-width="5.111" stroke="black" fill="none" stroke-linecap="round" style="stroke-width:10;"></path ><path d="M 43.333,108.000 C 38.095,115.858 37.609,116.005 34.000,124.667" stroke-width="3.173" stroke="black" fill="none" stroke-linecap="round" style="stroke-width:10;"></path ><path d="M 34.000,124.667 C 32.609,128.005 33.517,128.327 33.333,132.000" stroke-width="3.863" stroke="black" fill="none" stroke-linecap="round" style="stroke-width:10;"></path ><path d="M 33.333,132.000 C 33.184,134.993 33.036,135.027 33.333,138.000" stroke-width="4.020" stroke="black" fill="none" stroke-linecap="round" style="stroke-width:10;"></path ><path d="M 33.333,138.000 C 33.703,141.693 33.348,141.942 34.667,145.333" stroke-width="4.448" stroke="black" fill="none" stroke-linecap="round" style="stroke-width:10;"></path ><path d="M 34.667,145.333 C 35.681,147.942 36.224,147.751 38.000,150.000" stroke-width="4.559" stroke="black" fill="none" stroke-linecap="round" style="stroke-width:10;"></path ><path d="M 38.000,150.000 C 41.224,154.084 40.863,154.501 44.667,158.000" stroke-width="4.603" stroke="black" fill="none" stroke-linecap="round" style="stroke-width:10;"></path ><path d="M 44.667,158.000 C 49.196,162.167 49.244,162.529 54.667,165.333" stroke-width="4.418" stroke="black" fill="none" stroke-linecap="round" style="stroke-width:10;"></path ><path d="M 54.667,165.333 C 58.911,167.529 59.240,167.524 64.000,168.000" stroke-width="4.536" stroke="black" fill="none" stroke-linecap="round" style="stroke-width:10;"></path ><path d="M 64.000,168.000 C 69.240,168.524 69.532,168.403 74.667,167.333" stroke-width="4.556" stroke="black" fill="none" stroke-linecap="round" style="stroke-width:10;"></path ><path d="M 74.667,167.333 C 77.532,166.736 77.589,166.388 80.000,164.667" stroke-width="4.360" stroke="black" fill="none" stroke-linecap="round" style="stroke-width:10;"></path ><path d="M 80.000,164.667 C 84.589,161.388 85.045,161.559 88.667,157.333" stroke-width="4.621" stroke="black" fill="none" stroke-linecap="round" style="stroke-width:10;"></path ><path d="M 88.667,157.333 C 91.045,154.559 90.592,154.107 92.000,150.667" stroke-width="4.100" stroke="black" fill="none" stroke-linecap="round" style="stroke-width:10;"></path ><path d="M 92.000,150.667 C 93.592,146.774 93.559,146.727 94.667,142.667" stroke-width="4.536" stroke="black" fill="none" stroke-linecap="round" style="stroke-width:10;"></path ><path d="M 94.667,142.667 C 95.559,139.393 95.625,139.371 96.000,136.000" stroke-width="4.657" stroke="black" fill="none" stroke-linecap="round" style="stroke-width:10;"></path ><path d="M 96.000,136.000 C 96.625,130.371 96.667,130.322 96.667,124.667" stroke-width="4.443" stroke="black" fill="none" stroke-linecap="round" style="stroke-width:10;"></path ><path d="M 96.667,124.667 C 96.667,121.989 96.141,122.012 96.000,119.333" stroke-width="4.863" stroke="black" fill="none" stroke-linecap="round" style="stroke-width:10;"></path ><path d="M 96.000,119.333 C 95.808,115.679 96.363,115.627 96.000,112.000" stroke-width="4.947" stroke="black" fill="none" stroke-linecap="round" style="stroke-width:10;"></path ><path d="M 96.000,112.000 C 95.696,108.960 95.874,108.759 94.667,106.000" stroke-width="5.019" stroke="black" fill="none" stroke-linecap="round" style="stroke-width:10;"></path ><path d="M 94.667,106.000 C 93.540,103.426 93.554,102.962 91.333,101.333" stroke-width="5.151" stroke="black" fill="none" stroke-linecap="round" style="stroke-width:10;"></path ><path d="M 91.333,101.333 C 88.554,99.295 88.117,99.393 84.667,98.667" stroke-width="5.130" stroke="black" fill="none" stroke-linecap="round" style="stroke-width:10;"></path ><path d="M 84.667,98.667 C 81.784,98.060 81.656,98.491 78.667,98.667" stroke-width="5.216" stroke="black" fill="none" stroke-linecap="round" style="stroke-width:10;"></path ><path d="M 117.333,98.667 C 116.000,110.333 115.729,110.318 114.667,122.000" stroke-width="5.227" stroke="black" fill="none" stroke-linecap="round" style="stroke-width:10;"></path ><path d="M 114.667,122.000 C 114.395,124.985 114.244,125.044 114.667,128.000" stroke-width="4.696" stroke="black" fill="none" stroke-linecap="round" style="stroke-width:10;"></path ><path d="M 114.667,128.000 C 115.578,134.377 115.618,134.449 117.333,140.667" stroke-width="4.243" stroke="black" fill="none" stroke-linecap="round" style="stroke-width:10;"></path ><path d="M 117.333,140.667 C 118.285,144.116 118.014,144.430 120.000,147.333" stroke-width="4.631" stroke="black" fill="none" stroke-linecap="round" style="stroke-width:10;"></path ><path d="M 120.000,147.333 C 122.347,150.764 122.683,150.754 126.000,153.333" stroke-width="4.702" stroke="black" fill="none" stroke-linecap="round" style="stroke-width:10;"></path ><path d="M 126.000,153.333 C 128.683,155.420 128.708,156.030 132.000,156.667" stroke-width="4.717" stroke="black" fill="none" stroke-linecap="round" style="stroke-width:10;"></path ><path d="M 132.000,156.667 C 139.041,158.030 139.717,158.560 146.667,157.333" stroke-width="4.544" stroke="black" fill="none" stroke-linecap="round" style="stroke-width:10;"></path ><path d="M 146.667,157.333 C 151.051,156.560 151.207,155.632 154.667,152.667" stroke-width="4.495" stroke="black" fill="none" stroke-linecap="round" style="stroke-width:10;"></path ><path d="M 154.667,152.667 C 158.207,149.632 157.854,149.139 160.667,145.333" stroke-width="4.427" stroke="black" fill="none" stroke-linecap="round" style="stroke-width:10;"></path ><path d="M 160.667,145.333 C 163.521,141.472 163.873,141.587 166.000,137.333" stroke-width="4.570" stroke="black" fill="none" stroke-linecap="round" style="stroke-width:10;"></path ><path d="M 166.000,137.333 C 167.540,134.254 167.115,134.030 168.000,130.667" stroke-width="4.149" stroke="black" fill="none" stroke-linecap="round" style="stroke-width:10;"></path ><path d="M 168.000,130.667 C 168.782,127.697 168.629,127.658 169.333,124.667" stroke-width="4.137" stroke="black" fill="none" stroke-linecap="round" style="stroke-width:10;"></path ><path d="M 169.333,124.667 C 169.963,121.991 170.279,122.045 170.667,119.333" stroke-width="4.662" stroke="black" fill="none" stroke-linecap="round" style="stroke-width:10;"></path ><path d="M 170.667,119.333 C 171.279,115.045 170.972,114.998 171.333,110.667" stroke-width="4.447" stroke="black" fill="none" stroke-linecap="round" style="stroke-width:10;"></path ><path d="M 171.333,110.667 C 171.639,106.998 171.480,103.507 172.000,103.333" stroke-width="4.874" stroke="black" fill="none" stroke-linecap="round" style="stroke-width:10;"></path ><path d="M 172.000,103.333 C 172.480,103.173 172.817,106.642 173.333,110.000" stroke-width="5.242" stroke="black" fill="none" stroke-linecap="round" style="stroke-width:10;"></path ><path d="M 173.333,110.000 C 174.150,115.309 174.298,115.315 174.667,120.667" stroke-width="4.500" stroke="black" fill="none" stroke-linecap="round" style="stroke-width:10;"></path ><path d="M 174.667,120.667 C 174.964,124.981 174.479,125.009 174.667,129.333" stroke-width="4.236" stroke="black" fill="none" stroke-linecap="round" style="stroke-width:10;"></path ><path d="M 174.667,129.333 C 174.812,132.676 175.434,132.664 175.333,136.000" stroke-width="4.565" stroke="black" fill="none" stroke-linecap="round" style="stroke-width:10;"></path ><path d="M 175.333,136.000 C 175.101,143.664 174.888,143.693 174.000,151.333" stroke-width="4.157" stroke="black" fill="none" stroke-linecap="round" style="stroke-width:10;"></path ><path d="M 174.000,151.333 C 173.222,158.026 172.811,157.979 172.000,164.667" stroke-width="3.616" stroke="black" fill="none" stroke-linecap="round" style="stroke-width:10;"></path ><path d="M 172.000,164.667 C 171.477,168.979 171.831,169.019 171.333,173.333" stroke-width="3.783" stroke="black" fill="none" stroke-linecap="round" style="stroke-width:10;"></path ><path d="M 171.333,173.333 C 170.831,177.686 171.160,177.796 170.000,182.000" stroke-width="3.783" stroke="black" fill="none" stroke-linecap="round" style="stroke-width:10;"></path ><path d="M 170.000,182.000 C 168.493,187.462 168.280,187.455 166.000,192.667" stroke-width="4.196" stroke="black" fill="none" stroke-linecap="round" style="stroke-width:10;"></path ><path d="M 166.000,192.667 C 163.613,198.122 163.593,198.156 160.667,203.333" stroke-width="4.324" stroke="black" fill="none" stroke-linecap="round" style="stroke-width:10;"></path ><path d="M 160.667,203.333 C 159.260,205.823 159.224,205.857 157.333,208.000" stroke-width="4.357" stroke="black" fill="none" stroke-linecap="round" style="stroke-width:10;"></path ><path d="M 157.333,208.000 C 154.224,211.523 154.451,211.942 150.667,214.667" stroke-width="3.869" stroke="black" fill="none" stroke-linecap="round" style="stroke-width:10;"></path ><path d="M 150.667,214.667 C 146.118,217.942 145.867,217.965 140.667,220.000" stroke-width="4.182" stroke="black" fill="none" stroke-linecap="round" style="stroke-width:10;"></path ><path d="M 140.667,220.000 C 138.200,220.965 138.011,220.518 135.333,220.667" stroke-width="4.463" stroke="black" fill="none" stroke-linecap="round" style="stroke-width:10;"></path ><path d="M 135.333,220.667 C 132.011,220.851 131.883,221.234 128.667,220.667" stroke-width="4.519" stroke="black" fill="none" stroke-linecap="round" style="stroke-width:10;"></path ><path d="M 128.667,220.667 C 126.217,220.234 126.243,219.847 124.000,218.667" stroke-width="4.496" stroke="black" fill="none" stroke-linecap="round" style="stroke-width:10;"></path ><path d="M 124.000,218.667 C 119.909,216.514 120.000,216.333 116.000,214.000" stroke-width="4.379" stroke="black" fill="none" stroke-linecap="round" style="stroke-width:10;"></path ><path d="M 116.000,214.000 C 112.000,211.667 112.056,211.564 108.000,209.333" stroke-width="4.740" stroke="black" fill="none" stroke-linecap="round" style="stroke-width:10;"></path ><path d="M 108.000,209.333 C 105.389,207.897 104.951,208.494 102.667,206.667" stroke-width="4.368" stroke="black" fill="none" stroke-linecap="round" style="stroke-width:10;"></path ><path d="M 102.667,206.667 C 99.951,204.494 99.731,204.363 98.000,201.333" stroke-width="4.812" stroke="black" fill="none" stroke-linecap="round" style="stroke-width:10;"></path ><path d="M 58.667,199.333 C 66.333,207.000 66.129,207.221 74.000,214.667" stroke-width="5.033" stroke="black" fill="none" stroke-linecap="round" style="stroke-width:10;"></path ><path d="M 74.000,214.667 C 78.462,218.888 78.780,218.540 83.333,222.667" stroke-width="4.536" stroke="black" fill="none" stroke-linecap="round" style="stroke-width:10;"></path ><path d="M 83.333,222.667 C 89.447,228.207 89.333,228.333 95.333,234.000" stroke-width="4.233" stroke="black" fill="none" stroke-linecap="round" style="stroke-width:10;"></path ><path d="M 95.333,234.000 C 101.333,239.667 100.796,240.807 107.333,245.333" stroke-width="4.467" stroke="black" fill="none" stroke-linecap="round" style="stroke-width:10;"></path ><path d="M 107.333,245.333 C 109.462,246.807 111.543,247.736 112.667,246.000" stroke-width="5.107" stroke="black" fill="none" stroke-linecap="round" style="stroke-width:10;"></path ><path d="M 112.667,246.000 C 115.210,242.070 113.981,240.038 114.667,234.000" stroke-width="3.863" stroke="black" fill="none" stroke-linecap="round" style="stroke-width:10;"></path ><path d="M 114.667,234.000 C 115.647,225.371 115.067,225.299 116.000,216.667" stroke-width="3.923" stroke="black" fill="none" stroke-linecap="round" style="stroke-width:10;"></path ><path d="M 116.000,216.667 C 116.400,212.966 117.227,213.039 117.333,209.333" stroke-width="4.294" stroke="black" fill="none" stroke-linecap="round" style="stroke-width:10;"></path ><path d="M 117.333,209.333 C 117.561,201.372 116.917,201.335 116.667,193.333" stroke-width="4.463" stroke="black" fill="none" stroke-linecap="round" style="stroke-width:10;"></path ><path d="M 134.000,226.667 C 140.000,219.000 140.518,219.328 146.000,211.333" stroke-width="5.241" stroke="black" fill="none" stroke-linecap="round" style="stroke-width:10;"></path ><path d="M 146.000,211.333 C 148.518,207.661 148.167,207.406 150.000,203.333" stroke-width="4.818" stroke="black" fill="none" stroke-linecap="round" style="stroke-width:10;"></path ><path d="M 150.000,203.333 C 151.167,200.740 152.514,200.656 152.000,198.000" stroke-width="4.568" stroke="black" fill="none" stroke-linecap="round" style="stroke-width:10;"></path ><path d="M 152.000,198.000 C 150.514,190.323 150.210,187.620 146.000,182.667" stroke-width="4.933" stroke="black" fill="none" stroke-linecap="round" style="stroke-width:10;"></path ><path d="M 146.000,182.667 C 144.544,180.953 142.665,182.759 140.667,184.667" stroke-width="5.041" stroke="black" fill="none" stroke-linecap="round" style="stroke-width:10;"></path ><path d="M 140.667,184.667 C 135.332,189.759 133.819,189.919 131.333,196.667" stroke-width="4.641" stroke="black" fill="none" stroke-linecap="round" style="stroke-width:10;"></path ><path d="M 131.333,196.667 C 129.153,202.585 130.609,203.482 131.333,210.000" stroke-width="4.572" stroke="black" fill="none" stroke-linecap="round" style="stroke-width:10;"></path ><path d="M 131.333,210.000 C 131.609,212.482 131.391,213.191 133.333,214.667" stroke-width="4.703" stroke="black" fill="none" stroke-linecap="round" style="stroke-width:10;"></path ><path d="M 133.333,214.667 C 139.724,219.524 140.112,221.178 148.000,222.667" stroke-width="4.116" stroke="black" fill="none" stroke-linecap="round" style="stroke-width:10;"></path ><path d="M 148.000,222.667 C 157.778,224.512 158.691,223.234 168.667,221.333" stroke-width="4.081" stroke="black" fill="none" stroke-linecap="round" style="stroke-width:10;"></path ><path d="M 168.667,221.333 C 172.691,220.567 172.442,219.507 176.000,217.333" stroke-width="4.339" stroke="black" fill="none" stroke-linecap="round" style="stroke-width:10;"></path ><path d="M 176.000,217.333 C 178.442,215.841 178.358,215.701 180.667,214.000" stroke-width="4.198" stroke="black" fill="none" stroke-linecap="round" style="stroke-width:10;"></path ><path d="M 180.667,214.000 C 184.692,211.034 184.969,211.328 188.667,208.000" stroke-width="4.529" stroke="black" fill="none" stroke-linecap="round" style="stroke-width:10;"></path ><path d="M 165.333,180.667 C 170.667,187.000 170.627,187.034 176.000,193.333" stroke-width="5.151" stroke="black" fill="none" stroke-linecap="round" style="stroke-width:10;"></path ><path d="M 176.000,193.333 C 180.294,198.367 179.997,198.664 184.667,203.333" stroke-width="4.789" stroke="black" fill="none" stroke-linecap="round" style="stroke-width:10;"></path ><path d="M 184.667,203.333 C 190.664,209.331 190.347,210.708 197.333,214.667" stroke-width="3.725" stroke="black" fill="none" stroke-linecap="round" style="stroke-width:10;"></path ><path d="M 197.333,214.667 C 200.347,216.375 201.227,215.630 204.667,214.667" stroke-width="4.229" stroke="black" fill="none" stroke-linecap="round" style="stroke-width:10;"></path ><path d="M 204.667,214.667 C 209.561,213.296 210.373,213.476 214.000,210.000" stroke-width="4.321" stroke="black" fill="none" stroke-linecap="round" style="stroke-width:10;"></path ><path d="M 214.000,210.000 C 218.373,205.810 219.155,205.253 220.667,199.333" stroke-width="4.309" stroke="black" fill="none" stroke-linecap="round" style="stroke-width:10;"></path ><path d="M 220.667,199.333 C 223.155,189.587 222.427,188.909 222.000,178.667" stroke-width="4.036" stroke="black" fill="none" stroke-linecap="round" style="stroke-width:10;"></path ><path d="M 222.000,178.667 C 221.760,172.909 220.474,173.035 219.333,167.333" stroke-width="3.992" stroke="black" fill="none" stroke-linecap="round" style="stroke-width:10;"></path ><path d="M 219.333,167.333 C 218.807,164.701 219.193,164.631 218.667,162.000" stroke-width="4.438" stroke="black" fill="none" stroke-linecap="round" style="stroke-width:10;"></path ><path d="M 218.667,162.000 C 217.859,157.964 216.537,153.092 216.667,154.000" stroke-width="4.565" stroke="black" fill="none" stroke-linecap="round" style="stroke-width:10;"></path ><path d="M 216.667,154.000 C 216.870,155.425 217.590,160.442 219.333,166.667" stroke-width="5.040" stroke="black" fill="none" stroke-linecap="round" style="stroke-width:10;"></path ><path d="M 219.333,166.667 C 222.257,177.109 222.708,176.987 226.000,187.333" stroke-width="3.948" stroke="black" fill="none" stroke-linecap="round" style="stroke-width:10;"></path ><path d="M 226.000,187.333 C 227.375,191.654 227.804,191.564 228.667,196.000" stroke-width="4.129" stroke="black" fill="none" stroke-linecap="round" style="stroke-width:10;"></path ><path d="M 228.667,196.000 C 230.138,203.564 229.753,203.657 230.667,211.333" stroke-width="3.606" stroke="black" fill="none" stroke-linecap="round" style="stroke-width:10;"></path ><path d="M 230.667,211.333 C 231.419,217.657 232.561,217.717 232.000,224.000" stroke-width="3.911" stroke="black" fill="none" stroke-linecap="round" style="stroke-width:10;"></path ><path d="M 232.000,224.000 C 230.894,236.384 232.434,238.040 227.333,248.667" stroke-width="4.089" stroke="black" fill="none" stroke-linecap="round" style="stroke-width:10;"></path ><path d="M 227.333,248.667 C 224.434,254.706 222.595,255.624 216.000,257.333" stroke-width="4.273" stroke="black" fill="none" stroke-linecap="round" style="stroke-width:10;"></path ><path d="M 216.000,257.333 C 204.595,260.290 203.616,258.261 191.333,258.000" stroke-width="4.333" stroke="black" fill="none" stroke-linecap="round" style="stroke-width:10;"></path ><path d="M 191.333,258.000 C 187.949,257.928 187.945,257.549 184.667,256.667" stroke-width="4.395" stroke="black" fill="none" stroke-linecap="round" style="stroke-width:10;"></path ><path d="M 184.667,256.667 C 179.278,255.216 176.905,257.401 174.000,253.333" stroke-width="4.413" stroke="black" fill="none" stroke-linecap="round" style="stroke-width:10;"></path ></svg>