<svg xmlns="http://www.w3.org/2000/svg" xmlns:xlink="http://www.w3.org/1999/xlink" viewBox="0 0 200 200" width="200" height="200"><path d="M 61.000,26.667 C 55.000,38.333 55.219,38.451 49.000,50.000" stroke-width="4.663" stroke="black" fill="none" stroke-linecap="round" style="stroke-width:10;"></path ><path d="M 49.000,50.000 C 43.552,60.118 42.934,59.794 37.667,70.000" stroke-width="3.728" stroke="black" fill="none" stroke-linecap="round" style="stroke-width:10;"></path ><path d="M 37.667,70.000 C 32.268,80.461 28.758,90.606 27.667,91.333" stroke-width="4.042" stroke="black" fill="none" stroke-linecap="round" style="stroke-width:10;"></path ><path d="M 27.667,91.333 C 26.758,91.939 30.371,81.895 33.667,72.667" stroke-width="4.548" stroke="black" fill="none" stroke-linecap="round" style="stroke-width:10;"></path ><path d="M 33.667,72.667 C 37.038,63.228 37.543,63.410 41.000,54.000" stroke-width="3.931" stroke="black" fill="none" stroke-linecap="round" style="stroke-width:10;"></path ><path d="M 41.000,54.000 C 43.543,47.076 43.009,46.866 45.667,40.000" stroke-width="3.685" stroke="black" fill="none" stroke-linecap="round" style="stroke-width:10;"></path ><path d="M 45.667,40.000 C 47.009,36.532 47.174,36.580 49.000,33.333" stroke-width="4.140" stroke="black" fill="none" stroke-linecap="round" style="stroke-width:10;"></path ><path d="M 49.000,33.333 C 53.174,25.913 52.959,25.729 57.667,18.667" stroke-width="4.022" stroke="black" fill="none" stroke-linecap="round" style="stroke-width:10;"></path ><path d="M 57.667,18.667 C 59.625,15.729 59.351,14.044 62.333,13.333" stroke-width="4.623" stroke="black" fill="none" stroke-linecap="round" style="stroke-width:10;"></path ><path d="M 62.333,13.333 C 66.351,12.377 67.247,13.657 71.667,15.333" stroke-width="4.948" stroke="black" fill="none" stroke-linecap="round" style="stroke-width:10;"></path ><path d="M 71.667,15.333 C 76.914,17.324 76.782,17.803 81.667,20.667" stroke-width="4.309" stroke="black" fill="none" stroke-linecap="round" style="stroke-width:10;"></path ><path d="M 81.667,20.667 C 86.449,23.470 86.619,23.296 91.000,26.667" stroke-width="4.011" stroke="black" fill="none" stroke-linecap="round" style="stroke-width:10;"></path ><path d="M 91.000,26.667 C 95.285,29.963 94.836,30.530 99.000,34.000" stroke-width="3.837" stroke="black" fill="none" stroke-linecap="round" style="stroke-width:10;"></path ><path d="M 99.000,34.000 C 102.836,37.197 102.975,37.034 107.000,40.000" stroke-width="4.047" stroke="black" fill="none" stroke-linecap="round" style="stroke-width:10;"></path ><path d="M 107.000,40.000 C 109.308,41.701 109.457,41.513 111.667,43.333" stroke-width="4.481" stroke="black" fill="none" stroke-linecap="round" style="stroke-width:10;"></path ><path d="M 111.667,43.333 C 115.123,46.180 114.878,46.479 118.333,49.333" stroke-width="4.268" stroke="black" fill="none" stroke-linecap="round" style="stroke-width:10;"></path ><path d="M 118.333,49.333 C 122.545,52.813 122.771,52.540 127.000,56.000" stroke-width="4.387" stroke="black" fill="none" stroke-linecap="round" style="stroke-width:10;"></path ><path d="M 127.000,56.000 C 130.105,58.540 129.748,59.038 133.000,61.333" stroke-width="4.443" stroke="black" fill="none" stroke-linecap="round" style="stroke-width:10;"></path ><path d="M 133.000,61.333 C 135.415,63.038 135.558,62.959 138.333,64.000" stroke-width="4.849" stroke="black" fill="none" stroke-linecap="round" style="stroke-width:10;"></path ><path d="M 138.333,64.000 C 140.892,64.959 141.345,66.283 143.667,65.333" stroke-width="5.053" stroke="black" fill="none" stroke-linecap="round" style="stroke-width:10;"></path ><path d="M 143.667,65.333 C 148.679,63.283 149.501,62.619 153.000,58.000" stroke-width="4.735" stroke="black" fill="none" stroke-linecap="round" style="stroke-width:10;"></path ><path d="M 153.000,58.000 C 157.834,51.619 156.667,50.667 160.333,43.333" stroke-width="3.797" stroke="black" fill="none" stroke-linecap="round" style="stroke-width:10;"></path ><path d="M 160.333,43.333 C 164.333,35.333 163.707,34.882 168.333,27.333" stroke-width="4.168" stroke="black" fill="none" stroke-linecap="round" style="stroke-width:10;"></path ><path d="M 168.333,27.333 C 170.040,24.548 170.034,23.351 173.000,22.667" stroke-width="4.649" stroke="black" fill="none" stroke-linecap="round" style="stroke-width:10;"></path ><path d="M 173.000,22.667 C 178.701,21.351 179.492,22.211 185.667,23.333" stroke-width="4.755" stroke="black" fill="none" stroke-linecap="round" style="stroke-width:10;"></path ><path d="M 185.667,23.333 C 190.492,24.211 190.997,23.951 195.000,26.667" stroke-width="4.468" stroke="black" fill="none" stroke-linecap="round" style="stroke-width:10;"></path ><path d="M 195.000,26.667 C 200.331,30.284 199.833,31.178 204.333,36.000" stroke-width="3.846" stroke="black" fill="none" stroke-linecap="round" style="stroke-width:10;"></path ><path d="M 204.333,36.000 C 209.166,41.178 209.158,41.202 213.667,46.667" stroke-width="3.998" stroke="black" fill="none" stroke-linecap="round" style="stroke-width:10;"></path ><path d="M 213.667,46.667 C 220.158,54.535 220.088,54.600 226.333,62.667" stroke-width="3.868" stroke="black" fill="none" stroke-linecap="round" style="stroke-width:10;"></path ><path d="M 226.333,62.667 C 228.088,64.934 227.663,65.329 229.667,67.333" stroke-width="4.529" stroke="black" fill="none" stroke-linecap="round" style="stroke-width:10;"></path ><path d="M 229.667,67.333 C 231.996,69.663 231.949,70.363 235.000,71.333" stroke-width="4.665" stroke="black" fill="none" stroke-linecap="round" style="stroke-width:10;"></path ><path d="M 235.000,71.333 C 239.282,72.696 240.637,74.039 244.333,72.000" stroke-width="4.523" stroke="black" fill="none" stroke-linecap="round" style="stroke-width:10;"></path ><path d="M 244.333,72.000 C 250.304,68.706 249.966,66.781 254.333,60.667" stroke-width="4.184" stroke="black" fill="none" stroke-linecap="round" style="stroke-width:10;"></path ><path d="M 254.333,60.667 C 258.300,55.114 257.170,54.336 261.000,48.667" stroke-width="4.148" stroke="black" fill="none" stroke-linecap="round" style="stroke-width:10;"></path ><path d="M 261.000,48.667 C 265.503,42.002 265.931,42.276 271.000,36.000" stroke-width="4.125" stroke="black" fill="none" stroke-linecap="round" style="stroke-width:10;"></path ><path d="M 271.000,36.000 C 272.931,33.610 273.218,30.502 275.000,31.333" stroke-width="4.700" stroke="black" fill="none" stroke-linecap="round" style="stroke-width:10;"></path ><path d="M 275.000,31.333 C 278.218,32.835 280.002,35.346 281.000,40.667" stroke-width="4.952" stroke="black" fill="none" stroke-linecap="round" style="stroke-width:10;"></path ><path d="M 281.000,40.667 C 284.002,56.679 282.473,57.319 283.000,74.000" stroke-width="3.752" stroke="black" fill="none" stroke-linecap="round" style="stroke-width:10;"></path ><path d="M 283.000,74.000 C 283.473,88.986 283.000,89.000 283.000,104.000" stroke-width="3.544" stroke="black" fill="none" stroke-linecap="round" style="stroke-width:10;"></path ><path d="M 283.000,104.000 C 283.000,112.667 283.000,112.667 283.000,121.333" stroke-width="3.617" stroke="black" fill="none" stroke-linecap="round" style="stroke-width:10;"></path ><path d="M 283.000,121.333 C 283.000,130.667 283.306,130.676 283.000,140.000" stroke-width="3.861" stroke="black" fill="none" stroke-linecap="round" style="stroke-width:10;"></path ><path d="M 283.000,140.000 C 282.639,151.009 282.412,151.005 281.667,162.000" stroke-width="4.093" stroke="black" fill="none" stroke-linecap="round" style="stroke-width:10;"></path ><path d="M 281.667,162.000 C 281.079,170.672 281.120,170.678 280.333,179.333" stroke-width="4.118" stroke="black" fill="none" stroke-linecap="round" style="stroke-width:10;"></path ><path d="M 280.333,179.333 C 279.787,185.345 281.055,185.729 279.000,191.333" stroke-width="4.275" stroke="black" fill="none" stroke-linecap="round" style="stroke-width:10;"></path ><path d="M 279.000,191.333 C 273.722,205.729 273.933,206.498 265.667,219.333" stroke-width="3.991" stroke="black" fill="none" stroke-linecap="round" style="stroke-width:10;"></path ><path d="M 265.667,219.333 C 261.267,226.165 260.350,226.026 253.667,230.667" stroke-width="3.920" stroke="black" fill="none" stroke-linecap="round" style="stroke-width:10;"></path ><path d="M 253.667,230.667 C 248.350,234.359 248.031,235.175 241.667,236.000" stroke-width="4.169" stroke="black" fill="none" stroke-linecap="round" style="stroke-width:10;"></path ><path d="M 241.667,236.000 C 230.031,237.508 227.382,241.426 217.667,235.333" stroke-width="3.738" stroke="black" fill="none" stroke-linecap="round" style="stroke-width:10;"></path ><path d="M 217.667,235.333 C 188.049,216.760 187.487,213.152 163.000,186.667" stroke-width="3.293" stroke="black" fill="none" stroke-linecap="round" style="stroke-width:10;"></path ><path d="M 163.000,186.667 C 154.820,177.819 157.527,175.731 152.333,164.667" stroke-width="3.249" stroke="black" fill="none" stroke-linecap="round" style="stroke-width:10;"></path ><path d="M 152.333,164.667 C 149.860,159.398 149.180,159.586 147.667,154.000" stroke-width="3.458" stroke="black" fill="none" stroke-linecap="round" style="stroke-width:10;"></path ><path d="M 147.667,154.000 C 144.846,143.586 145.745,143.317 143.667,132.667" stroke-width="3.519" stroke="black" fill="none" stroke-linecap="round" style="stroke-width:10;"></path ><path d="M 143.667,132.667 C 143.078,129.651 142.660,129.713 142.333,126.667" stroke-width="4.182" stroke="black" fill="none" stroke-linecap="round" style="stroke-width:10;"></path ><path d="M 142.333,126.667 C 141.660,120.380 142.998,120.086 141.667,114.000" stroke-width="3.776" stroke="black" fill="none" stroke-linecap="round" style="stroke-width:10;"></path ><path d="M 141.667,114.000 C 140.665,109.420 141.023,108.252 137.667,105.333" stroke-width="4.393" stroke="black" fill="none" stroke-linecap="round" style="stroke-width:10;"></path ><path d="M 137.667,105.333 C 133.357,101.586 132.218,102.138 126.333,100.667" stroke-width="4.491" stroke="black" fill="none" stroke-linecap="round" style="stroke-width:10;"></path ><path d="M 126.333,100.667 C 120.218,99.138 119.912,98.752 113.667,99.333" stroke-width="4.001" stroke="black" fill="none" stroke-linecap="round" style="stroke-width:10;"></path ><path d="M 113.667,99.333 C 105.579,100.086 105.135,100.132 97.667,103.333" stroke-width="3.592" stroke="black" fill="none" stroke-linecap="round" style="stroke-width:10;"></path ><path d="M 97.667,103.333 C 91.135,106.132 91.510,107.126 85.667,111.333" stroke-width="3.734" stroke="black" fill="none" stroke-linecap="round" style="stroke-width:10;"></path ><path d="M 85.667,111.333 C 83.176,113.126 82.634,112.820 81.000,115.333" stroke-width="4.343" stroke="black" fill="none" stroke-linecap="round" style="stroke-width:10;"></path ><path d="M 81.000,115.333 C 78.301,119.486 78.478,119.830 77.000,124.667" stroke-width="4.161" stroke="black" fill="none" stroke-linecap="round" style="stroke-width:10;"></path ><path d="M 77.000,124.667 C 74.811,131.830 74.530,131.910 73.667,139.333" stroke-width="3.724" stroke="black" fill="none" stroke-linecap="round" style="stroke-width:10;"></path ><path d="M 73.667,139.333 C 72.863,146.243 72.748,146.446 73.667,153.333" stroke-width="3.925" stroke="black" fill="none" stroke-linecap="round" style="stroke-width:10;"></path ><path d="M 73.667,153.333 C 74.748,161.446 74.185,162.039 77.667,169.333" stroke-width="4.022" stroke="black" fill="none" stroke-linecap="round" style="stroke-width:10;"></path ><path d="M 77.667,169.333 C 81.185,176.705 82.697,175.977 87.667,182.667" stroke-width="3.846" stroke="black" fill="none" stroke-linecap="round" style="stroke-width:10;"></path ><path d="M 87.667,182.667 C 91.364,187.644 91.723,187.423 95.000,192.667" stroke-width="4.076" stroke="black" fill="none" stroke-linecap="round" style="stroke-width:10;"></path ><path d="M 95.000,192.667 C 98.389,198.089 98.667,198.078 101.000,204.000" stroke-width="4.008" stroke="black" fill="none" stroke-linecap="round" style="stroke-width:10;"></path ><path d="M 101.000,204.000 C 103.000,209.078 102.333,209.333 103.667,214.667" stroke-width="3.902" stroke="black" fill="none" stroke-linecap="round" style="stroke-width:10;"></path ><path d="M 103.667,214.667 C 104.667,218.667 105.667,218.705 105.667,222.667" stroke-width="4.319" stroke="black" fill="none" stroke-linecap="round" style="stroke-width:10;"></path ><path d="M 105.667,222.667 C 105.667,225.705 104.909,225.767 103.667,228.667" stroke-width="4.543" stroke="black" fill="none" stroke-linecap="round" style="stroke-width:10;"></path ><path d="M 103.667,228.667 C 101.909,232.767 102.705,233.520 99.667,236.667" stroke-width="4.286" stroke="black" fill="none" stroke-linecap="round" style="stroke-width:10;"></path ><path d="M 99.667,236.667 C 93.371,243.187 92.741,243.074 85.000,248.000" stroke-width="3.894" stroke="black" fill="none" stroke-linecap="round" style="stroke-width:10;"></path ><path d="M 85.000,248.000 C 81.741,250.074 81.473,250.429 77.667,250.667" stroke-width="4.276" stroke="black" fill="none" stroke-linecap="round" style="stroke-width:10;"></path ><path d="M 77.667,250.667 C 70.806,251.095 70.406,251.138 63.667,249.333" stroke-width="3.779" stroke="black" fill="none" stroke-linecap="round" style="stroke-width:10;"></path ><path d="M 63.667,249.333 C 51.739,246.138 50.917,246.620 40.333,240.667" stroke-width="3.707" stroke="black" fill="none" stroke-linecap="round" style="stroke-width:10;"></path ><path d="M 40.333,240.667 C 34.917,237.620 34.554,236.867 31.667,231.333" stroke-width="4.010" stroke="black" fill="none" stroke-linecap="round" style="stroke-width:10;"></path ><path d="M 31.667,231.333 C 26.554,221.533 27.161,220.838 24.333,210.000" stroke-width="3.378" stroke="black" fill="none" stroke-linecap="round" style="stroke-width:10;"></path ><path d="M 24.333,210.000 C 23.161,205.505 23.547,205.331 23.667,200.667" stroke-width="3.757" stroke="black" fill="none" stroke-linecap="round" style="stroke-width:10;"></path ><path d="M 23.667,200.667 C 23.880,192.331 23.498,192.180 25.000,184.000" stroke-width="3.654" stroke="black" fill="none" stroke-linecap="round" style="stroke-width:10;"></path ><path d="M 25.000,184.000 C 26.498,175.846 26.675,175.742 29.667,168.000" stroke-width="3.596" stroke="black" fill="none" stroke-linecap="round" style="stroke-width:10;"></path ><path d="M 29.667,168.000 C 32.342,161.075 33.055,161.360 36.333,154.667" stroke-width="3.876" stroke="black" fill="none" stroke-linecap="round" style="stroke-width:10;"></path ><path d="M 36.333,154.667 C 41.055,145.027 41.328,145.143 45.667,135.333" stroke-width="3.595" stroke="black" fill="none" stroke-linecap="round" style="stroke-width:10;"></path ><path d="M 45.667,135.333 C 48.994,127.810 48.094,127.400 51.667,120.000" stroke-width="3.704" stroke="black" fill="none" stroke-linecap="round" style="stroke-width:10;"></path ></svg>