<svg xmlns="http://www.w3.org/2000/svg" xmlns:xlink="http://www.w3.org/1999/xlink" viewBox="0 0 200 200" width="200" height="200"><path d="M 87.500,100.000 C 92.500,97.000 92.229,96.447 97.500,94.000" stroke-width="5.223" stroke="black" fill="none" stroke-linecap="round"></path><path d="M 97.500,94.000 C 106.229,89.947 106.330,90.011 115.500,87.000" stroke-width="3.546" stroke="black" fill="none" stroke-linecap="round"></path><path d="M 115.500,87.000 C 139.830,79.011 143.599,74.090 164.500,72.000" stroke-width="3.509" stroke="black" fill="none" stroke-linecap="round"></path><path d="M 164.500,72.000 C 168.599,71.590 165.291,76.985 165.500,82.000" stroke-width="4.667" stroke="black" fill="none" stroke-linecap="round"></path><path d="M 165.500,82.000 C 165.791,88.985 165.500,89.000 165.500,96.000" stroke-width="3.827" stroke="black" fill="none" stroke-linecap="round"></path><path d="M 165.500,96.000 C 165.500,109.000 165.500,109.000 165.500,122.000" stroke-width="3.219" stroke="black" fill="none" stroke-linecap="round"></path><path d="M 165.500,122.000 C 165.500,133.500 165.500,133.500 165.500,145.000" stroke-width="3.285" stroke="black" fill="none" stroke-linecap="round"></path><path d="M 165.500,145.000 C 165.500,147.500 165.123,147.546 165.500,150.000" stroke-width="4.138" stroke="black" fill="none" stroke-linecap="round"></path><path d="M 165.500,150.000 C 166.123,154.046 166.823,153.940 167.500,158.000" stroke-width="4.230" stroke="black" fill="none" stroke-linecap="round"></path><path d="M 167.500,158.000 C 168.823,165.940 167.734,166.232 169.500,174.000" stroke-width="3.538" stroke="black" fill="none" stroke-linecap="round"></path><path d="M 169.500,174.000 C 170.234,177.232 171.095,176.956 172.500,180.000" stroke-width="4.073" stroke="black" fill="none" stroke-linecap="round"></path><path d="M 172.500,180.000 C 174.095,183.456 173.801,183.602 175.500,187.000" stroke-width="4.146" stroke="black" fill="none" stroke-linecap="round"></path><path d="M 175.500,187.000 C 176.801,189.602 176.832,189.617 178.500,192.000" stroke-width="4.948" stroke="black" fill="none" stroke-linecap="round"></path><path d="M 178.500,192.000 C 180.332,194.617 180.376,194.611 182.500,197.000" stroke-width="5.068" stroke="black" fill="none" stroke-linecap="round"></path><path d="M 182.500,197.000 C 184.376,199.111 184.167,199.445 186.500,201.000" stroke-width="5.238" stroke="black" fill="none" stroke-linecap="round"></path><path d="M 186.500,201.000 C 191.667,204.445 191.741,204.644 197.500,207.000" stroke-width="4.878" stroke="black" fill="none" stroke-linecap="round"></path><path d="M 197.500,207.000 C 202.741,209.144 203.033,208.392 208.500,210.000" stroke-width="4.038" stroke="black" fill="none" stroke-linecap="round"></path><path d="M 208.500,210.000 C 211.533,210.892 211.455,211.170 214.500,212.000" stroke-width="4.648" stroke="black" fill="none" stroke-linecap="round"></path><circle r="1.5" cx="175.5" cy="130" fill="black"></circle><circle r="1.5" cx="183.5" cy="126" fill="black"></circle><path d="M 211.500,114.000 C 203.500,118.000 203.324,117.683 195.500,122.000" stroke-width="5.120" stroke="black" fill="none" stroke-linecap="round"></path><path d="M 195.500,122.000 C 188.824,125.683 189.198,126.372 182.500,130.000" stroke-width="4.241" stroke="black" fill="none" stroke-linecap="round"></path><path d="M 182.500,130.000 C 177.198,132.872 176.954,132.403 171.500,135.000" stroke-width="3.699" stroke="black" fill="none" stroke-linecap="round"></path><path d="M 171.500,135.000 C 166.454,137.403 166.630,137.802 161.500,140.000" stroke-width="3.828" stroke="black" fill="none" stroke-linecap="round"></path><path d="M 161.500,140.000 C 156.130,142.302 155.979,141.945 150.500,144.000" stroke-width="3.717" stroke="black" fill="none" stroke-linecap="round"></path><path d="M 150.500,144.000 C 143.979,146.445 144.100,146.800 137.500,149.000" stroke-width="3.679" stroke="black" fill="none" stroke-linecap="round"></path><path d="M 137.500,149.000 C 130.600,151.300 130.457,150.860 123.500,153.000" stroke-width="3.512" stroke="black" fill="none" stroke-linecap="round"></path><path d="M 123.500,153.000 C 117.457,154.860 117.358,154.657 111.500,157.000" stroke-width="3.465" stroke="black" fill="none" stroke-linecap="round"></path><path d="M 111.500,157.000 C 107.358,158.657 107.621,159.272 103.500,161.000" stroke-width="3.665" stroke="black" fill="none" stroke-linecap="round"></path><path d="M 103.500,161.000 C 92.121,165.772 91.990,165.474 80.500,170.000" stroke-width="3.370" stroke="black" fill="none" stroke-linecap="round"></path><path d="M 80.500,170.000 C 75.490,171.974 75.500,172.000 70.500,174.000" stroke-width="3.565" stroke="black" fill="none" stroke-linecap="round"></path></svg>