<svg xmlns="http://www.w3.org/2000/svg" xmlns:xlink="http://www.w3.org/1999/xlink" viewBox="0 0 200 200" width="200" height="200"><path d="M 115.500,74.000 C 111.500,80.667 111.449,80.637 107.500,87.333" stroke-width="5.260" stroke="black" fill="none" stroke-linecap="round"></path><path d="M 107.500,87.333 C 103.783,93.637 103.516,93.510 100.167,100.000" stroke-width="4.225" stroke="black" fill="none" stroke-linecap="round"></path><path d="M 100.167,100.000 C 98.183,103.843 98.515,104.006 96.833,108.000" stroke-width="4.052" stroke="black" fill="none" stroke-linecap="round"></path><path d="M 96.833,108.000 C 95.848,110.340 95.823,110.329 94.833,112.667" stroke-width="4.346" stroke="black" fill="none" stroke-linecap="round"></path><path d="M 94.833,112.667 C 92.156,118.995 92.052,118.954 89.500,125.333" stroke-width="3.466" stroke="black" fill="none" stroke-linecap="round"></path><path d="M 89.500,125.333 C 87.385,130.621 87.765,130.791 85.500,136.000" stroke-width="3.895" stroke="black" fill="none" stroke-linecap="round"></path><path d="M 85.500,136.000 C 84.431,138.458 84.257,138.389 82.833,140.667" stroke-width="4.111" stroke="black" fill="none" stroke-linecap="round"></path><path d="M 82.833,140.667 C 80.924,143.722 80.833,143.667 78.833,146.667" stroke-width="4.537" stroke="black" fill="none" stroke-linecap="round"></path><path d="M 78.833,146.667 C 76.833,149.667 76.594,149.537 74.833,152.667" stroke-width="4.779" stroke="black" fill="none" stroke-linecap="round"></path><path d="M 74.833,152.667 C 73.594,154.870 72.536,155.100 72.833,157.333" stroke-width="4.846" stroke="black" fill="none" stroke-linecap="round"></path><path d="M 72.833,157.333 C 73.202,160.100 73.942,160.613 76.167,162.667" stroke-width="5.146" stroke="black" fill="none" stroke-linecap="round"></path><path d="M 76.167,162.667 C 78.276,164.613 78.799,164.073 81.500,165.333" stroke-width="4.873" stroke="black" fill="none" stroke-linecap="round"></path><path d="M 81.500,165.333 C 83.799,166.406 83.900,166.200 86.167,167.333" stroke-width="4.481" stroke="black" fill="none" stroke-linecap="round"></path><path d="M 86.167,167.333 C 88.566,168.533 88.500,168.667 90.833,170.000" stroke-width="4.288" stroke="black" fill="none" stroke-linecap="round"></path><path d="M 90.833,170.000 C 95.500,172.667 95.500,172.667 100.167,175.333" stroke-width="4.318" stroke="black" fill="none" stroke-linecap="round"></path><path d="M 100.167,175.333 C 102.500,176.667 102.508,176.654 104.833,178.000" stroke-width="4.509" stroke="black" fill="none" stroke-linecap="round"></path><path d="M 104.833,178.000 C 108.841,180.320 108.863,180.284 112.833,182.667" stroke-width="4.534" stroke="black" fill="none" stroke-linecap="round"></path><path d="M 112.833,182.667 C 115.530,184.284 115.573,184.225 118.167,186.000" stroke-width="4.696" stroke="black" fill="none" stroke-linecap="round"></path><path d="M 118.167,186.000 C 121.906,188.559 121.811,188.698 125.500,191.333" stroke-width="4.633" stroke="black" fill="none" stroke-linecap="round"></path><path d="M 125.500,191.333 C 128.811,193.698 128.978,193.483 132.167,196.000" stroke-width="4.584" stroke="black" fill="none" stroke-linecap="round"></path><path d="M 132.167,196.000 C 135.312,198.483 135.146,198.690 138.167,201.333" stroke-width="4.561" stroke="black" fill="none" stroke-linecap="round"></path><path d="M 138.167,201.333 C 140.479,203.357 140.419,203.437 142.833,205.333" stroke-width="4.905" stroke="black" fill="none" stroke-linecap="round"></path><path d="M 142.833,82.000 C 141.500,92.333 141.428,92.325 140.167,102.667" stroke-width="5.232" stroke="black" fill="none" stroke-linecap="round"></path><path d="M 140.167,102.667 C 139.761,105.992 139.899,106.008 139.500,109.333" stroke-width="4.431" stroke="black" fill="none" stroke-linecap="round"></path><path d="M 139.500,109.333 C 138.899,114.341 138.652,114.316 138.167,119.333" stroke-width="4.405" stroke="black" fill="none" stroke-linecap="round"></path><path d="M 138.167,119.333 C 137.652,124.649 138.135,124.709 137.500,130.000" stroke-width="4.295" stroke="black" fill="none" stroke-linecap="round"></path><path d="M 137.500,130.000 C 137.135,133.043 136.948,133.030 136.167,136.000" stroke-width="4.675" stroke="black" fill="none" stroke-linecap="round"></path><path d="M 136.167,136.000 C 135.282,139.363 135.082,139.310 134.167,142.667" stroke-width="4.687" stroke="black" fill="none" stroke-linecap="round"></path><path d="M 134.167,142.667 C 133.082,146.643 133.405,146.747 132.167,150.667" stroke-width="4.609" stroke="black" fill="none" stroke-linecap="round"></path><path d="M 132.167,150.667 C 131.405,153.080 131.167,153.000 130.167,155.333" stroke-width="4.411" stroke="black" fill="none" stroke-linecap="round"></path><path d="M 130.167,155.333 C 128.167,160.000 128.581,160.240 126.167,164.667" stroke-width="4.355" stroke="black" fill="none" stroke-linecap="round"></path><path d="M 126.167,164.667 C 124.581,167.573 124.013,167.230 122.167,170.000" stroke-width="4.622" stroke="black" fill="none" stroke-linecap="round"></path><path d="M 122.167,170.000 C 120.013,173.230 120.510,173.602 118.167,176.667" stroke-width="4.847" stroke="black" fill="none" stroke-linecap="round"></path><path d="M 118.167,176.667 C 116.177,179.268 115.916,179.090 113.500,181.333" stroke-width="4.717" stroke="black" fill="none" stroke-linecap="round"></path><path d="M 113.500,181.333 C 111.250,183.423 111.344,183.576 108.833,185.333" stroke-width="4.734" stroke="black" fill="none" stroke-linecap="round"></path><path d="M 108.833,185.333 C 104.677,188.243 104.624,188.235 100.167,190.667" stroke-width="4.443" stroke="black" fill="none" stroke-linecap="round"></path><path d="M 100.167,190.667 C 97.291,192.235 97.130,191.922 94.167,193.333" stroke-width="4.645" stroke="black" fill="none" stroke-linecap="round"></path><path d="M 94.167,193.333 C 90.130,195.256 90.421,196.137 86.167,197.333" stroke-width="4.489" stroke="black" fill="none" stroke-linecap="round"></path><path d="M 86.167,197.333 C 79.754,199.137 79.526,198.686 72.833,199.333" stroke-width="4.551" stroke="black" fill="none" stroke-linecap="round"></path><path d="M 72.833,199.333 C 69.193,199.686 69.155,199.526 65.500,199.333" stroke-width="4.703" stroke="black" fill="none" stroke-linecap="round"></path><path d="M 65.500,199.333 C 62.821,199.192 62.810,199.133 60.167,198.667" stroke-width="4.695" stroke="black" fill="none" stroke-linecap="round"></path><path d="M 53.500,123.333 C 62.167,123.000 62.177,122.667 70.833,122.667" stroke-width="5.214" stroke="black" fill="none" stroke-linecap="round"></path><path d="M 70.833,122.667 C 74.177,122.667 74.163,123.043 77.500,123.333" stroke-width="4.859" stroke="black" fill="none" stroke-linecap="round"></path><path d="M 77.500,123.333 C 81.830,123.710 81.864,123.426 86.167,124.000" stroke-width="3.940" stroke="black" fill="none" stroke-linecap="round"></path><path d="M 86.167,124.000 C 91.864,124.760 91.806,125.215 97.500,126.000" stroke-width="4.099" stroke="black" fill="none" stroke-linecap="round"></path><path d="M 97.500,126.000 C 101.472,126.548 101.494,126.485 105.500,126.667" stroke-width="3.845" stroke="black" fill="none" stroke-linecap="round"></path><path d="M 105.500,126.667 C 108.827,126.818 108.837,126.543 112.167,126.667" stroke-width="4.099" stroke="black" fill="none" stroke-linecap="round"></path><path d="M 112.167,126.667 C 117.837,126.877 117.842,127.333 123.500,127.333" stroke-width="4.259" stroke="black" fill="none" stroke-linecap="round"></path><path d="M 123.500,127.333 C 126.509,127.333 126.490,126.817 129.500,126.667" stroke-width="4.226" stroke="black" fill="none" stroke-linecap="round"></path><path d="M 129.500,126.667 C 133.157,126.484 133.167,126.667 136.833,126.667" stroke-width="4.186" stroke="black" fill="none" stroke-linecap="round"></path><path d="M 136.833,126.667 C 141.500,126.667 141.533,127.037 146.167,126.667" stroke-width="4.343" stroke="black" fill="none" stroke-linecap="round"></path><path d="M 146.167,126.667 C 149.867,126.371 149.817,125.518 153.500,125.333" stroke-width="4.773" stroke="black" fill="none" stroke-linecap="round"></path><path d="M 153.500,125.333 C 156.483,125.184 156.527,126.165 159.500,126.000" stroke-width="4.988" stroke="black" fill="none" stroke-linecap="round"></path><path d="M 159.500,126.000 C 162.527,125.832 162.477,124.845 165.500,124.667" stroke-width="5.003" stroke="black" fill="none" stroke-linecap="round"></path><path d="M 169.500,83.333 C 181.167,84.000 181.162,84.180 192.833,84.667" stroke-width="5.291" stroke="black" fill="none" stroke-linecap="round"></path><path d="M 192.833,84.667 C 197.162,84.847 197.167,84.667 201.500,84.667" stroke-width="4.805" stroke="black" fill="none" stroke-linecap="round"></path><path d="M 201.500,84.667 C 206.167,84.667 206.180,84.878 210.833,84.667" stroke-width="4.647" stroke="black" fill="none" stroke-linecap="round"></path><path d="M 210.833,84.667 C 213.513,84.545 213.490,84.167 216.167,84.000" stroke-width="4.948" stroke="black" fill="none" stroke-linecap="round"></path><path d="M 216.167,84.000 C 218.823,83.834 218.833,84.000 221.500,84.000" stroke-width="5.067" stroke="black" fill="none" stroke-linecap="round"></path><path d="M 221.500,84.000 C 224.167,84.000 226.236,82.655 226.833,84.000" stroke-width="5.228" stroke="black" fill="none" stroke-linecap="round"></path><path d="M 226.833,84.000 C 227.569,85.655 226.090,87.435 224.167,90.000" stroke-width="5.395" stroke="black" fill="none" stroke-linecap="round"></path><path d="M 224.167,90.000 C 222.090,92.768 221.597,92.456 218.833,94.667" stroke-width="5.067" stroke="black" fill="none" stroke-linecap="round"></path><path d="M 218.833,94.667 C 216.597,96.456 216.377,96.180 214.167,98.000" stroke-width="4.901" stroke="black" fill="none" stroke-linecap="round"></path><path d="M 214.167,98.000 C 210.710,100.847 210.874,101.047 207.500,104.000" stroke-width="4.838" stroke="black" fill="none" stroke-linecap="round"></path><path d="M 207.500,104.000 C 205.541,105.714 205.597,105.796 203.500,107.333" stroke-width="4.891" stroke="black" fill="none" stroke-linecap="round"></path><path d="M 203.500,107.333 C 200.597,109.463 200.556,109.424 197.500,111.333" stroke-width="4.917" stroke="black" fill="none" stroke-linecap="round"></path><path d="M 197.500,111.333 C 195.222,112.757 192.996,112.376 192.833,114.000" stroke-width="5.182" stroke="black" fill="none" stroke-linecap="round"></path><path d="M 192.833,114.000 C 192.662,115.709 194.924,115.917 196.833,118.000" stroke-width="5.405" stroke="black" fill="none" stroke-linecap="round"></path><path d="M 196.833,118.000 C 198.591,119.917 198.696,119.861 200.167,122.000" stroke-width="5.184" stroke="black" fill="none" stroke-linecap="round"></path><path d="M 200.167,122.000 C 202.363,125.194 202.238,125.292 204.167,128.667" stroke-width="4.797" stroke="black" fill="none" stroke-linecap="round"></path><path d="M 204.167,128.667 C 206.238,132.292 206.443,132.208 208.167,136.000" stroke-width="4.649" stroke="black" fill="none" stroke-linecap="round"></path><path d="M 208.167,136.000 C 209.777,139.542 209.445,139.688 210.833,143.333" stroke-width="4.390" stroke="black" fill="none" stroke-linecap="round"></path><path d="M 210.833,143.333 C 212.111,146.688 212.274,146.628 213.500,150.000" stroke-width="4.580" stroke="black" fill="none" stroke-linecap="round"></path><path d="M 213.500,150.000 C 214.940,153.961 215.105,153.930 216.167,158.000" stroke-width="4.800" stroke="black" fill="none" stroke-linecap="round"></path><path d="M 216.167,158.000 C 217.105,161.597 216.733,161.688 217.500,165.333" stroke-width="4.731" stroke="black" fill="none" stroke-linecap="round"></path><path d="M 217.500,165.333 C 218.066,168.022 218.328,167.970 218.833,170.667" stroke-width="4.834" stroke="black" fill="none" stroke-linecap="round"></path><path d="M 218.833,170.667 C 219.328,173.303 219.500,173.331 219.500,176.000" stroke-width="4.888" stroke="black" fill="none" stroke-linecap="round"></path><path d="M 219.500,176.000 C 219.500,178.998 219.167,179.000 218.833,182.000" stroke-width="4.979" stroke="black" fill="none" stroke-linecap="round"></path><path d="M 218.833,182.000 C 218.500,185.000 218.500,185.000 218.167,188.000" stroke-width="5.021" stroke="black" fill="none" stroke-linecap="round"></path><path d="M 218.167,188.000 C 217.833,191.000 218.186,191.084 217.500,194.000" stroke-width="5.054" stroke="black" fill="none" stroke-linecap="round"></path><path d="M 217.500,194.000 C 216.853,196.751 216.701,196.761 215.500,199.333" stroke-width="5.078" stroke="black" fill="none" stroke-linecap="round"></path><path d="M 215.500,199.333 C 214.367,201.761 214.457,201.889 212.833,204.000" stroke-width="5.092" stroke="black" fill="none" stroke-linecap="round"></path><path d="M 212.833,204.000 C 211.124,206.222 211.260,207.029 208.833,208.000" stroke-width="5.174" stroke="black" fill="none" stroke-linecap="round"></path><path d="M 208.833,208.000 C 206.260,209.029 205.332,209.071 202.833,208.000" stroke-width="5.320" stroke="black" fill="none" stroke-linecap="round"></path><path d="M 202.833,208.000 C 200.665,207.071 201.400,205.754 199.500,204.000" stroke-width="5.180" stroke="black" fill="none" stroke-linecap="round"></path><path d="M 199.500,204.000 C 197.067,201.754 196.590,202.262 194.167,200.000" stroke-width="4.819" stroke="black" fill="none" stroke-linecap="round"></path><path d="M 194.167,200.000 C 191.590,197.595 191.910,197.262 189.500,194.667" stroke-width="4.885" stroke="black" fill="none" stroke-linecap="round"></path><path d="M 189.500,194.667 C 187.576,192.595 187.409,192.750 185.500,190.667" stroke-width="5.009" stroke="black" fill="none" stroke-linecap="round"></path><path d="M 164.833,157.333 C 173.833,155.333 173.933,155.676 182.833,153.333" stroke-width="5.372" stroke="black" fill="none" stroke-linecap="round"></path><path d="M 182.833,153.333 C 186.600,152.342 186.426,151.735 190.167,150.667" stroke-width="4.858" stroke="black" fill="none" stroke-linecap="round"></path><path d="M 190.167,150.667 C 193.426,149.735 193.507,150.034 196.833,149.333" stroke-width="4.737" stroke="black" fill="none" stroke-linecap="round"></path><path d="M 196.833,149.333 C 199.840,148.700 199.826,148.633 202.833,148.000" stroke-width="4.343" stroke="black" fill="none" stroke-linecap="round"></path><path d="M 202.833,148.000 C 206.160,147.300 206.219,147.530 209.500,146.667" stroke-width="4.579" stroke="black" fill="none" stroke-linecap="round"></path><path d="M 209.500,146.667 C 212.552,145.863 212.500,145.667 215.500,144.667" stroke-width="4.869" stroke="black" fill="none" stroke-linecap="round"></path><path d="M 215.500,144.667 C 218.500,143.667 218.437,143.387 221.500,142.667" stroke-width="4.947" stroke="black" fill="none" stroke-linecap="round"></path><path d="M 221.500,142.667 C 224.103,142.054 224.190,142.467 226.833,142.000" stroke-width="4.910" stroke="black" fill="none" stroke-linecap="round"></path><path d="M 226.833,142.000 C 229.856,141.467 229.826,141.300 232.833,140.667" stroke-width="4.971" stroke="black" fill="none" stroke-linecap="round"></path><path d="M 232.833,140.667 C 236.160,139.966 236.183,140.071 239.500,139.333" stroke-width="5.152" stroke="black" fill="none" stroke-linecap="round"></path></svg>