<svg xmlns="http://www.w3.org/2000/svg" xmlns:xlink="http://www.w3.org/1999/xlink" viewBox="0 0 200 200" width="200" height="200"><path d="M 99.667,107.333 C 115.000,104.000 114.968,102.374 130.333,100.667" stroke-width="1.125" stroke="black" fill="none" stroke-linecap="round" style="stroke-width:10;"></path ><path d="M 130.333,100.667 C 135.968,100.041 136.458,100.453 141.667,102.667" stroke-width="2.213" stroke="black" fill="none" stroke-linecap="round" style="stroke-width:10;"></path ><path d="M 141.667,102.667 C 149.791,106.120 149.576,106.984 157.000,112.000" stroke-width="3.310" stroke="black" fill="none" stroke-linecap="round" style="stroke-width:10;"></path ><path d="M 157.000,112.000 C 161.909,115.317 163.955,114.088 166.333,119.333" stroke-width="3.848" stroke="black" fill="none" stroke-linecap="round" style="stroke-width:10;"></path ><path d="M 166.333,119.333 C 175.289,139.088 174.324,140.628 179.667,162.000" stroke-width="4.095" stroke="black" fill="none" stroke-linecap="round" style="stroke-width:10;"></path ><path d="M 179.667,162.000 C 180.324,164.628 179.324,164.786 178.333,167.333" stroke-width="4.279" stroke="black" fill="none" stroke-linecap="round" style="stroke-width:10;"></path ><path d="M 178.333,167.333 C 176.990,170.786 176.847,170.769 175.000,174.000" stroke-width="4.224" stroke="black" fill="none" stroke-linecap="round" style="stroke-width:10;"></path ><path d="M 175.000,174.000 C 172.847,177.769 173.408,178.405 170.333,181.333" stroke-width="4.556" stroke="black" fill="none" stroke-linecap="round" style="stroke-width:10;"></path ><path d="M 170.333,181.333 C 166.408,185.072 165.900,184.793 161.000,187.333" stroke-width="4.284" stroke="black" fill="none" stroke-linecap="round" style="stroke-width:10;"></path ><path d="M 161.000,187.333 C 156.900,189.459 156.803,189.735 152.333,190.667" stroke-width="4.615" stroke="black" fill="none" stroke-linecap="round" style="stroke-width:10;"></path ><path d="M 152.333,190.667 C 148.803,191.402 148.580,191.204 145.000,190.667" stroke-width="4.568" stroke="black" fill="none" stroke-linecap="round" style="stroke-width:10;"></path ><path d="M 145.000,190.667 C 141.913,190.204 141.610,190.298 139.000,188.667" stroke-width="4.640" stroke="black" fill="none" stroke-linecap="round" style="stroke-width:10;"></path ><path d="M 139.000,188.667 C 136.277,186.965 135.726,186.785 134.333,184.000" stroke-width="4.556" stroke="black" fill="none" stroke-linecap="round" style="stroke-width:10;"></path ><path d="M 134.333,184.000 C 133.059,181.452 133.667,181.009 133.667,178.000" stroke-width="4.693" stroke="black" fill="none" stroke-linecap="round" style="stroke-width:10;"></path ><path d="M 133.667,178.000 C 133.667,172.342 133.353,172.221 134.333,166.667" stroke-width="3.861" stroke="black" fill="none" stroke-linecap="round" style="stroke-width:10;"></path ><path d="M 134.333,166.667 C 135.353,160.887 136.132,161.034 137.667,155.333" stroke-width="4.007" stroke="black" fill="none" stroke-linecap="round" style="stroke-width:10;"></path ><path d="M 137.667,155.333 C 138.465,152.367 138.031,152.241 139.000,149.333" stroke-width="4.300" stroke="black" fill="none" stroke-linecap="round" style="stroke-width:10;"></path ><path d="M 139.000,149.333 C 141.031,143.241 140.881,143.104 143.667,137.333" stroke-width="3.871" stroke="black" fill="none" stroke-linecap="round" style="stroke-width:10;"></path ><path d="M 143.667,137.333 C 145.547,133.437 145.708,133.445 148.333,130.000" stroke-width="4.180" stroke="black" fill="none" stroke-linecap="round" style="stroke-width:10;"></path ><path d="M 148.333,130.000 C 151.042,126.445 151.550,126.843 154.333,123.333" stroke-width="4.306" stroke="black" fill="none" stroke-linecap="round" style="stroke-width:10;"></path ><path d="M 154.333,123.333 C 159.216,117.176 158.098,116.066 163.667,110.667" stroke-width="4.071" stroke="black" fill="none" stroke-linecap="round" style="stroke-width:10;"></path ><path d="M 163.667,110.667 C 169.098,105.400 169.901,106.181 176.333,102.000" stroke-width="4.105" stroke="black" fill="none" stroke-linecap="round" style="stroke-width:10;"></path ><path d="M 176.333,102.000 C 183.234,97.514 183.352,97.697 190.333,93.333" stroke-width="3.977" stroke="black" fill="none" stroke-linecap="round" style="stroke-width:10;"></path ><path d="M 190.333,93.333 C 194.019,91.030 193.981,90.970 197.667,88.667" stroke-width="4.279" stroke="black" fill="none" stroke-linecap="round" style="stroke-width:10;"></path ><path d="M 197.667,88.667 C 201.981,85.970 202.007,86.012 206.333,83.333" stroke-width="4.111" stroke="black" fill="none" stroke-linecap="round" style="stroke-width:10;"></path ><path d="M 206.333,83.333 C 209.007,81.678 208.886,81.456 211.667,80.000" stroke-width="4.347" stroke="black" fill="none" stroke-linecap="round" style="stroke-width:10;"></path ><path d="M 211.667,80.000 C 215.886,77.790 215.923,77.804 220.333,76.000" stroke-width="4.266" stroke="black" fill="none" stroke-linecap="round" style="stroke-width:10;"></path ></svg>