<svg xmlns="http://www.w3.org/2000/svg" xmlns:xlink="http://www.w3.org/1999/xlink" viewBox="0 0 200 200" width="200" height="200"><path d="M 99.000,74.167 C 95.000,81.833 95.006,81.836 91.000,89.500" stroke-width="3.113" stroke="black" fill="none" stroke-linecap="round"></path><path d="M 91.000,89.500 C 87.339,96.503 87.403,96.537 83.667,103.500" stroke-width="3.650" stroke="black" fill="none" stroke-linecap="round"></path><path d="M 83.667,103.500 C 80.069,110.204 80.648,110.620 76.333,116.833" stroke-width="4.148" stroke="black" fill="none" stroke-linecap="round"></path><path d="M 76.333,116.833 C 72.315,122.620 71.627,122.133 67.000,127.500" stroke-width="4.381" stroke="black" fill="none" stroke-linecap="round"></path><path d="M 67.000,127.500 C 63.294,131.799 63.060,131.642 59.667,136.167" stroke-width="4.659" stroke="black" fill="none" stroke-linecap="round"></path><path d="M 59.667,136.167 C 58.060,138.309 58.200,138.433 57.000,140.833" stroke-width="4.958" stroke="black" fill="none" stroke-linecap="round"></path><path d="M 57.000,140.833 C 55.534,143.766 55.422,143.749 54.333,146.833" stroke-width="4.942" stroke="black" fill="none" stroke-linecap="round"></path><path d="M 105.000,75.500 C 112.000,86.833 112.074,86.789 119.000,98.167" stroke-width="5.187" stroke="black" fill="none" stroke-linecap="round"></path><path d="M 119.000,98.167 C 121.408,102.122 121.514,102.076 123.667,106.167" stroke-width="4.685" stroke="black" fill="none" stroke-linecap="round"></path><path d="M 123.667,106.167 C 124.847,108.409 124.476,108.600 125.667,110.833" stroke-width="4.756" stroke="black" fill="none" stroke-linecap="round"></path><path d="M 125.667,110.833 C 127.142,113.600 127.670,113.341 129.000,116.167" stroke-width="4.840" stroke="black" fill="none" stroke-linecap="round"></path><path d="M 129.000,116.167 C 130.337,119.008 130.092,119.139 131.000,122.167" stroke-width="5.059" stroke="black" fill="none" stroke-linecap="round"></path><path d="M 131.000,122.167 C 132.092,125.806 132.078,125.814 133.000,129.500" stroke-width="5.054" stroke="black" fill="none" stroke-linecap="round"></path><path d="M 133.000,129.500 C 134.078,133.814 134.271,133.790 135.000,138.167" stroke-width="4.959" stroke="black" fill="none" stroke-linecap="round"></path><path d="M 135.000,138.167 C 135.604,141.790 135.191,141.852 135.667,145.500" stroke-width="5.013" stroke="black" fill="none" stroke-linecap="round"></path><path d="M 135.667,145.500 C 136.191,149.518 136.021,149.584 137.000,153.500" stroke-width="5.005" stroke="black" fill="none" stroke-linecap="round"></path><path d="M 53.667,118.167 C 62.000,118.167 62.005,118.356 70.333,118.167" stroke-width="5.262" stroke="black" fill="none" stroke-linecap="round"></path><path d="M 70.333,118.167 C 76.672,118.023 76.664,117.726 83.000,117.500" stroke-width="4.618" stroke="black" fill="none" stroke-linecap="round"></path><path d="M 83.000,117.500 C 85.997,117.393 86.059,117.941 89.000,117.500" stroke-width="4.854" stroke="black" fill="none" stroke-linecap="round"></path><path d="M 89.000,117.500 C 92.726,116.941 92.623,116.281 96.333,115.500" stroke-width="4.802" stroke="black" fill="none" stroke-linecap="round"></path><path d="M 96.333,115.500 C 98.957,114.948 98.998,115.147 101.667,114.833" stroke-width="4.630" stroke="black" fill="none" stroke-linecap="round"></path><path d="M 101.667,114.833 C 104.664,114.481 104.667,114.500 107.667,114.167" stroke-width="4.772" stroke="black" fill="none" stroke-linecap="round"></path><path d="M 107.667,114.167 C 110.667,113.833 110.680,113.927 113.667,113.500" stroke-width="5.019" stroke="black" fill="none" stroke-linecap="round"></path><path d="M 113.667,113.500 C 117.680,112.927 117.651,112.714 121.667,112.167" stroke-width="5.171" stroke="black" fill="none" stroke-linecap="round"></path><path d="M 160.333,178.167 C 157.000,170.833 157.000,170.833 153.667,163.500" stroke-width="5.385" stroke="black" fill="none" stroke-linecap="round"></path><path d="M 153.667,163.500 C 152.000,159.833 151.969,159.847 150.333,156.167" stroke-width="4.858" stroke="black" fill="none" stroke-linecap="round"></path><path d="M 150.333,156.167 C 149.302,153.847 150.010,153.344 148.333,151.500" stroke-width="5.058" stroke="black" fill="none" stroke-linecap="round"></path><path d="M 148.333,151.500 C 143.343,146.011 143.110,145.730 137.000,141.500" stroke-width="4.903" stroke="black" fill="none" stroke-linecap="round"></path><path d="M 137.000,141.500 C 134.443,139.730 134.070,140.182 131.000,139.500" stroke-width="4.995" stroke="black" fill="none" stroke-linecap="round"></path><path d="M 131.000,139.500 C 128.070,138.849 128.002,139.149 125.000,138.833" stroke-width="4.930" stroke="black" fill="none" stroke-linecap="round"></path><path d="M 125.000,138.833 C 121.669,138.483 121.637,137.902 118.333,138.167" stroke-width="4.782" stroke="black" fill="none" stroke-linecap="round"></path><path d="M 118.333,138.167 C 113.304,138.569 112.836,138.237 108.333,140.167" stroke-width="4.964" stroke="black" fill="none" stroke-linecap="round"></path><path d="M 108.333,140.167 C 105.836,141.237 105.734,141.785 104.333,144.167" stroke-width="5.081" stroke="black" fill="none" stroke-linecap="round"></path><path d="M 104.333,144.167 C 102.401,147.452 102.524,147.727 101.667,151.500" stroke-width="4.987" stroke="black" fill="none" stroke-linecap="round"></path><path d="M 101.667,151.500 C 100.857,155.060 100.247,155.372 101.000,158.833" stroke-width="5.063" stroke="black" fill="none" stroke-linecap="round"></path><path d="M 101.000,158.833 C 101.914,163.038 102.003,163.701 105.000,166.833" stroke-width="4.998" stroke="black" fill="none" stroke-linecap="round"></path><path d="M 105.000,166.833 C 109.337,171.367 110.283,170.577 115.667,174.167" stroke-width="4.990" stroke="black" fill="none" stroke-linecap="round"></path><path d="M 115.667,174.167 C 118.283,175.911 118.248,175.986 121.000,177.500" stroke-width="4.910" stroke="black" fill="none" stroke-linecap="round"></path><path d="M 121.000,177.500 C 124.914,179.653 124.927,179.667 129.000,181.500" stroke-width="4.822" stroke="black" fill="none" stroke-linecap="round"></path><path d="M 129.000,181.500 C 131.594,182.667 131.763,182.291 134.333,183.500" stroke-width="4.737" stroke="black" fill="none" stroke-linecap="round"></path><path d="M 134.333,183.500 C 137.430,184.957 137.268,185.301 140.333,186.833" stroke-width="5.025" stroke="black" fill="none" stroke-linecap="round"></path><path d="M 140.333,186.833 C 142.601,187.967 142.796,187.594 145.000,188.833" stroke-width="5.146" stroke="black" fill="none" stroke-linecap="round"></path><path d="M 145.000,188.833 C 148.130,190.594 148.142,190.648 151.000,192.833" stroke-width="5.198" stroke="black" fill="none" stroke-linecap="round"></path><path d="M 151.000,192.833 C 153.809,194.981 153.914,194.930 156.333,197.500" stroke-width="5.187" stroke="black" fill="none" stroke-linecap="round"></path><path d="M 156.333,197.500 C 159.248,200.596 159.312,200.634 161.667,204.167" stroke-width="5.130" stroke="black" fill="none" stroke-linecap="round"></path><path d="M 161.667,204.167 C 163.312,206.634 163.486,206.675 164.333,209.500" stroke-width="5.324" stroke="black" fill="none" stroke-linecap="round"></path><path d="M 167.667,165.500 C 161.000,156.833 158.814,157.577 154.333,148.167" stroke-width="5.267" stroke="black" fill="none" stroke-linecap="round"></path><path d="M 154.333,148.167 C 152.148,143.577 153.788,142.771 154.333,137.500" stroke-width="4.642" stroke="black" fill="none" stroke-linecap="round"></path><path d="M 154.333,137.500 C 154.788,133.105 155.090,133.095 156.333,128.833" stroke-width="4.346" stroke="black" fill="none" stroke-linecap="round"></path><path d="M 156.333,128.833 C 157.424,125.095 157.592,125.138 159.000,121.500" stroke-width="4.449" stroke="black" fill="none" stroke-linecap="round"></path><path d="M 159.000,121.500 C 161.592,114.805 161.237,114.598 164.333,108.167" stroke-width="4.334" stroke="black" fill="none" stroke-linecap="round"></path><path d="M 164.333,108.167 C 165.570,105.598 165.542,105.321 167.667,103.500" stroke-width="4.756" stroke="black" fill="none" stroke-linecap="round"></path><path d="M 167.667,103.500 C 170.209,101.321 170.503,101.432 173.667,100.167" stroke-width="4.775" stroke="black" fill="none" stroke-linecap="round"></path><path d="M 173.667,100.167 C 177.170,98.765 177.325,99.134 181.000,98.167" stroke-width="4.631" stroke="black" fill="none" stroke-linecap="round"></path><path d="M 181.000,98.167 C 183.658,97.467 183.751,96.530 186.333,96.833" stroke-width="5.083" stroke="black" fill="none" stroke-linecap="round"></path><path d="M 186.333,96.833 C 189.418,97.196 189.533,97.820 192.333,99.500" stroke-width="5.028" stroke="black" fill="none" stroke-linecap="round"></path><path d="M 192.333,99.500 C 196.200,101.820 196.289,101.853 199.667,104.833" stroke-width="4.828" stroke="black" fill="none" stroke-linecap="round"></path><path d="M 199.667,104.833 C 201.956,106.853 202.142,106.858 203.667,109.500" stroke-width="4.751" stroke="black" fill="none" stroke-linecap="round"></path><path d="M 203.667,109.500 C 207.142,115.525 207.578,115.552 209.667,122.167" stroke-width="4.743" stroke="black" fill="none" stroke-linecap="round"></path><path d="M 209.667,122.167 C 211.578,128.219 212.332,128.679 211.667,134.833" stroke-width="4.591" stroke="black" fill="none" stroke-linecap="round"></path><path d="M 211.667,134.833 C 210.999,141.012 209.767,141.068 207.000,146.833" stroke-width="4.663" stroke="black" fill="none" stroke-linecap="round"></path><path d="M 207.000,146.833 C 205.767,149.401 205.499,149.301 203.667,151.500" stroke-width="4.625" stroke="black" fill="none" stroke-linecap="round"></path><path d="M 203.667,151.500 C 200.499,155.301 200.292,155.130 197.000,158.833" stroke-width="4.838" stroke="black" fill="none" stroke-linecap="round"></path><path d="M 197.000,158.833 C 194.959,161.130 195.169,161.331 193.000,163.500" stroke-width="4.933" stroke="black" fill="none" stroke-linecap="round"></path><path d="M 193.000,163.500 C 189.835,166.665 189.271,166.142 186.333,169.500" stroke-width="4.748" stroke="black" fill="none" stroke-linecap="round"></path><path d="M 186.333,169.500 C 182.271,174.142 182.433,174.350 179.000,179.500" stroke-width="4.668" stroke="black" fill="none" stroke-linecap="round"></path><path d="M 179.000,179.500 C 177.100,182.350 177.200,182.434 175.667,185.500" stroke-width="4.875" stroke="black" fill="none" stroke-linecap="round"></path><path d="M 175.667,185.500 C 174.533,187.768 174.308,187.728 173.667,190.167" stroke-width="4.776" stroke="black" fill="none" stroke-linecap="round"></path><path d="M 173.667,190.167 C 172.642,194.062 173.128,194.193 172.333,198.167" stroke-width="4.879" stroke="black" fill="none" stroke-linecap="round"></path><path d="M 172.333,198.167 C 171.795,200.860 171.338,200.793 171.000,203.500" stroke-width="5.047" stroke="black" fill="none" stroke-linecap="round"></path><path d="M 171.000,203.500 C 170.672,206.126 170.852,206.174 171.000,208.833" stroke-width="5.265" stroke="black" fill="none" stroke-linecap="round"></path><path d="M 171.000,208.833 C 171.186,212.174 171.491,212.159 171.667,215.500" stroke-width="5.415" stroke="black" fill="none" stroke-linecap="round"></path><path d="M 171.667,215.500 C 171.824,218.492 171.842,218.511 171.667,221.500" stroke-width="5.393" stroke="black" fill="none" stroke-linecap="round"></path></svg>