<svg xmlns="http://www.w3.org/2000/svg" xmlns:xlink="http://www.w3.org/1999/xlink" viewBox="0 0 200 200" width="200" height="200"><path d="M 78.333,107.333 C 84.667,100.667 84.141,100.080 91.000,94.000" stroke-width="4.435" stroke="black" fill="none" stroke-linecap="round" style="stroke-width:10;"></path ><path d="M 91.000,94.000 C 98.808,87.080 98.611,86.364 107.667,81.333" stroke-width="4.176" stroke="black" fill="none" stroke-linecap="round" style="stroke-width:10;"></path ><path d="M 107.667,81.333 C 116.611,76.364 117.178,75.786 127.000,74.000" stroke-width="4.459" stroke="black" fill="none" stroke-linecap="round" style="stroke-width:10;"></path ><path d="M 127.000,74.000 C 131.844,73.119 132.994,73.775 137.000,76.000" stroke-width="4.937" stroke="black" fill="none" stroke-linecap="round" style="stroke-width:10;"></path ><path d="M 137.000,76.000 C 138.994,77.108 139.226,78.295 139.000,80.667" stroke-width="5.235" stroke="black" fill="none" stroke-linecap="round" style="stroke-width:10;"></path ><path d="M 139.000,80.667 C 138.559,85.295 137.990,85.686 135.667,90.000" stroke-width="5.016" stroke="black" fill="none" stroke-linecap="round" style="stroke-width:10;"></path ><path d="M 135.667,90.000 C 133.323,94.353 132.697,94.023 129.667,98.000" stroke-width="4.590" stroke="black" fill="none" stroke-linecap="round" style="stroke-width:10;"></path ><path d="M 129.667,98.000 C 127.363,101.023 127.374,101.032 125.000,104.000" stroke-width="4.393" stroke="black" fill="none" stroke-linecap="round" style="stroke-width:10;"></path ><path d="M 125.000,104.000 C 120.707,109.366 120.732,109.388 116.333,114.667" stroke-width="4.265" stroke="black" fill="none" stroke-linecap="round" style="stroke-width:10;"></path ><path d="M 116.333,114.667 C 112.399,119.388 112.442,119.434 108.333,124.000" stroke-width="4.255" stroke="black" fill="none" stroke-linecap="round" style="stroke-width:10;"></path ><path d="M 108.333,124.000 C 106.442,126.101 106.218,125.894 104.333,128.000" stroke-width="4.524" stroke="black" fill="none" stroke-linecap="round" style="stroke-width:10;"></path ><path d="M 104.333,128.000 C 100.551,132.227 100.078,131.958 97.000,136.667" stroke-width="4.649" stroke="black" fill="none" stroke-linecap="round" style="stroke-width:10;"></path ><path d="M 97.000,136.667 C 94.412,140.625 94.493,140.855 93.000,145.333" stroke-width="4.740" stroke="black" fill="none" stroke-linecap="round" style="stroke-width:10;"></path ><path d="M 93.000,145.333 C 92.159,147.855 91.398,148.394 92.333,150.667" stroke-width="5.054" stroke="black" fill="none" stroke-linecap="round" style="stroke-width:10;"></path ><path d="M 92.333,150.667 C 93.731,154.061 94.453,154.524 97.667,156.667" stroke-width="5.021" stroke="black" fill="none" stroke-linecap="round" style="stroke-width:10;"></path ><path d="M 97.667,156.667 C 100.453,158.524 100.924,158.074 104.333,158.667" stroke-width="4.786" stroke="black" fill="none" stroke-linecap="round" style="stroke-width:10;"></path ><path d="M 104.333,158.667 C 108.591,159.407 108.701,159.630 113.000,159.333" stroke-width="4.567" stroke="black" fill="none" stroke-linecap="round" style="stroke-width:10;"></path ><path d="M 113.000,159.333 C 118.368,158.963 118.368,158.492 123.667,157.333" stroke-width="4.466" stroke="black" fill="none" stroke-linecap="round" style="stroke-width:10;"></path ><path d="M 123.667,157.333 C 129.035,156.159 129.203,156.514 134.333,154.667" stroke-width="4.355" stroke="black" fill="none" stroke-linecap="round" style="stroke-width:10;"></path ><path d="M 134.333,154.667 C 137.536,153.514 137.219,152.761 140.333,151.333" stroke-width="4.578" stroke="black" fill="none" stroke-linecap="round" style="stroke-width:10;"></path ><path d="M 140.333,151.333 C 145.219,149.094 145.211,148.909 150.333,147.333" stroke-width="4.421" stroke="black" fill="none" stroke-linecap="round" style="stroke-width:10;"></path ><path d="M 150.333,147.333 C 153.878,146.243 154.240,145.347 157.667,146.000" stroke-width="4.819" stroke="black" fill="none" stroke-linecap="round" style="stroke-width:10;"></path ><path d="M 157.667,146.000 C 161.240,146.681 161.990,147.266 164.333,150.000" stroke-width="5.113" stroke="black" fill="none" stroke-linecap="round" style="stroke-width:10;"></path ><path d="M 164.333,150.000 C 165.990,151.933 165.549,152.618 165.667,155.333" stroke-width="5.119" stroke="black" fill="none" stroke-linecap="round" style="stroke-width:10;"></path ><path d="M 165.667,155.333 C 165.882,160.284 165.602,160.365 165.000,165.333" stroke-width="4.614" stroke="black" fill="none" stroke-linecap="round" style="stroke-width:10;"></path ><path d="M 165.000,165.333 C 164.269,171.365 164.722,171.542 163.000,177.333" stroke-width="4.380" stroke="black" fill="none" stroke-linecap="round" style="stroke-width:10;"></path ><path d="M 163.000,177.333 C 161.055,183.876 160.862,183.946 157.667,190.000" stroke-width="4.059" stroke="black" fill="none" stroke-linecap="round" style="stroke-width:10;"></path ><path d="M 157.667,190.000 C 154.528,195.946 154.439,195.996 150.333,201.333" stroke-width="4.059" stroke="black" fill="none" stroke-linecap="round" style="stroke-width:10;"></path ><path d="M 150.333,201.333 C 144.439,208.996 144.923,209.733 137.667,216.000" stroke-width="3.866" stroke="black" fill="none" stroke-linecap="round" style="stroke-width:10;"></path ><path d="M 137.667,216.000 C 130.257,222.399 129.785,222.381 121.000,226.667" stroke-width="3.980" stroke="black" fill="none" stroke-linecap="round" style="stroke-width:10;"></path ><path d="M 121.000,226.667 C 116.119,229.048 115.732,228.403 110.333,229.333" stroke-width="3.928" stroke="black" fill="none" stroke-linecap="round" style="stroke-width:10;"></path ><path d="M 110.333,229.333 C 106.065,230.069 105.990,230.144 101.667,230.000" stroke-width="4.512" stroke="black" fill="none" stroke-linecap="round" style="stroke-width:10;"></path ><path d="M 101.667,230.000 C 95.990,229.811 95.580,230.476 90.333,228.667" stroke-width="4.509" stroke="black" fill="none" stroke-linecap="round" style="stroke-width:10;"></path ><path d="M 90.333,228.667 C 85.913,227.142 86.111,226.271 82.333,223.333" stroke-width="4.673" stroke="black" fill="none" stroke-linecap="round" style="stroke-width:10;"></path ><path d="M 82.333,223.333 C 80.111,221.605 79.363,218.990 78.333,219.333" stroke-width="5.033" stroke="black" fill="none" stroke-linecap="round" style="stroke-width:10;"></path ><path d="M 78.333,219.333 C 77.363,219.657 77.365,222.247 78.333,224.667" stroke-width="5.204" stroke="black" fill="none" stroke-linecap="round" style="stroke-width:10;"></path ><path d="M 78.333,224.667 C 81.365,232.247 81.867,232.314 86.333,239.333" stroke-width="3.978" stroke="black" fill="none" stroke-linecap="round" style="stroke-width:10;"></path ><path d="M 86.333,239.333 C 88.867,243.314 88.632,243.829 92.333,246.667" stroke-width="4.225" stroke="black" fill="none" stroke-linecap="round" style="stroke-width:10;"></path ><path d="M 92.333,246.667 C 98.632,251.496 99.076,251.229 106.333,254.667" stroke-width="3.956" stroke="black" fill="none" stroke-linecap="round" style="stroke-width:10;"></path ><path d="M 106.333,254.667 C 111.743,257.229 111.857,257.214 117.667,258.667" stroke-width="4.094" stroke="black" fill="none" stroke-linecap="round" style="stroke-width:10;"></path ><path d="M 117.667,258.667 C 125.190,260.548 125.282,260.598 133.000,261.333" stroke-width="4.021" stroke="black" fill="none" stroke-linecap="round" style="stroke-width:10;"></path ><path d="M 133.000,261.333 C 139.282,261.932 139.388,261.887 145.667,261.333" stroke-width="3.975" stroke="black" fill="none" stroke-linecap="round" style="stroke-width:10;"></path ><path d="M 145.667,261.333 C 150.721,260.887 150.690,260.439 155.667,259.333" stroke-width="4.128" stroke="black" fill="none" stroke-linecap="round" style="stroke-width:10;"></path ><path d="M 155.667,259.333 C 162.690,257.773 162.801,258.080 169.667,256.000" stroke-width="4.205" stroke="black" fill="none" stroke-linecap="round" style="stroke-width:10;"></path ><path d="M 169.667,256.000 C 173.801,254.747 174.115,255.035 177.667,252.667" stroke-width="4.185" stroke="black" fill="none" stroke-linecap="round" style="stroke-width:10;"></path ><path d="M 177.667,252.667 C 182.115,249.701 181.733,249.070 185.667,245.333" stroke-width="4.334" stroke="black" fill="none" stroke-linecap="round" style="stroke-width:10;"></path ><path d="M 185.667,245.333 C 188.400,242.736 188.595,242.886 191.000,240.000" stroke-width="4.519" stroke="black" fill="none" stroke-linecap="round" style="stroke-width:10;"></path ><path d="M 191.000,240.000 C 193.595,236.886 193.551,236.796 195.667,233.333" stroke-width="4.583" stroke="black" fill="none" stroke-linecap="round" style="stroke-width:10;"></path ><path d="M 195.667,233.333 C 197.217,230.796 197.201,230.750 198.333,228.000" stroke-width="4.621" stroke="black" fill="none" stroke-linecap="round" style="stroke-width:10;"></path ><path d="M 198.333,228.000 C 199.534,225.083 199.381,225.015 200.333,222.000" stroke-width="4.706" stroke="black" fill="none" stroke-linecap="round" style="stroke-width:10;"></path ><path d="M 200.333,222.000 C 201.381,218.682 201.581,218.719 202.333,215.333" stroke-width="4.740" stroke="black" fill="none" stroke-linecap="round" style="stroke-width:10;"></path ><path d="M 202.333,215.333 C 202.914,212.719 202.719,212.672 203.000,210.000" stroke-width="4.891" stroke="black" fill="none" stroke-linecap="round" style="stroke-width:10;"></path ><path d="M 203.000,210.000 C 203.385,206.339 203.473,206.340 203.667,202.667" stroke-width="4.871" stroke="black" fill="none" stroke-linecap="round" style="stroke-width:10;"></path ></svg>