<?xml version="1.0" encoding="UTF-8" standalone="no"?>
<!-- Created with Inkscape (http://www.inkscape.org/) -->

<svg
   xmlns:dc="http://purl.org/dc/elements/1.1/"
   xmlns:cc="http://creativecommons.org/ns#"
   xmlns:rdf="http://www.w3.org/1999/02/22-rdf-syntax-ns#"
   xmlns:svg="http://www.w3.org/2000/svg"
   xmlns="http://www.w3.org/2000/svg"
   xmlns:sodipodi="http://sodipodi.sourceforge.net/DTD/sodipodi-0.dtd"
   xmlns:inkscape="http://www.inkscape.org/namespaces/inkscape"
   width="200"
   height="80"
   viewBox="0 0 200 200"
   version="1.1"
   id="svg8"
   sodipodi:docname="MindDesign-v0.svg"
   inkscape:version="0.92.3 (2405546, 2018-03-11)">
  <defs
     id="defs2" />
  <sodipodi:namedview
     id="base"
     pagecolor="#ffffff"
     bordercolor="#666666"
     borderopacity="1.0"
     inkscape:pageopacity="0.0"
     inkscape:pageshadow="2"
     inkscape:zoom="0.98994949"
     inkscape:cx="507.14585"
     inkscape:cy="402.29849"
     inkscape:document-units="px"
     inkscape:current-layer="layer1"
     showgrid="false"
     inkscape:object-nodes="false"
     units="px"
     inkscape:snap-text-baseline="false"
     showborder="true" />
  <metadata
     id="metadata5">
    <rdf:RDF>
      <cc:Work
         rdf:about="">
        <dc:format>image/svg+xml</dc:format>
        <dc:type
           rdf:resource="http://purl.org/dc/dcmitype/StillImage" />
        <dc:title></dc:title>
      </cc:Work>
    </rdf:RDF>
  </metadata>
  <g
     inkscape:label="Layer 1"
     inkscape:groupmode="layer"
     id="layer1"
     transform="translate(0,-87)">
    <g
       id="g2037"
       transform="matrix(1.2555369,0,0,1.2555369,-27.788212,-41.437542)"
       style="stroke-width:0.79647207">
      <path
         d="m 49.94664,158.98557 q 0.105599,-0.24638 0.703978,0.0352 0.598381,0.24639 1.26716,0.70398 0.703979,0.45758 1.231962,1.02076 0.563183,0.52799 0.598382,0.84478 -0.598382,3.66068 -1.30236,6.547 -0.668779,2.85111 -1.30236,5.31503 -0.703977,2.74551 -1.302358,5.63182 -0.563183,2.85112 -0.915172,5.77263 -0.0352,0.24638 -0.0704,0.49278 0,0.2112 0.0352,0.31679 0,-0.10553 0.105599,-0.35199 0.105599,-0.28158 0.211193,-0.59838 0.105599,-0.31679 0.211193,-0.59838 0.140797,-0.31679 0.211195,-0.45759 0.457585,-1.12636 0.95037,-2.25273 0.492785,-1.12636 0.985569,-2.21753 l 0.879973,-1.97113 q 2.111934,-4.71666 4.47026,-9.18692 2.393526,-4.50546 5.631825,-8.62373 0.246393,-0.2112 0.915172,0.0703 0.703978,0.24639 1.231961,0.66877 0.422387,0.2816 0.844774,0.59838 0.457586,0.2816 0.774376,0.56319 0.351989,0.24639 0.527984,0.49278 0.211193,0.2112 0.211193,0.3168 -0.492785,0.52798 -1.196762,2.00633 -0.703979,1.47835 -1.443155,3.55509 -0.739178,2.04154 -1.407957,4.47027 -0.668779,2.39351 -1.091165,4.82224 -0.387188,2.39353 -0.457587,4.57586 -0.0352,2.18233 0.492785,3.73108 0.281591,0.95037 0.809574,1.58395 0.563183,0.63358 1.372758,0.80958 0.457585,0.1408 0.950371,0.17599 0.527983,0.0703 1.020767,0.0703 0.66878,0 1.30236,-0.10565 0.63358,-0.0703 1.231962,-0.2464 0.422387,0 0.492785,0.28159 0.105599,0.28159 -0.0352,0.63358 -0.140795,0.352 -0.492784,0.66878 -0.31679,0.3168 -0.66878,0.38718 -1.020767,0.10565 -2.217531,0.10565 -0.668779,0 -1.337558,-0.0703 -0.668779,-0.0352 -1.26716,-0.17598 -2.006338,-0.3872 -3.2383,-1.58395 -1.196762,-1.19677 -1.795143,-2.99191 -0.457586,-1.40797 -0.563183,-3.06231 -0.105599,-1.68955 0.0352,-3.51989 0.140796,-1.83034 0.492784,-3.73109 0.35199,-1.90073 0.809576,-3.76628 -2.217531,3.73109 -4.118272,7.49737 -1.865543,3.76628 -3.484692,7.46216 -0.211194,0.45759 -0.63358,0.91518 -0.387188,0.45759 -0.950371,0.73917 -0.527984,0.3168 -1.231961,0.3872 -0.66878,0.10565 -1.407956,-0.176 v 0.0352 q -1.196763,-0.45759 -1.689548,-1.93595 -0.422386,-1.26715 -0.316789,-3.2031 0.105599,-1.97113 0.527982,-4.29426 0.422388,-2.35833 1.020769,-4.89265 0.63358,-2.56952 1.26716,-5.06864 0,-0.0704 0.0704,-0.2112 -1.126365,2.04155 -2.287929,4.04788 -1.161564,1.97113 -2.463924,3.94228 h 0.0352 q -0.668779,1.05596 -1.372758,2.14713 -0.703978,1.05597 -1.654349,2.18233 -0.140795,0.10565 -0.457586,0.52798 -0.281591,0.42239 -0.668779,0.91517 -0.739176,0.95038 -1.61915,2.04155 -0.879972,1.09116 -1.935939,1.97113 -1.020768,0.91518 -2.252729,1.47836 -1.231962,0.59837 -2.639919,0.56318 -1.443155,0 -2.569519,-0.63358 -1.126365,-0.59838 -1.971139,-1.54876 -0.844774,-0.95037 -1.407957,-2.07673 -0.598381,-1.12637 -0.915171,-2.14713 -0.140796,-0.42239 -0.246393,-0.84477 -0.105599,-0.4224 -0.175994,-0.73918 -0.28159,-1.61915 -0.0352,-3.76628 0.211193,-2.18233 0.915172,-4.43506 0.703978,-2.28793 1.830343,-4.47027 1.161564,-2.21753 2.745514,-3.94227 1.583951,-1.72475 3.590289,-2.74552 2.006338,-1.05596 4.435062,-1.02076 1.020767,0.0352 1.935939,0.45758 0.915172,0.42238 1.654348,1.05596 0.739178,0.63359 1.267161,1.40796 0.527984,0.73918 0.739177,1.40796 0.246393,0.70398 0.140796,1.16156 v 0.0352 q -0.140796,0.66877 -0.703979,1.26715 -0.527983,0.56318 -1.161563,0.87998 -0.63358,0.28158 -1.161564,0.21119 -0.527983,-0.10565 -0.598381,-0.80957 0.0352,-0.38719 0,-1.19677 0,-0.84477 -0.281591,-1.61915 -0.175995,-0.63358 -0.598382,-1.09116 -0.387187,-0.49278 -1.055967,-0.56318 -1.830343,-0.0704 -3.484692,0.84476 -1.619149,0.91518 -2.991907,2.46393 -1.372757,1.54875 -2.463922,3.5199 -1.055967,1.97113 -1.759946,4.01266 -0.66878,2.00635 -0.950371,3.90708 -0.31679,1.86555 -0.105599,3.20311 0,0.17599 0.0352,0.24639 0.0704,0.35198 0.175993,0.70398 0.0704,0.31678 0.140797,0.63358 0.105599,0.28158 0.211193,0.59838 0.140796,0.28159 0.281591,0.56318 0.527984,0.98557 1.407957,1.72475 0.879972,0.73917 2.53432,0.95037 1.548752,0 3.273498,-1.44316 1.759946,-1.47835 3.590289,-3.83668 1.830343,-2.35832 3.695885,-5.31503 1.865541,-2.99191 3.695885,-6.05421 1.443155,-2.42873 2.851111,-4.75186 1.407956,-2.32312 2.745515,-4.29426 l 0.105599,-0.66879 z"
         style="font-style:normal;font-variant:normal;font-weight:normal;font-stretch:normal;font-size:medium;line-height:125%;font-family:'Blackberry Jam Personal Use';-inkscape-font-specification:'Blackberry Jam Personal Use, Normal';font-variant-ligatures:normal;font-variant-caps:normal;font-variant-numeric:normal;font-feature-settings:normal;text-align:start;letter-spacing:5px;word-spacing:0px;writing-mode:lr-tb;text-anchor:start;fill:#000000;fill-opacity:1;stroke:none;stroke-width:0.21073323px;stroke-linecap:butt;stroke-linejoin:miter;stroke-opacity:1"
         id="path1974"
         inkscape:connector-curvature="0" />
      <path
         d="m 70.397753,171.16439 q 0.351988,-0.14079 1.020768,0.0352 0.703978,0.17599 1.372758,0.56318 0.703977,0.352 1.231962,0.87998 0.527982,0.49278 0.598382,1.02076 l -0.633582,2.00634 q -0.422387,1.02078 -0.915171,2.39353 -0.492786,1.33756 -0.844774,2.53431 -0.31679,1.19677 -0.387188,2.04155 -0.0704,0.84476 0.422386,0.84476 h 0.387188 q 0.985569,-0.28158 1.724743,-0.84476 0.774381,-0.59839 1.407963,-1.33757 0.633582,-0.77437 1.126365,-1.58395 0.492783,-0.84476 0.950367,-1.65434 l 0.316785,-0.59839 q 0.105648,-0.14079 0.422396,-0.10564 0.351985,0.0352 0.668782,0.21119 0.351984,0.1408 0.56317,0.35199 0.211198,0.2112 0.07035,0.42239 -0.915167,1.79514 -1.971133,3.41429 -1.055966,1.61915 -2.815913,2.92151 -0.211198,0.176 -0.563183,0.42238 -0.351984,0.2112 -0.844774,0.4224 -0.457586,0.21119 -1.020767,0.31678 -0.563183,0.1408 -1.196764,0.1408 -1.231962,-0.0352 -2.041536,-0.70398 -0.844774,-0.70398 -1.161564,-1.72475 -0.281591,-0.73916 -0.211193,-1.68954 h -0.0352 q 0.0352,-1.16157 0.422387,-2.85112 0.351988,-1.68954 0.844773,-3.41429 0.351989,-1.23195 0.633581,-2.32312 0.246393,-1.12636 0.316789,-1.93595 z m 0.950371,-7.81414 q 0.351988,-0.0352 1.091165,0.35198 0.739178,0.35198 1.478354,0.84477 0.774379,0.49278 1.337562,1.02078 0.563183,0.49278 0.633582,0.70397 0.03518,0.56318 -0.175999,1.12636 -0.175998,0.56318 -0.351984,1.16157 -0.175998,0.59838 -0.351997,1.16156 -0.140799,0.56318 -0.140799,1.30236 -0.387184,-0.0352 -0.950365,-0.31679 -0.527983,-0.28159 -1.055967,-0.59839 -0.527983,-0.35198 -0.915171,-0.70396 -0.387188,-0.3872 -0.457586,-0.63359 -0.175995,-0.56318 -0.211194,-1.16156 0,-0.59838 0,-1.23197 0.0352,-0.70398 0,-1.40795 -0.0352,-0.73918 -0.175994,-1.30236 z m 3.273499,10.63005 q 0,-0.0703 0,-0.14078 0.03517,-0.10565 0,-0.176 0.105648,-0.10565 0,0.31678 z"
         style="font-style:normal;font-variant:normal;font-weight:normal;font-stretch:normal;font-size:medium;line-height:125%;font-family:'Blackberry Jam Personal Use';-inkscape-font-specification:'Blackberry Jam Personal Use, Normal';font-variant-ligatures:normal;font-variant-caps:normal;font-variant-numeric:normal;font-feature-settings:normal;text-align:start;letter-spacing:5px;word-spacing:0px;writing-mode:lr-tb;text-anchor:start;fill:#000000;fill-opacity:1;stroke:none;stroke-width:0.21073323px;stroke-linecap:butt;stroke-linejoin:miter;stroke-opacity:1"
         id="path1976"
         inkscape:connector-curvature="0" />
      <path
         d="m 100.51647,180.45691 q -0.3168,0.63358 -0.879978,1.58395 -0.527983,0.91517 -1.302351,1.79515 -0.774381,0.87996 -1.759947,1.51355 -0.985567,0.59838 -2.111932,0.59838 -0.703982,0 -1.407963,-0.176 -0.703969,-0.17599 -1.337551,-0.56318 -0.598382,-0.38719 -1.091166,-0.98557 -0.457596,-0.59838 -0.668781,-1.44315 -0.211198,-0.73918 -0.246398,-1.47836 -0.03517,-0.73917 0.03517,-1.54875 0.07035,-0.84477 0.246398,-1.79515 0.175986,-0.95036 0.422384,-2.11193 0.140798,-0.56318 0.175998,-1.02077 0.03518,-0.45758 -0.07035,-0.77438 -0.07035,-0.17598 -0.457584,0 -0.351996,0.176 -1.161565,0.91518 -1.020766,0.91517 -1.795147,1.79514 -0.739181,0.87998 -1.44315,1.90074 -0.351997,1.65435 -0.422396,3.3439 -0.03517,1.68955 0.351997,3.44949 0.03517,0.24639 -0.492783,0.17599 -0.527983,-0.0352 -1.196765,-0.24638 -0.668782,-0.2464 -1.267164,-0.52799 -0.633582,-0.31679 -0.774381,-0.59838 -0.281585,-1.09117 -0.351984,-2.14713 -0.07035,-1.09117 0,-2.14713 0.03518,-1.05597 0.175998,-2.07675 0.140787,-1.05596 0.281585,-2.11193 0.175999,-1.09116 0.316798,-2.18233 0.105525,-1.12637 0.175986,-2.35833 0.351996,-0.14079 1.020766,0.0352 0.703981,0.1408 1.443162,0.52799 0.739181,0.35199 1.337551,0.84478 0.598383,0.49278 0.774381,0.98556 0.985567,-1.02076 2.217531,-1.72474 1.231964,-0.70398 2.780713,-0.77437 0.457584,0 1.055966,0.28158 0.598383,0.2816 1.126366,0.70399 0.563182,0.42238 0.915179,0.91516 0.387184,0.45759 0.351985,0.80958 -0.175999,1.30235 -0.422384,2.46392 -0.246398,1.16156 -0.422396,1.97114 -0.316785,1.44315 -0.492784,2.56952 -0.175986,1.12637 0.175999,2.56952 0.03517,0.0703 0.140798,0.10564 0.140787,0.0352 0.457584,-0.10564 0.879968,-0.38719 1.935933,-1.33756 1.055979,-0.95036 1.900746,-2.53432 0.422384,-0.77437 0.739182,-1.58395 l 0.387184,-0.91517 q 0.07035,-0.1408 0.35199,-0.0703 0.3168,0.0352 0.63358,0.2112 0.352,0.17598 0.56318,0.42238 0.2464,0.2112 0.1408,0.42239 l -0.0352,-0.0352 z"
         style="font-style:normal;font-variant:normal;font-weight:normal;font-stretch:normal;font-size:medium;line-height:125%;font-family:'Blackberry Jam Personal Use';-inkscape-font-specification:'Blackberry Jam Personal Use, Normal';font-variant-ligatures:normal;font-variant-caps:normal;font-variant-numeric:normal;font-feature-settings:normal;text-align:start;letter-spacing:5px;word-spacing:0px;writing-mode:lr-tb;text-anchor:start;fill:#000000;fill-opacity:1;stroke:none;stroke-width:0.21073323px;stroke-linecap:butt;stroke-linejoin:miter;stroke-opacity:1"
         id="path1978"
         inkscape:connector-curvature="0" />
      <path
         d="m 117.96522,180.06971 q -0.10565,0.80958 -0.176,1.58396 -0.0352,0.77437 0.1408,1.33756 0.176,0.42238 0.38719,0.49278 h 0.42238 q 0.91518,-0.24639 1.58396,-0.84477 0.70397,-0.59838 1.23195,-1.37276 0.52799,-0.77437 0.91518,-1.65435 0.42239,-0.87997 0.77437,-1.68955 l 0.3872,-0.87997 q 0.0704,-0.14079 0.38718,-0.0703 0.31679,0.0352 0.63359,0.2112 0.35198,0.17599 0.56318,0.42239 0.24638,0.21119 0.17598,0.42238 l -0.49278,1.02077 q -0.63357,1.47836 -1.51355,3.02711 -0.84477,1.54875 -2.07673,2.60471 -0.2112,0.176 -0.56318,0.42239 -0.3168,0.2112 -0.77438,0.42239 -0.42239,0.21119 -0.98557,0.35199 -0.56318,0.1408 -1.23196,0.10565 -1.75995,-0.10565 -2.81592,-0.91518 -1.02076,-0.84477 -1.40795,-2.00634 l -0.0703,-0.21119 q -0.95037,1.19676 -2.21753,2.07674 -1.26716,0.87997 -2.74551,0.91517 -1.30237,-0.10565 -2.28793,-0.49279 -0.98557,-0.42238 -1.68955,-0.98556 -0.66878,-0.59838 -1.09117,-1.26717 -0.42238,-0.66878 -0.59838,-1.26716 -0.10565,-0.28159 -0.1408,-0.49278 -0.0352,-0.21119 -0.0704,-0.38719 -0.21118,-1.40796 0.2816,-3.1327 0.49278,-1.72474 1.61915,-3.23831 1.16156,-1.51354 2.88631,-2.53431 1.75995,-1.05597 4.01268,-1.05597 0.49278,0 0.91517,0.0352 0.45758,0.0352 0.91516,0.14078 1.23197,0.2464 2.07675,1.05598 l 0.24638,-0.66878 0.49279,-1.51355 q 0.70398,-1.90074 1.05596,-3.90708 0.352,-2.04154 0.352,-3.55509 0.35198,-0.176 1.12636,0.0352 0.80957,0.21119 1.58395,0.63359 0.80957,0.42238 1.37275,0.98556 0.59839,0.52799 0.56319,1.05597 -0.0704,0.38718 -0.24639,1.09116 -0.176,0.70399 -0.42238,1.58395 -0.2464,0.87998 -0.56319,1.86555 -0.28159,0.95037 -0.56318,1.83035 v -0.0352 l -0.45759,1.40795 h 0.0352 q -0.59838,1.68955 -1.12636,3.4495 -0.49279,1.75994 -0.77437,3.59028 z m -8.16614,3.02711 q 0.49278,-0.14079 1.05597,-0.66878 0.59838,-0.52798 1.12636,-1.16156 0.56318,-0.66878 1.02077,-1.37275 0.49278,-0.73918 0.77437,-1.33757 l 0.10565,-0.87996 q 0.17599,-0.91518 0.38719,-1.75995 0.21119,-0.84478 0.45759,-1.68955 -0.2816,-0.45758 -0.77439,-0.80958 -0.45758,-0.38718 -1.30236,-0.42238 -1.37275,-0.0352 -2.39352,0.70398 -1.02076,0.73918 -1.72474,1.83035 -0.66879,1.09116 -1.05597,2.35831 -0.352,1.26717 -0.3872,2.25273 0,0.352 0.0352,0.80958 0.0703,0.42239 0.176,0.77437 0.2112,0.66878 0.77438,1.12637 0.59838,0.45759 1.72475,0.24639 z"
         style="font-style:normal;font-variant:normal;font-weight:normal;font-stretch:normal;font-size:medium;line-height:125%;font-family:'Blackberry Jam Personal Use';-inkscape-font-specification:'Blackberry Jam Personal Use, Normal';font-variant-ligatures:normal;font-variant-caps:normal;font-variant-numeric:normal;font-feature-settings:normal;text-align:start;letter-spacing:5px;word-spacing:0px;writing-mode:lr-tb;text-anchor:start;fill:#000000;fill-opacity:1;stroke:none;stroke-width:0.21073323px;stroke-linecap:butt;stroke-linejoin:miter;stroke-opacity:1"
         id="path1980"
         inkscape:connector-curvature="0" />
      <path
         d="m 157.16977,159.09117 q 2.21754,-0.1408 4.32947,0.3872 2.14713,0.49278 3.97748,1.54875 1.86554,1.02076 3.27349,2.49911 1.40797,1.47836 2.21753,3.2735 0.77438,2.25273 0.59839,4.78706 -0.176,2.49911 -1.19677,4.96304 -0.98557,2.46392 -2.71031,4.71665 -1.68955,2.25273 -3.94228,4.01268 -2.25273,1.75994 -4.99825,2.85111 -2.74551,1.09116 -5.77261,1.19676 -1.26716,0.0352 -2.81591,-0.21119 -1.51356,-0.24639 -3.06231,-0.84477 -1.51355,-0.59838 -2.9215,-1.58395 -1.40797,-0.95038 -2.46393,-2.35833 -0.38719,-0.63358 -0.0704,-1.09117 0.3168,-0.49278 0.95037,-0.73918 0.63358,-0.28158 1.37276,-0.31678 0.77437,-0.0352 1.26716,0.24638 0.56318,1.19677 1.44315,2.11194 0.87997,0.91517 1.90075,1.47836 1.05596,0.59838 2.18233,0.84477 1.12636,0.28159 2.14713,0.21119 1.86554,-0.28159 3.80148,-1.33756 1.93593,-1.02077 3.66068,-2.56952 1.75995,-1.54874 3.16791,-3.48469 1.44315,-1.97113 2.32312,-4.08308 0.91518,-2.14713 1.16156,-4.32946 0.2464,-2.18233 -0.42238,-4.22386 -0.42238,-1.30237 -1.30235,-2.42873 -0.87998,-1.12637 -2.04155,-1.93594 -1.16156,-0.84478 -2.53431,-1.30236 -1.37276,-0.49278 -2.81591,-0.52798 -2.25274,0.10565 -4.32947,1.16156 -2.04154,1.02077 -3.76629,2.56952 -1.72475,1.54876 -3.0623,3.44949 -1.33756,1.90075 -2.18233,3.80148 -0.84478,1.90075 -1.12636,3.6255 -0.2464,1.68954 0.14079,2.85111 -0.31679,0.45758 -1.02077,0.28158 -0.66877,-0.21119 -1.40795,-0.73918 -0.73919,-0.52798 -1.37277,-1.19675 -0.63357,-0.70398 -0.77437,-1.19676 -0.38718,-1.16157 0.10565,-2.78072 0.45759,-1.61915 1.58395,-3.37909 1.12637,-1.79515 2.85111,-3.5551 1.75994,-1.75995 3.90708,-3.1679 2.14713,-1.44315 4.61105,-2.39352 2.49913,-0.95037 5.13904,-1.09117 z m -4.71664,3.62549 q 0.0704,-0.24639 0.80957,0 0.77438,0.24639 1.65434,0.73917 0.87998,0.4576 1.54875,1.09117 0.66879,0.63358 0.59839,1.19676 -2.04154,4.92785 -3.3791,10.10209 -1.30235,5.13904 -1.86553,9.78529 -0.0703,0.2464 -0.63359,0 -0.52798,-0.24638 -1.16156,-0.66877 -0.63358,-0.45759 -1.16157,-0.95038 -0.52798,-0.49278 -0.52798,-0.77437 -0.0703,-2.21753 0.28159,-4.89264 0.35199,-2.67513 0.91518,-5.45584 0.59838,-2.78072 1.33755,-5.42063 0.77438,-2.63991 1.58396,-4.75185 z"
         style="font-style:normal;font-variant:normal;font-weight:normal;font-stretch:normal;font-size:medium;line-height:125%;font-family:'Blackberry Jam Personal Use';-inkscape-font-specification:'Blackberry Jam Personal Use, Normal';font-variant-ligatures:normal;font-variant-caps:normal;font-variant-numeric:normal;font-feature-settings:normal;text-align:start;letter-spacing:5px;word-spacing:0px;writing-mode:lr-tb;text-anchor:start;fill:#000000;fill-opacity:1;stroke:none;stroke-width:0.21073323px;stroke-linecap:butt;stroke-linejoin:miter;stroke-opacity:1"
         id="path1982"
         inkscape:connector-curvature="0" />
      <path
         d="m 185.72916,175.38827 q -0.80957,2.32313 -2.8863,3.83668 -2.04154,1.51355 -4.89266,2.21753 0.2816,0.77438 0.95038,1.51355 0.66878,0.70398 1.68955,0.91518 0.73917,0.10552 1.61915,-0.0703 0.87997,-0.2112 1.75995,-0.73919 0.87996,-0.52798 1.72474,-1.37275 0.84477,-0.84478 1.47835,-2.07674 0.38719,-0.77437 0.66879,-1.40795 0.28158,-0.63358 0.45758,-1.12637 0.1408,-0.24639 0.45758,-0.24639 0.35199,-0.0352 0.66878,0.14079 0.31679,0.1408 0.52799,0.42239 0.21118,0.2464 0.10565,0.59838 l -0.3872,0.87998 q -0.52798,1.16157 -1.30235,2.56952 -0.77438,1.40795 -2.04155,2.67511 -0.80957,0.66878 -1.68955,1.05597 -0.87996,0.38719 -1.72473,0.56318 -0.80958,0.176 -1.51356,0.2112 -0.70397,0.0703 -1.12637,0.0703 -2.60471,0 -4.39986,-1.09117 -1.75995,-1.09116 -2.46392,-2.99191 -0.63358,-1.68955 -0.31679,-3.3087 0.28159,-1.65434 1.40796,-3.55509 0.38718,-0.63357 1.12637,-1.33755 0.73916,-0.70398 1.75993,-1.30237 1.02078,-0.63358 2.25273,-1.02076 1.23196,-0.38719 2.56953,-0.35199 1.33755,0.0352 2.35833,0.66877 1.02076,0.63359 1.37275,1.65435 0.1408,0.4576 0.10565,0.98558 0,0.49278 -0.2816,1.05597 z m -2.8159,-2.21753 q -1.26716,0.21118 -2.21753,0.95036 -0.91518,0.73918 -1.54876,1.72475 -0.63358,0.95037 -0.98557,2.04153 -0.35198,1.05597 -0.42238,1.93595 2.28793,-0.70398 3.87188,-2.00633 1.58395,-1.33757 2.25273,-3.30871 v 0.0352 q 0.17598,-0.49278 0,-0.87997 -0.176,-0.59838 -0.95037,-0.49278 z"
         style="font-style:normal;font-variant:normal;font-weight:normal;font-stretch:normal;font-size:medium;line-height:125%;font-family:'Blackberry Jam Personal Use';-inkscape-font-specification:'Blackberry Jam Personal Use, Normal';font-variant-ligatures:normal;font-variant-caps:normal;font-variant-numeric:normal;font-feature-settings:normal;text-align:start;letter-spacing:5px;word-spacing:0px;writing-mode:lr-tb;text-anchor:start;fill:#000000;fill-opacity:1;stroke:none;stroke-width:0.21073323px;stroke-linecap:butt;stroke-linejoin:miter;stroke-opacity:1"
         id="path1984"
         inkscape:connector-curvature="0" />
      <path
         d="m 189.92169,182.35764 q -0.35199,-1.02076 -0.0352,-2.04153 0.31679,-1.02076 1.12637,-1.58395 l 0.42238,-0.95036 q 0.59838,-1.23197 1.16157,-2.42873 0.56318,-1.23197 1.26716,-2.28793 0.1408,-0.2112 0.24639,-0.42239 0.10565,-0.2112 0.21119,-0.42238 0.38719,-0.70398 0.87997,-1.44316 0.4928,-0.77437 1.61915,-1.72475 0.528,0.176 1.30236,0.49278 0.80959,0.3168 1.47835,0.73918 0.66879,0.38719 0.98558,0.80958 0.31679,0.38719 -0.10565,0.70397 l 0.0352,-0.0352 q -0.45758,0.42239 -0.63358,0.70398 -0.1408,0.2464 -0.35199,0.63358 l -0.24639,0.49278 q -0.45759,0.91517 -0.38719,1.93595 0.0704,1.02077 0.38719,2.04153 0.17599,0.56318 0.38718,1.12637 0.2464,0.52798 0.49278,1.09116 l 0.59839,1.54875 q 0.42239,1.09117 0.28159,2.00635 -0.1408,0.91516 -0.77438,1.54875 -0.59838,0.63358 -1.61915,0.95036 -0.98556,0.35199 -2.32313,0.2816 -2.74551,-0.176 -4.32946,-1.23196 -1.61915,-1.09117 -2.07673,-2.53433 z m 5.24463,-4.75184 q -0.17599,-0.45759 -0.28159,-0.91517 -0.10565,-0.4576 -0.1408,-0.87998 -0.28158,0.52798 -0.56318,1.12637 -0.24638,0.56318 -0.49278,1.12636 l -0.1408,0.2464 0.70398,0.17598 q 0.1408,0.1408 0.49278,0.56319 0.3872,0.42239 0.73919,0.91518 0.35198,0.49278 0.56318,0.95036 0.2112,0.42239 0.0352,0.59839 -0.45758,-0.2816 -0.87998,-0.38719 -0.42238,-0.10565 -0.77437,-0.10565 -0.91517,0 -1.58394,0.42239 -0.70399,0.42238 -0.4576,1.12636 0.0703,0.176 0.2112,0.38719 0.1408,0.21119 0.3168,0.38719 0.49278,0.45759 1.16155,0.70397 0.66878,0.2112 1.23196,0.2464 1.30237,0.0703 1.61915,-0.66878 0.3168,-0.73918 0,-1.75995 -0.14079,-0.45758 -0.38718,-0.95037 -0.2112,-0.49278 -0.42239,-1.02076 -0.28159,-0.52798 -0.52798,-1.09117 -0.2464,-0.59838 -0.4224,-1.19676 z"
         style="font-style:normal;font-variant:normal;font-weight:normal;font-stretch:normal;font-size:medium;line-height:125%;font-family:'Blackberry Jam Personal Use';-inkscape-font-specification:'Blackberry Jam Personal Use, Normal';font-variant-ligatures:normal;font-variant-caps:normal;font-variant-numeric:normal;font-feature-settings:normal;text-align:start;letter-spacing:5px;word-spacing:0px;writing-mode:lr-tb;text-anchor:start;fill:#000000;fill-opacity:1;stroke:none;stroke-width:0.21073323px;stroke-linecap:butt;stroke-linejoin:miter;stroke-opacity:1"
         id="path1986"
         inkscape:connector-curvature="0" />
      <path
         d="m 207.57723,171.16439 q 0.35199,-0.14079 1.02077,0.0352 0.70398,0.17599 1.37276,0.56318 0.70398,0.352 1.23196,0.87998 0.52799,0.49278 0.59837,1.02076 l -0.63356,2.00634 q -0.4224,1.02078 -0.91518,2.39353 -0.49279,1.33756 -0.84477,2.53431 -0.3168,1.19677 -0.3872,2.04155 -0.0703,0.84476 0.4224,0.84476 h 0.38718 q 0.98557,-0.28158 1.72475,-0.84476 0.77438,-0.59839 1.40795,-1.33757 0.63358,-0.77437 1.12637,-1.58395 0.49278,-0.84476 0.95037,-1.65434 l 0.31679,-0.59839 q 0.10565,-0.14079 0.42238,-0.10564 0.352,0.0352 0.66878,0.21119 0.35199,0.1408 0.56319,0.35199 0.2112,0.2112 0.0704,0.42239 -0.91517,1.79514 -1.97114,3.41429 -1.05597,1.61915 -2.81591,2.92151 -0.2112,0.176 -0.56318,0.42238 -0.352,0.2112 -0.84478,0.4224 -0.45759,0.21119 -1.02077,0.31678 -0.56318,0.1408 -1.19676,0.1408 -1.23197,-0.0352 -2.04153,-0.70398 -0.84479,-0.70398 -1.16157,-1.72475 -0.2816,-0.73916 -0.2112,-1.68954 h -0.0352 q 0.0352,-1.16157 0.42239,-2.85112 0.35199,-1.68954 0.84477,-3.41429 0.35199,-1.23195 0.63358,-2.32312 0.24639,-1.12636 0.31679,-1.93595 z m 0.95037,-7.81414 q 0.35199,-0.0352 1.09116,0.35198 0.73918,0.35198 1.47837,0.84477 0.77436,0.49278 1.33755,1.02078 0.56318,0.49278 0.63358,0.70397 0.0352,0.56318 -0.17599,1.12636 -0.176,0.56318 -0.35199,1.16157 -0.176,0.59838 -0.35199,1.16156 -0.1408,0.56318 -0.1408,1.30236 -0.38718,-0.0352 -0.95036,-0.31679 -0.52799,-0.28159 -1.05597,-0.59839 -0.52798,-0.35198 -0.91518,-0.70396 -0.38718,-0.3872 -0.45758,-0.63359 -0.176,-0.56318 -0.2112,-1.16156 0,-0.59838 0,-1.23197 0.0352,-0.70398 0,-1.40795 -0.0352,-0.73918 -0.17599,-1.30236 z m 3.27349,10.63005 q 0,-0.0703 0,-0.14078 0.0352,-0.10565 0,-0.176 0.10565,-0.10565 0,0.31678 z"
         style="font-style:normal;font-variant:normal;font-weight:normal;font-stretch:normal;font-size:medium;line-height:125%;font-family:'Blackberry Jam Personal Use';-inkscape-font-specification:'Blackberry Jam Personal Use, Normal';font-variant-ligatures:normal;font-variant-caps:normal;font-variant-numeric:normal;font-feature-settings:normal;text-align:start;letter-spacing:5px;word-spacing:0px;writing-mode:lr-tb;text-anchor:start;fill:#000000;fill-opacity:1;stroke:none;stroke-width:0.21073323px;stroke-linecap:butt;stroke-linejoin:miter;stroke-opacity:1"
         id="path1988"
         inkscape:connector-curvature="0" />
      <path
         d="m 230.40978,189.04544 q 0.42239,0.14079 0.80957,0.28159 0.38718,0.1408 0.80958,0.31679 1.33755,0.52798 2.78071,1.05596 1.47835,0.52799 3.0271,0.91518 0.2464,0.10565 0.2464,0.49279 0,0.38718 -0.2816,0.80957 -0.28158,0.42239 -0.84476,0.73918 -0.56319,0.35198 -1.37277,0.35198 -0.73917,0 -1.47835,-0.31678 l -2.53433,-1.09117 h 0.0352 q -0.66877,-0.2816 -1.26715,-0.56318 -0.59838,-0.2464 -1.16157,-0.45759 -0.63358,1.12637 -1.44316,2.07674 -0.77437,0.95036 -1.86553,1.65434 -1.05597,0.70399 -2.46393,1.09117 -1.40795,0.42238 -3.3087,0.42238 -1.05596,0 -2.18233,-0.17598 -1.12637,-0.1408 -2.14713,-0.56318 -1.02077,-0.3872 -1.83035,-1.09117 -0.80957,-0.70398 -1.23196,-1.79515 -0.49279,-1.30236 -0.0703,-2.42873 0.38718,-1.12636 1.47835,-1.97113 1.05596,-0.80958 2.67511,-1.26716 1.58395,-0.45759 3.4495,-0.45759 1.05596,0 1.90073,0.0352 0.84478,0.0704 1.61915,0.17598 0.77438,0.10565 1.47836,0.2464 0.70398,0.1408 1.47835,0.35199 l 0.59838,-2.46392 0.2112,-0.95037 q -0.73918,0.59837 -1.61915,0.98557 -0.84478,0.35198 -1.75994,0.38718 -1.30237,-0.10564 -2.28793,-0.49278 -0.98557,-0.42238 -1.68955,-0.98557 -0.66878,-0.59838 -1.09117,-1.26716 -0.42238,-0.66878 -0.59838,-1.26716 -0.10565,-0.28159 -0.1408,-0.49279 -0.0352,-0.21118 -0.0703,-0.38718 -0.21118,-1.40796 0.2816,-3.1327 0.49278,-1.72475 1.61915,-3.23831 1.16156,-1.51355 2.88631,-2.53431 1.75995,-1.05597 4.01268,-1.05597 0.49278,0 0.91516,0.0352 0.45759,0.0352 0.91517,0.14079 0.87998,0.176 1.51356,0.59838 0.63357,0.4224 1.09117,0.98558 0.45758,0.56318 0.73917,1.23195 0.3168,0.66879 0.49278,1.30237 0.0352,0.2112 -0.21118,0.31678 -0.2464,0.10565 -0.59839,0.10565 -0.35199,0 -0.66878,-0.10565 -0.31678,-0.14078 -0.38718,-0.35198 -0.0352,-0.0704 -0.10565,-0.176 -0.0352,-0.10565 -0.10565,-0.21119 -0.2112,-0.56318 -0.70398,-1.19676 -0.49278,-0.63358 -1.65435,-0.66878 -1.37275,-0.0352 -2.39352,0.70398 -1.02077,0.73918 -1.72474,1.83035 -0.66879,1.09116 -1.05597,2.35831 -0.352,1.26717 -0.3872,2.25273 0,0.352 0.0352,0.80958 0.0704,0.42239 0.176,0.77437 0.2112,0.66878 0.77438,1.12637 0.59837,0.45759 1.72473,0.2464 0.4224,-0.1408 0.91518,-0.56319 0.52799,-0.42238 1.02077,-0.98556 0.52798,-0.56319 0.95037,-1.19677 0.45758,-0.63358 0.77438,-1.23196 0.24638,-0.91517 0.38718,-1.86554 0.176,-0.95038 0,-1.72474 0.38718,-0.176 1.23196,0.0703 0.87997,0.21119 1.72475,0.66878 0.87997,0.42239 1.51355,0.98558 0.66878,0.56318 0.59838,1.09116 z m -9.08132,5.98382 q 1.68955,-0.59838 2.78071,-1.86555 1.09117,-1.23196 1.75995,-2.81591 -1.16156,-0.35198 -2.32313,-0.56318 -1.12636,-0.176 -2.42873,-0.176 -1.19676,-0.0352 -2.46391,0.1408 -1.30237,0.2112 -2.28793,0.63358 -1.02077,0.42238 -1.54875,1.09117 -0.52799,0.66878 -0.2112,1.58394 0.2464,0.63359 0.73918,1.05597 0.49278,0.42238 1.12636,0.70398 0.59839,0.28159 1.30236,0.38719 0.70398,0.14079 1.40796,0.14079 0.59838,0 1.12636,-0.10564 0.56319,-0.0703 1.02077,-0.21119 z"
         style="font-style:normal;font-variant:normal;font-weight:normal;font-stretch:normal;font-size:medium;line-height:125%;font-family:'Blackberry Jam Personal Use';-inkscape-font-specification:'Blackberry Jam Personal Use, Normal';font-variant-ligatures:normal;font-variant-caps:normal;font-variant-numeric:normal;font-feature-settings:normal;text-align:start;letter-spacing:5px;word-spacing:0px;writing-mode:lr-tb;text-anchor:start;fill:#000000;fill-opacity:1;stroke:none;stroke-width:0.21073323px;stroke-linecap:butt;stroke-linejoin:miter;stroke-opacity:1"
         id="path1990"
         inkscape:connector-curvature="0" />
      <path
         d="m 256.0051,180.45691 q -0.3168,0.63358 -0.87998,1.58395 -0.52799,0.91517 -1.30236,1.79515 -0.77438,0.87996 -1.75994,1.51355 -0.98558,0.59838 -2.11195,0.59838 -0.70397,0 -1.40795,-0.176 -0.70398,-0.17599 -1.33756,-0.56318 -0.59837,-0.38719 -1.09117,-0.98557 -0.45758,-0.59838 -0.66877,-1.44315 -0.21119,-0.73918 -0.24639,-1.47836 -0.0352,-0.73917 0.0352,-1.54875 0.0703,-0.84477 0.2464,-1.79515 0.17599,-0.95036 0.42238,-2.11193 0.1408,-0.56318 0.17599,-1.02077 0.0352,-0.45758 -0.0703,-0.77438 -0.0703,-0.17598 -0.4576,0 -0.35198,0.176 -1.16155,0.91518 -1.02078,0.91517 -1.79515,1.79514 -0.73918,0.87998 -1.44316,1.90074 -0.35198,1.65435 -0.42238,3.3439 -0.0352,1.68955 0.35198,3.44949 0.0352,0.24639 -0.49277,0.17599 -0.52798,-0.0352 -1.19678,-0.24638 -0.66877,-0.2464 -1.26715,-0.52799 -0.63358,-0.31679 -0.77438,-0.59838 -0.28158,-1.09117 -0.35198,-2.14713 -0.0703,-1.09117 0,-2.14713 0.0352,-1.05597 0.17598,-2.07675 0.1408,-1.05596 0.2816,-2.11193 0.176,-1.09116 0.3168,-2.18233 0.10552,-1.12637 0.176,-2.35833 0.35198,-0.14079 1.02075,0.0352 0.70398,0.1408 1.44316,0.52799 0.73917,0.35199 1.33755,0.84478 0.5984,0.49278 0.77438,0.98556 0.98557,-1.02076 2.21754,-1.72474 1.23196,-0.70398 2.78071,-0.77437 0.45759,0 1.05596,0.28158 0.59839,0.2816 1.12637,0.70399 0.56318,0.42238 0.91518,0.91516 0.38718,0.45759 0.35198,0.80958 -0.17598,1.30235 -0.42239,2.46392 -0.24639,1.16156 -0.42239,1.97114 -0.31678,1.44315 -0.49278,2.56952 -0.176,1.12637 0.176,2.56952 0.0352,0.0703 0.14079,0.10564 0.14081,0.0352 0.45759,-0.10564 0.87997,-0.38719 1.93593,-1.33756 1.05597,-0.95036 1.90075,-2.53432 0.4224,-0.77437 0.73917,-1.58395 l 0.3872,-0.91517 q 0.0703,-0.1408 0.35199,-0.0703 0.31679,0.0352 0.63357,0.2112 0.35199,0.17598 0.56319,0.42238 0.24639,0.2112 0.14079,0.42239 l -0.0352,-0.0352 z"
         style="font-style:normal;font-variant:normal;font-weight:normal;font-stretch:normal;font-size:medium;line-height:125%;font-family:'Blackberry Jam Personal Use';-inkscape-font-specification:'Blackberry Jam Personal Use, Normal';font-variant-ligatures:normal;font-variant-caps:normal;font-variant-numeric:normal;font-feature-settings:normal;text-align:start;letter-spacing:5px;word-spacing:0px;writing-mode:lr-tb;text-anchor:start;fill:#000000;fill-opacity:1;stroke:none;stroke-width:0.21073323px;stroke-linecap:butt;stroke-linejoin:miter;stroke-opacity:1"
         id="path1992"
         inkscape:connector-curvature="0" />
    </g>
  </g>
</svg>
